<svg width="220" height="220" viewBox="0 0 220 220" fill="none" xmlns="http://www.w3.org/2000/svg">
<path d="M96.3817 74.5773C86.043 81.3315 62.263 81.1106 57.3197 100.24C57.3197 121.763 71.7058 133.72 119.951 132.64C168.195 131.56 165.255 169.994 157.754 189.345" stroke="#FBFAFF" stroke-dasharray="8 8"/>
<path d="M67.8264 92.3257C75.2454 91.072 81.7729 86.1901 84.1093 83.9059L80.8538 76.8312C80.2805 78.4884 71.6417 80.639 67.394 81.5071C62.4531 82.854 60.6986 86.3219 60.7295 87.4422C60.3541 92.3767 65.3043 92.7539 67.8264 92.3257Z" fill="#00BBFF"/>
<path d="M122.22 112.932C110.28 98.5421 104.833 88.5993 103.602 85.4267C102.341 82.793 102.13 80.0725 102.182 79.0415C106.897 76.3285 111.664 70.7977 113.459 68.3714C117.402 64.0383 120.606 40.8743 121.714 29.8339C113.577 32.3451 102.819 39.4692 98.4574 42.7174C97.9876 33.4739 94.6752 24.255 93.0778 20.8009C89.8311 24.0655 79.8493 33.8792 75.2643 38.378C68.038 47.1202 65.0932 53.4826 64.7402 60.8606C64.3304 69.4287 75.7167 76.7991 80.8895 78.9887C81.713 83.4866 81.0815 93.2895 80.6628 97.6288C80.3691 103.658 81.7788 116.662 89.7672 120.452C97.7556 124.241 97.6728 119.685 96.6328 116.933C93.3006 109.275 93.9443 105.616 94.6827 104.743C97.9294 101.479 101.02 104.434 102.159 106.32C108.843 116.469 115.093 118.335 118.373 118.951C125.459 119.765 125.447 115.696 122.22 112.932Z" fill="#00BBFF"/>
<path d="M129.992 70.271C119.877 84.9991 106.452 86.3127 101.004 85.1286L100.637 77.9072C101.604 77.8267 103.65 77.3758 104.552 77.1603C110.271 75.7113 119.83 68.4654 123.894 65.0236C124.921 64.4236 127.396 63.7029 129.091 65.6205C130.785 67.5382 130.398 69.5198 129.992 70.271Z" fill="#00BBFF"/>
<ellipse cx="7.60785" cy="8.55883" rx="7.60785" ry="8.55883" transform="matrix(-0.993467 -0.114121 -0.114121 0.993467 106.456 52.2515)" fill="white"/>
<ellipse cx="5.2304" cy="5.94363" rx="5.2304" ry="5.94363" transform="matrix(-0.993467 -0.114121 -0.114121 0.993467 100.714 54.7515)" fill="#233237"/>
<ellipse cx="7.60785" cy="8.55883" rx="7.60785" ry="8.55883" transform="matrix(-0.925922 -0.377714 -0.377714 0.925922 90.535 46.1045)" fill="white"/>
<ellipse cx="5.2304" cy="5.94363" rx="5.2304" ry="5.94363" transform="matrix(-0.925922 -0.377714 -0.377714 0.925922 84.5775 47.8818)" fill="#233237"/>
<ellipse cx="2.57201" cy="3.0582" rx="2.57201" ry="3.0582" transform="matrix(-0.891664 -0.452697 -0.452697 0.891664 86.3174 66.2131)" fill="#233237"/>
</svg>
