<svg width="220" height="220" viewBox="0 0 220 220" fill="none" xmlns="http://www.w3.org/2000/svg">
<g filter="url(#filter0_di_995_1619)">
<path d="M128.854 123.702C117.291 114.801 99.6479 127.904 109.325 142.375C118.703 156.4 135.555 155.128 149.166 158.519C152.876 144.938 162.933 129.312 154.624 115.725C145.54 100.872 127.455 108.822 128.854 123.702Z" fill="url(#paint0_radial_995_1619)"/>
</g>
<path d="M78.6748 111.573C77.7759 108.826 78.3487 103.298 78.7475 100.877C82.9939 100.24 87.364 93.7085 89.0182 90.5227C90.6426 88.5507 91.3765 90.3452 91.5407 91.4885C92.9733 99.9772 83.5603 108.415 78.6748 111.573Z" fill="#9661FF"/>
<path d="M140.912 87.2842C138.402 89.632 135.228 89.9299 133.955 89.7854C137.013 82.9465 131.999 72.9949 129.11 68.874C127.958 66.1254 129.604 66.2106 130.571 66.5968C138.337 70.2958 140.701 81.9296 140.912 87.2842Z" fill="#9661FF" stroke="#9661FF"/>
<path d="M106.883 108.839C104.826 111.798 104.382 116.178 104.417 117.998C97.1675 117.679 93.0925 109.398 91.9607 105.297C90.868 100.416 92.7774 100.943 93.8688 101.816C98.72 108.165 104.566 109.143 106.883 108.839Z" fill="#9661FF" stroke="#9661FF"/>
<path d="M106.476 132.959C83.6348 135.722 78.2896 113.284 78.3067 108.841C81.4264 107.779 88.1554 103.106 90.1145 92.9087C90.1906 92.2851 90.1458 91.3346 89.3581 92.5239C87.9996 95.4364 83.8665 101.685 78.2014 103.381C71.1199 105.5 61.5821 105.892 58.8729 96.0065C55.9603 84.7928 65.6136 81.1788 70.8043 80.7735C74.0133 80.5626 75.5402 78.2286 75.9025 77.0879C79.1735 67.3046 89.5204 61.2293 94.2852 59.4145C110.123 53.1027 122.618 60.0566 126.885 64.3226C127.246 64.2038 127.855 64.1385 129.757 62.2446C131.229 60.5768 133.753 57.7594 135.504 56.6254C142.998 51.3352 148.515 56.1466 150.274 58.7378C154.568 65.4394 149.687 71.8219 146.71 74.1755C144.403 76.118 144.092 78.9115 144.224 80.0654C144.538 83.8505 141.64 86.833 140.152 87.8512C139.263 75.8868 133.623 69.3956 130.915 67.6456C130.347 67.304 129.401 67.0026 130.153 68.5302C133.785 73.9564 139.554 87.3081 133.579 97.3053C135.009 97.9267 138.138 99.2918 139.222 99.7801C140.389 100.241 143.701 101.201 147.616 101.35C150.089 101.522 156.131 103.936 155.136 108.278C154.901 109.166 153.68 110.702 150.678 109.746C150.896 110.625 150.737 112.495 148.361 112.939C145.984 113.383 142.177 112.525 140.217 112.132C137.556 111.599 130.899 109.663 125.556 106.18C122.699 107.79 114.799 110.904 106.057 110.485C99.7598 110.506 95.1178 105.738 94.0522 103.658C93.5497 102.894 93.2019 102.987 93.1683 103.527C93.3085 108.13 97.1633 115.737 104.295 116.982C110 117.978 115.33 121.38 117.282 122.957C121.863 127.197 121.401 130.195 120.598 131.164C119.76 132.2 118.541 132.158 118.037 132.007C118.231 133.887 117.225 134.986 116.698 135.3C114.876 136.154 113.478 134.987 113.007 134.296C112.723 135.742 111.536 136.33 110.978 136.443C108.904 137.041 107.039 134.359 106.476 132.959Z" fill="#DF8DFF"/>
<path d="M110.079 99.0175C114.846 97.4485 117.369 92.0766 115.715 87.019C114.06 81.9615 108.854 79.1335 104.087 80.7025C99.3199 82.2715 96.7969 87.6434 98.4517 92.701C100.106 97.7585 105.312 100.587 110.079 99.0175Z" fill="#FFF1D5"/>
<path d="M111.673 97.325C113.693 96.9578 114.927 94.5405 114.43 91.9258C113.933 89.311 111.893 87.489 109.873 87.8562C107.854 88.2234 106.62 90.6407 107.117 93.2554C107.614 95.8701 109.654 97.6921 111.673 97.325Z" fill="#23221E"/>
<path d="M129.151 93.7265C133.603 92.2609 135.932 87.1578 134.352 82.3283C132.772 77.4989 127.881 74.7719 123.428 76.2375C118.976 77.703 116.647 82.8062 118.227 87.6356C119.807 92.4651 124.698 95.192 129.151 93.7265Z" fill="#FFF1D5"/>
<path d="M130.635 92.1667C132.523 91.8294 133.663 89.5336 133.182 87.039C132.701 84.5445 130.78 82.7957 128.892 83.1331C127.003 83.4704 125.863 85.7661 126.344 88.2607C126.826 90.7553 128.747 92.5041 130.635 92.1667Z" fill="#23221E"/>
<path d="M115.421 101.088C116.828 102.786 119.421 102.522 120.541 102.154L121.205 101.935L121.869 101.717C122.976 101.246 123.957 100.712 124.619 99.9397C125.368 98.8475 124.829 97.8737 124.466 97.5232C123.728 96.8266 122.868 97.1882 122.53 97.456C121.667 98.2098 120.664 98.5793 120.076 98.7336C119.357 98.8763 118.311 98.649 117.878 98.5176C116.933 98.2302 116.541 98.3309 116.168 98.4928C115.428 98.8303 115.096 99.5505 115.04 99.9214C115.022 100.378 115.265 100.826 115.421 101.088Z" fill="#23221E"/>
<defs>
<filter id="filter0_di_995_1619" x="74.5294" y="79.7983" width="115.297" height="114.72" filterUnits="userSpaceOnUse" color-interpolation-filters="sRGB">
<feFlood flood-opacity="0" result="BackgroundImageFix"/>
<feColorMatrix in="SourceAlpha" type="matrix" values="0 0 0 0 0 0 0 0 0 0 0 0 0 0 0 0 0 0 127 0" result="hardAlpha"/>
<feOffset dy="4"/>
<feGaussianBlur stdDeviation="16"/>
<feComposite in2="hardAlpha" operator="out"/>
<feColorMatrix type="matrix" values="0 0 0 0 1 0 0 0 0 0.519231 0 0 0 0 0.951923 0 0 0 0.25 0"/>
<feBlend mode="normal" in2="BackgroundImageFix" result="effect1_dropShadow_995_1619"/>
<feBlend mode="normal" in="SourceGraphic" in2="effect1_dropShadow_995_1619" result="shape"/>
<feColorMatrix in="SourceAlpha" type="matrix" values="0 0 0 0 0 0 0 0 0 0 0 0 0 0 0 0 0 0 127 0" result="hardAlpha"/>
<feOffset dy="4"/>
<feGaussianBlur stdDeviation="7.5"/>
<feComposite in2="hardAlpha" operator="arithmetic" k2="-1" k3="1"/>
<feColorMatrix type="matrix" values="0 0 0 0 1 0 0 0 0 1 0 0 0 0 1 0 0 0 0.3 0"/>
<feBlend mode="normal" in2="shape" result="effect2_innerShadow_995_1619"/>
</filter>
<radialGradient id="paint0_radial_995_1619" cx="0" cy="0" r="1" gradientUnits="userSpaceOnUse" gradientTransform="translate(132.907 135.021) rotate(81.367) scale(25.672 82.041)">
<stop stop-color="#FE0050"/>
<stop offset="1" stop-color="#FF005E"/>
</radialGradient>
</defs>
</svg>
