<svg width="220" height="220" viewBox="0 0 220 220" fill="none" xmlns="http://www.w3.org/2000/svg">
<g filter="url(#filter0_d_995_1751)">
<path d="M104.979 158.148L91.0731 170.878C90.6665 171.25 90.0706 171.326 89.5801 171.069L27.1418 138.238C26.3391 137.815 26.1968 136.728 26.8637 136.118L40.7694 123.387C41.176 123.015 41.7719 122.939 42.2624 123.196L104.701 156.027C105.503 156.45 105.646 157.537 104.979 158.148Z" fill="#2C2C2C"/>
<path d="M53.8359 139.866L53.53 139.908L52.0035 140.122L51.8868 139.045L51.8645 138.829L51.2555 138.914L51.2778 139.13L51.4167 140.423L51.439 140.639L51.7449 140.596L53.5772 140.339L53.8831 140.296L53.8359 139.866ZM38.2774 136.621L43.8619 131.509L50.3641 134.928L44.7796 140.04L38.2774 136.621ZM51.2281 134.807L50.7627 134.563L44.2605 131.144L43.7952 130.9L43.3965 131.265L37.8121 136.377L37.4124 136.743L37.8777 136.986L44.3799 140.406L44.8441 140.651L45.2439 140.285L50.8283 135.173L51.227 134.809" fill="#F2F2F2"/>
<path d="M76.1322 151.589L75.8264 151.632L74.2998 151.846L74.1832 150.768L74.1609 150.553L73.5507 150.64L73.573 150.855L73.712 152.148L73.7343 152.364L74.0401 152.321L75.871 152.064L76.1768 152.021L76.1296 151.59M66.3893 146.602L66.0673 143.61L68.4055 145.933L68.4101 145.936L68.4147 145.94C69.114 146.595 69.0751 147.589 68.2413 148.353C68.0512 148.527 67.8327 148.676 67.5976 148.8L67.2803 148.967L67.3083 149.23L67.4315 150.367L65.5991 150.623L65.4778 149.497L65.4493 149.231L65.1004 149.16C64.836 149.104 64.5847 149.017 64.3559 148.898C64.2673 148.852 64.1846 148.801 64.1065 148.746C63.3124 148.19 63.1718 147.287 63.7382 146.51L63.7489 146.495L63.7596 146.48L65.4576 143.699L65.7803 146.687C65.6576 146.735 65.5464 146.803 65.4556 146.887C65.1504 147.167 65.1652 147.537 65.4712 147.751C65.4972 147.769 65.5243 147.786 65.554 147.802C65.9384 148.005 66.5184 147.922 66.8479 147.621C67.1531 147.341 67.1383 146.972 66.8323 146.757C66.8062 146.739 66.7792 146.723 66.7495 146.706C66.6415 146.649 66.519 146.615 66.3893 146.602ZM65.6247 142.379L65.3237 142.871L63.2024 146.345C62.5111 147.293 62.6821 148.397 63.6522 149.076C63.7455 149.141 63.8477 149.204 63.9557 149.261C64.2352 149.409 64.5446 149.514 64.8672 149.581L64.9885 150.707L65.0357 151.138L65.6474 151.052L67.4797 150.796L68.0903 150.712L68.0431 150.281L67.92 149.144C68.2079 148.993 68.4738 148.809 68.7067 148.597C69.7273 147.663 69.774 146.45 68.9185 145.646L66.0242 142.773L65.6257 142.378" fill="#F2F2F2"/>
<path d="M83.7124 161.09L83.9525 160.633L85.4171 161.403L90.9957 156.296L88.6963 155.087L87.4338 156.243L87.0832 155.861L88.6129 154.46L94.6733 157.648L93.0064 159.172L92.6558 158.791L93.781 157.76L91.4816 156.55L85.9029 161.657L87.2032 162.34L86.963 162.797L85.3362 161.942L83.7093 161.088L83.7124 161.09Z" fill="#F2F2F2"/>
</g>
<g filter="url(#filter1_d_995_1751)">
<path d="M57.6787 134.99C63.9826 135.951 75.0511 127.103 79.7974 122.559C81.5391 120.97 82.9492 120.486 83.4365 120.443L79.2977 111.2L76.474 112.865C73.3241 114.71 49.7987 133.789 57.6787 134.99Z" fill="#FED168"/>
</g>
<g filter="url(#filter2_d_995_1751)">
<path d="M83.1978 148.656C89.7537 148.354 100.377 135.957 104.869 129.796C108.461 124.869 109.941 121.045 110.275 120.366L103.399 117.112L100.639 119.608C97.5588 122.378 75.0029 149.034 83.1978 148.656Z" fill="#FED168"/>
</g>
<g filter="url(#filter3_d_995_1751)">
<path d="M155.138 86.4688C162.102 88.9493 162.586 94.9867 162.766 97.6326C162.707 95.8009 162.366 91.5833 161.477 89.3672C160.365 86.597 154.498 75.1936 144.779 71.8625C135.514 68.6871 126.063 66.0566 107.119 75.6086C91.9638 83.2502 82.2687 97.5181 79.3155 103.697C77.164 108.995 75.7305 120.977 87.2091 126.523C98.6876 132.068 106.526 128.647 108.458 124.46C111.827 117.159 114.572 110.268 116.287 106.812C128.678 88.2915 146.434 83.3682 155.138 86.4688Z" fill="#FFD26A"/>
</g>
<ellipse cx="7.00496" cy="7.68286" rx="7.00496" ry="7.68286" transform="matrix(-0.991195 -0.132409 -0.132409 0.991195 109.68 105.929)" fill="#F5F5F5"/>
<ellipse cx="3.27651" cy="3.61546" rx="3.27651" ry="3.61546" transform="matrix(-0.991195 -0.132409 -0.132409 0.991195 101.425 110.128)" fill="#36292E"/>
<ellipse cx="2.19586" cy="3.82118" rx="2.19586" ry="3.82118" transform="matrix(-0.539458 0.842013 0.842013 0.539458 87.5957 116.502)" fill="#DD5C10"/>
<ellipse cx="7.00496" cy="7.68286" rx="7.00496" ry="7.68286" transform="matrix(-0.955004 -0.296592 -0.296592 0.955004 97.011 100.515)" fill="#F5F5F5"/>
<ellipse cx="3.27651" cy="3.61546" rx="3.27651" ry="3.61546" transform="matrix(-0.991195 -0.132409 -0.132409 0.991195 87.7192 103.508)" fill="#36292E"/>
<defs>
<filter id="filter0_d_995_1751" x="18.9998" y="110" width="93.8442" height="82.2637" filterUnits="userSpaceOnUse" color-interpolation-filters="sRGB">
<feFlood flood-opacity="0" result="BackgroundImageFix"/>
<feColorMatrix in="SourceAlpha" type="matrix" values="0 0 0 0 0 0 0 0 0 0 0 0 0 0 0 0 0 0 127 0" result="hardAlpha"/>
<feOffset dy="4"/>
<feGaussianBlur stdDeviation="2"/>
<feComposite in2="hardAlpha" operator="out"/>
<feColorMatrix type="matrix" values="0 0 0 0 0 0 0 0 0 0 0 0 0 0 0 0 0 0 0.5 0"/>
<feBlend mode="normal" in2="BackgroundImageFix" result="effect1_dropShadow_995_1751"/>
<feBlend mode="normal" in="SourceGraphic" in2="effect1_dropShadow_995_1751" result="shape"/>
</filter>
<filter id="filter1_d_995_1751" x="52.0732" y="111.2" width="35.3633" height="31.8628" filterUnits="userSpaceOnUse" color-interpolation-filters="sRGB">
<feFlood flood-opacity="0" result="BackgroundImageFix"/>
<feColorMatrix in="SourceAlpha" type="matrix" values="0 0 0 0 0 0 0 0 0 0 0 0 0 0 0 0 0 0 127 0" result="hardAlpha"/>
<feOffset dy="4"/>
<feGaussianBlur stdDeviation="2"/>
<feComposite in2="hardAlpha" operator="out"/>
<feColorMatrix type="matrix" values="0 0 0 0 0 0 0 0 0 0 0 0 0 0 0 0 0 0 0.25 0"/>
<feBlend mode="normal" in2="BackgroundImageFix" result="effect1_dropShadow_995_1751"/>
<feBlend mode="normal" in="SourceGraphic" in2="effect1_dropShadow_995_1751" result="shape"/>
</filter>
<filter id="filter2_d_995_1751" x="77.416" y="117.112" width="36.8589" height="39.5483" filterUnits="userSpaceOnUse" color-interpolation-filters="sRGB">
<feFlood flood-opacity="0" result="BackgroundImageFix"/>
<feColorMatrix in="SourceAlpha" type="matrix" values="0 0 0 0 0 0 0 0 0 0 0 0 0 0 0 0 0 0 127 0" result="hardAlpha"/>
<feOffset dy="4"/>
<feGaussianBlur stdDeviation="2"/>
<feComposite in2="hardAlpha" operator="out"/>
<feColorMatrix type="matrix" values="0 0 0 0 0 0 0 0 0 0 0 0 0 0 0 0 0 0 0.25 0"/>
<feBlend mode="normal" in2="BackgroundImageFix" result="effect1_dropShadow_995_1751"/>
<feBlend mode="normal" in="SourceGraphic" in2="effect1_dropShadow_995_1751" result="shape"/>
</filter>
<filter id="filter3_d_995_1751" x="64.8396" y="60.9534" width="106.927" height="82.458" filterUnits="userSpaceOnUse" color-interpolation-filters="sRGB">
<feFlood flood-opacity="0" result="BackgroundImageFix"/>
<feColorMatrix in="SourceAlpha" type="matrix" values="0 0 0 0 0 0 0 0 0 0 0 0 0 0 0 0 0 0 127 0" result="hardAlpha"/>
<feOffset dx="-2" dy="3"/>
<feGaussianBlur stdDeviation="5.5"/>
<feComposite in2="hardAlpha" operator="out"/>
<feColorMatrix type="matrix" values="0 0 0 0 0 0 0 0 0 0 0 0 0 0 0 0 0 0 0.2 0"/>
<feBlend mode="normal" in2="BackgroundImageFix" result="effect1_dropShadow_995_1751"/>
<feBlend mode="normal" in="SourceGraphic" in2="effect1_dropShadow_995_1751" result="shape"/>
</filter>
</defs>
</svg>
