<svg width="220" height="220" viewBox="0 0 220 220" fill="none" xmlns="http://www.w3.org/2000/svg">
<g filter="url(#filter0_d_995_1648)">
<mask id="mask0_995_1648" style="mask-type:luminance" maskUnits="userSpaceOnUse" x="63" y="139" width="22" height="24">
<path d="M84.2825 142.422L66.0234 139.883L63.288 159.543L81.5471 162.083L84.2825 142.422Z" fill="white"/>
</mask>
<g mask="url(#mask0_995_1648)">
<path d="M82.7284 142.206L67.5769 140.099C66.7187 139.98 65.9249 140.587 65.8041 141.457L63.5063 157.971C63.3855 158.84 63.9832 159.641 64.8415 159.76L79.9927 161.867C80.8508 161.986 81.6446 161.379 81.7655 160.51L84.063 143.995C84.184 143.126 83.5867 142.326 82.7284 142.206Z" fill="#16C0D3"/>
<path d="M70.1676 148.636C70.1465 148.789 70.1132 148.99 70.0678 149.24L69.9889 149.75C69.9197 150.248 69.8979 150.67 69.9238 151.016C69.9618 151.502 70.0664 151.888 70.2378 152.174C70.3981 152.426 70.6181 152.571 70.8978 152.61C71.1154 152.64 71.3187 152.601 71.5079 152.494C71.6978 152.381 71.8532 152.232 71.9742 152.046C72.1748 151.743 72.3084 151.353 72.3747 150.875C72.4148 150.587 72.4442 150.244 72.4626 149.846C72.4927 149.401 72.5232 149.068 72.5538 148.848C72.5699 148.733 72.6474 148.668 72.7864 148.656C72.9262 148.638 73.0687 148.639 73.2137 148.659C73.2656 148.666 73.3203 148.709 73.3782 148.786C73.4361 148.864 73.4595 148.942 73.4486 149.021C73.4267 149.177 73.3981 149.327 73.3629 149.466C73.3306 149.622 73.3101 149.731 73.3013 149.793C73.2736 149.993 73.2454 150.272 73.2166 150.632C73.2093 150.722 73.1994 150.829 73.1872 150.956C73.1748 151.082 73.1574 151.227 73.1347 151.389C73.0851 151.746 72.95 152.091 72.7296 152.424C72.5149 152.752 72.2413 153.01 71.9088 153.199C71.577 153.383 71.222 153.448 70.844 153.396C70.2637 153.315 69.8368 153.064 69.563 152.641C69.2899 152.213 69.1358 151.689 69.1004 151.069C69.0813 150.714 69.0876 150.346 69.1194 149.966C69.1563 149.586 69.219 149.079 69.3073 148.445C69.3189 148.361 69.3687 148.288 69.4566 148.225C69.5496 148.163 69.6429 148.139 69.7362 148.152C70.0624 148.197 70.2063 148.358 70.1676 148.636ZM78.5478 149.377C78.6514 149.392 78.7243 149.436 78.7666 149.511C78.8149 149.583 78.8313 149.673 78.816 149.783C78.7992 149.904 78.7492 150.035 78.6659 150.179C78.4613 150.322 78.2256 150.515 77.9591 150.762C77.6925 151.008 77.375 151.317 77.0066 151.687C77.2258 152.199 77.4067 152.588 77.5492 152.853C77.6926 153.114 77.8382 153.299 77.9865 153.411C78.0487 153.458 78.1246 153.5 78.2142 153.539C78.3282 153.592 78.4112 153.641 78.4631 153.686C78.515 153.731 78.5358 153.789 78.5255 153.863C78.5051 154.009 78.4224 154.11 78.2776 154.165C78.1334 154.214 77.9656 154.226 77.7739 154.2C77.5252 154.165 77.2985 153.992 77.0937 153.68C76.8941 153.369 76.6643 152.915 76.4041 152.317C76.0172 152.708 75.6961 153.024 75.4406 153.266C75.1858 153.502 74.9588 153.693 74.7592 153.836C74.7186 153.862 74.6632 153.882 74.5929 153.893C74.5234 153.9 74.4654 153.9 74.4186 153.893C74.3047 153.877 74.2129 153.816 74.1432 153.711C74.0785 153.605 74.0507 153.503 74.0594 153.403C74.0614 153.386 74.0973 153.338 74.1666 153.257C74.2361 153.176 74.3384 153.085 74.4735 152.987C74.6169 152.905 74.81 152.751 75.053 152.523C75.3011 152.295 75.6367 151.971 76.0597 151.548L75.8847 151.155C75.7318 150.813 75.6181 150.568 75.5438 150.419C75.4695 150.269 75.3957 150.154 75.3223 150.075C75.2495 149.989 75.1666 149.941 75.0733 149.928C75.0423 149.923 74.9916 149.927 74.9214 149.939C74.857 149.946 74.8041 149.947 74.7626 149.94C74.7057 149.933 74.6554 149.915 74.6116 149.888C74.4902 149.812 74.4375 149.717 74.4536 149.602C74.4609 149.549 74.4774 149.505 74.5032 149.472C74.5577 149.383 74.6553 149.309 74.7957 149.248C74.942 149.182 75.1292 149.166 75.3571 149.198C75.5695 149.227 75.7458 149.308 75.8858 149.44C76.0259 149.572 76.1476 149.741 76.2508 149.948C76.3592 150.155 76.5018 150.476 76.6788 150.913C77.2894 150.282 77.7176 149.86 77.9636 149.649C78.1083 149.519 78.2198 149.438 78.2982 149.406C78.3766 149.375 78.4598 149.365 78.5478 149.377Z" fill="#2F2F2F"/>
<mask id="mask1_995_1648" style="mask-type:luminance" maskUnits="userSpaceOnUse" x="68" y="147" width="12" height="9">
<path d="M79.8011 149.013L68.9234 147.501L68.048 153.792L78.9258 155.305L79.8011 149.013Z" fill="white"/>
<path d="M70.1677 148.636C70.1466 148.788 70.1133 148.989 70.0679 149.239L69.989 149.749C69.9198 150.247 69.898 150.669 69.9239 151.015C69.9619 151.501 70.0665 151.887 70.238 152.173C70.3982 152.425 70.6182 152.57 70.8979 152.609C71.1156 152.64 71.3188 152.601 71.508 152.493C71.6979 152.381 71.8533 152.231 71.9744 152.045C72.175 151.742 72.3085 151.352 72.3748 150.875C72.4149 150.586 72.4443 150.243 72.4628 149.845C72.4928 149.4 72.5233 149.067 72.554 148.847C72.57 148.732 72.6475 148.668 72.7866 148.655C72.9264 148.637 73.0688 148.639 73.2139 148.658C73.2657 148.666 73.3204 148.708 73.3783 148.786C73.4362 148.863 73.4597 148.941 73.4487 149.02C73.4268 149.177 73.3982 149.326 73.3631 149.465C73.3308 149.621 73.3103 149.73 73.3015 149.793C73.2737 149.992 73.2455 150.271 73.2167 150.631C73.2094 150.721 73.1996 150.828 73.1873 150.956C73.1749 151.082 73.1575 151.227 73.1348 151.389C73.0852 151.746 72.9502 152.09 72.7297 152.423C72.515 152.751 72.2414 153.01 71.9089 153.199C71.5771 153.382 71.2221 153.447 70.8441 153.396C70.2639 153.314 69.8369 153.063 69.5631 152.64C69.29 152.212 69.1359 151.688 69.1006 151.068C69.0815 150.714 69.0877 150.345 69.1195 149.965C69.1564 149.585 69.2191 149.078 69.3074 148.444C69.319 148.36 69.3688 148.287 69.4568 148.225C69.5497 148.162 69.643 148.138 69.7363 148.151C70.0626 148.196 70.2064 148.357 70.1677 148.636ZM78.5479 149.376C78.6515 149.391 78.7244 149.436 78.7667 149.511C78.815 149.582 78.8314 149.672 78.8161 149.782C78.7994 149.903 78.7493 150.035 78.6661 150.179C78.4614 150.321 78.2257 150.515 77.9592 150.761C77.6926 151.008 77.3752 151.316 77.0067 151.687C77.2259 152.199 77.4068 152.587 77.5494 152.853C77.6927 153.113 77.8383 153.299 77.9866 153.41C78.0488 153.457 78.1247 153.499 78.2143 153.538C78.3283 153.591 78.4113 153.64 78.4632 153.686C78.5151 153.73 78.5359 153.789 78.5257 153.862C78.5052 154.009 78.4226 154.109 78.2777 154.165C78.1335 154.213 77.9657 154.226 77.774 154.199C77.5254 154.164 77.2987 153.991 77.0938 153.679C76.8942 153.368 76.6644 152.915 76.4042 152.316C76.0174 152.707 75.6962 153.023 75.4407 153.265C75.1859 153.502 74.9589 153.692 74.7594 153.835C74.7187 153.862 74.6633 153.881 74.593 153.892C74.5235 153.899 74.4655 153.899 74.4187 153.892C74.3048 153.877 74.213 153.815 74.1433 153.71C74.0786 153.604 74.0508 153.502 74.0595 153.402C74.0616 153.385 74.0974 153.337 74.1667 153.256C74.2362 153.175 74.3385 153.085 74.4736 152.986C74.617 152.905 74.8101 152.75 75.0531 152.522C75.3012 152.294 75.6368 151.97 76.0599 151.547L75.8848 151.154C75.7319 150.813 75.6182 150.567 75.5439 150.418C75.4696 150.268 75.3958 150.154 75.3224 150.074C75.2497 149.989 75.1667 149.94 75.0734 149.927C75.0424 149.922 74.9917 149.926 74.9215 149.939C74.8571 149.945 74.8042 149.946 74.7628 149.94C74.7059 149.933 74.6555 149.915 74.6117 149.887C74.4904 149.812 74.4376 149.716 74.4537 149.601C74.461 149.548 74.4775 149.505 74.5033 149.471C74.5579 149.382 74.6554 149.308 74.7958 149.247C74.9421 149.182 75.1293 149.166 75.3572 149.197C75.5696 149.226 75.7459 149.307 75.8859 149.439C76.026 149.571 76.1477 149.74 76.2509 149.947C76.3593 150.154 76.5019 150.475 76.679 150.912C77.2895 150.281 77.7177 149.859 77.9637 149.648C78.1084 149.518 78.2199 149.437 78.2983 149.406C78.3767 149.374 78.4599 149.364 78.5479 149.376Z" fill="black"/>
</mask>
<g mask="url(#mask1_995_1648)">
<path d="M70.068 149.238L69.682 149.167L69.6812 149.173L69.6803 149.178L70.068 149.238ZM69.9891 149.748L69.6015 149.688L69.601 149.691L69.6006 149.694L69.9891 149.748ZM70.2379 152.171L69.9024 152.379L69.905 152.383L69.9077 152.387L70.2379 152.171ZM71.508 152.492L71.6991 152.839L71.7023 152.836L71.7055 152.835L71.508 152.492ZM71.9744 152.044L71.6484 151.824L71.6466 151.827L71.9744 152.044ZM72.4627 149.843L72.0713 149.817L72.071 149.823L72.0709 149.827L72.4627 149.843ZM72.7866 148.654L72.8206 149.05L72.8278 149.049L72.8349 149.048L72.7866 148.654ZM73.363 149.463L72.983 149.367L72.9809 149.375L72.9789 149.384L73.363 149.463ZM72.7296 152.421L72.404 152.202L72.4026 152.203L72.7296 152.421ZM71.909 153.198L72.0963 153.546L72.1001 153.543L71.909 153.198ZM69.5631 152.639L69.2332 152.855L69.2347 152.858L69.5631 152.639ZM69.1006 151.068L68.7089 151.091L68.7089 151.092L69.1006 151.068ZM69.1195 149.964L68.729 149.926L68.7285 149.932L69.1195 149.964ZM69.4567 148.223L69.2421 147.892L69.2368 147.895L69.2317 147.899L69.4567 148.223ZM70.1677 148.635L69.7793 148.581C69.7592 148.725 69.7269 148.92 69.682 149.167L70.068 149.238L70.4538 149.308C70.4996 149.055 70.5339 148.848 70.5562 148.689L70.1677 148.635ZM70.068 149.238L69.6803 149.178L69.6015 149.688L69.9891 149.748L70.3766 149.808L70.4556 149.298L70.068 149.238ZM69.9891 149.748L69.6006 149.694C69.5289 150.209 69.5039 150.661 69.5326 151.045L69.9239 151.013L70.3151 150.983C70.292 150.675 70.3106 150.284 70.3775 149.802L69.9891 149.748ZM69.9239 151.013L69.5326 151.045C69.5733 151.567 69.6881 152.021 69.9024 152.379L70.2379 152.171L70.5735 151.965C70.445 151.751 70.3501 151.432 70.3149 150.981L69.9239 151.013ZM70.2379 152.171L69.9077 152.387C70.1263 152.73 70.444 152.946 70.8433 153.001L70.898 152.608L70.9526 152.215C70.7925 152.193 70.6702 152.117 70.5681 151.956L70.2379 152.171ZM70.898 152.608L70.8433 153.001C71.1442 153.043 71.434 152.989 71.6991 152.839L71.508 152.492L71.317 152.146C71.2037 152.211 71.0868 152.233 70.9526 152.215L70.898 152.608ZM71.508 152.492L71.7055 152.835C71.9478 152.691 72.1477 152.499 72.302 152.261L71.9744 152.044L71.6466 151.827C71.559 151.962 71.4481 152.069 71.3106 152.151L71.508 152.492ZM71.9744 152.044L72.3002 152.264C72.5426 151.897 72.6912 151.445 72.7633 150.928L72.3749 150.874L71.9864 150.82C71.9258 151.256 71.8073 151.584 71.6484 151.824L71.9744 152.044ZM72.3749 150.874L72.7633 150.928C72.8057 150.624 72.8358 150.267 72.8546 149.861L72.4627 149.843L72.0709 149.827C72.0528 150.217 72.0243 150.547 71.9864 150.82L72.3749 150.874ZM72.4627 149.843L72.8541 149.869C72.8842 149.427 72.9138 149.106 72.9425 148.9L72.554 148.846L72.1655 148.792C72.1328 149.027 72.1017 149.371 72.0713 149.817L72.4627 149.843ZM72.554 148.846L72.9425 148.9C72.941 148.911 72.9367 148.929 72.9244 148.954C72.9115 148.979 72.8932 149.001 72.8717 149.019C72.8297 149.054 72.7994 149.051 72.8206 149.05L72.7866 148.654L72.7525 148.259C72.6347 148.269 72.4961 148.305 72.3767 148.404C72.2494 148.509 72.185 148.651 72.1655 148.792L72.554 148.846ZM72.7866 148.654L72.8349 149.048C72.9391 149.035 73.0468 149.035 73.1591 149.051L73.2138 148.657L73.2686 148.264C73.0908 148.239 72.9138 148.238 72.7384 148.26L72.7866 148.654ZM73.2138 148.657L73.1591 149.051C73.1 149.043 73.0647 149.018 73.055 149.01C73.0457 149.004 73.0498 149.004 73.0649 149.024L73.3783 148.785L73.6917 148.544C73.6187 148.446 73.4815 148.294 73.2686 148.264L73.2138 148.657ZM73.3783 148.785L73.0649 149.024C73.0713 149.033 73.0679 149.031 73.0639 149.018C73.0595 149.003 73.0575 148.984 73.0602 148.964L73.4487 149.019L73.8372 149.073C73.8659 148.868 73.7971 148.686 73.6917 148.544L73.3783 148.785ZM73.4487 149.019L73.0602 148.964C73.0401 149.109 73.0143 149.243 72.983 149.367L73.363 149.463L73.7431 149.561C73.7823 149.406 73.8135 149.243 73.8372 149.073L73.4487 149.019ZM73.363 149.463L72.9789 149.384C72.9469 149.539 72.9238 149.66 72.913 149.738L73.3015 149.792L73.6899 149.846C73.6968 149.798 73.7147 149.7 73.7469 149.543L73.363 149.463ZM73.3015 149.792L72.913 149.738C72.8837 149.949 72.8546 150.237 72.8256 150.599L73.2165 150.629L73.6076 150.66C73.6363 150.304 73.6639 150.033 73.6899 149.846L73.3015 149.792ZM73.2165 150.629L72.8256 150.599C72.8186 150.686 72.8091 150.791 72.7968 150.916L73.1874 150.955L73.5777 150.992C73.5902 150.864 73.6002 150.753 73.6076 150.66L73.2165 150.629ZM73.1874 150.955L72.7968 150.916C72.7852 151.036 72.7685 151.175 72.7464 151.334L73.1348 151.388L73.5233 151.442C73.5466 151.276 73.5648 151.125 73.5777 150.992L73.1874 150.955ZM73.1348 151.388L72.7464 151.334C72.706 151.624 72.5953 151.913 72.404 152.202L72.7296 152.421L73.0553 152.642C73.3051 152.265 73.4646 151.864 73.5233 151.442L73.1348 151.388ZM72.7296 152.421L72.4026 152.203C72.2219 152.48 71.9944 152.694 71.7177 152.851L71.909 153.198L72.1001 153.543C72.4884 153.322 72.8081 153.02 73.0567 152.64L72.7296 152.421ZM71.909 153.198L71.7216 152.85C71.4645 152.992 71.1946 153.042 70.8987 153.001L70.844 153.394L70.7893 153.787C71.2498 153.852 71.6898 153.771 72.0963 153.546L71.909 153.198ZM70.844 153.394L70.8987 153.001C70.4096 152.933 70.0926 152.732 69.8916 152.421L69.5631 152.639L69.2347 152.858C69.5812 153.393 70.1182 153.694 70.7893 153.787L70.844 153.394ZM69.5631 152.639L69.893 152.423C69.6636 152.064 69.5245 151.609 69.4923 151.043L69.1006 151.068L68.7089 151.092C68.7472 151.765 68.9163 152.358 69.2332 152.855L69.5631 152.639ZM69.1006 151.068L69.4923 151.044C69.4742 150.709 69.48 150.359 69.5104 149.996L69.1195 149.964L68.7285 149.932C68.6953 150.329 68.6886 150.716 68.7089 151.091L69.1006 151.068ZM69.1195 149.964L69.51 150.002C69.5462 149.63 69.6079 149.129 69.6959 148.497L69.3074 148.443L68.9188 148.388C68.8303 149.026 68.7668 149.538 68.729 149.926L69.1195 149.964ZM69.3074 148.443L69.6959 148.497C69.6944 148.507 69.6917 148.517 69.688 148.527C69.6841 148.536 69.6799 148.544 69.6764 148.549C69.6696 148.559 69.6678 148.557 69.6818 148.548L69.4567 148.223L69.2317 147.899C69.0813 148.006 68.9498 148.167 68.9188 148.388L69.3074 148.443ZM69.4567 148.223L69.6714 148.555C69.6874 148.544 69.6949 148.542 69.6937 148.542C69.6932 148.542 69.6915 148.543 69.6889 148.543C69.6861 148.543 69.6836 148.543 69.6814 148.543L69.7362 148.15L69.791 147.757C69.587 147.728 69.3996 147.787 69.2421 147.892L69.4567 148.223ZM69.7362 148.15L69.6814 148.543C69.7371 148.551 69.771 148.562 69.7891 148.57C69.8064 148.577 69.8048 148.581 69.7969 148.571C69.7877 148.561 69.7826 148.549 69.7812 148.543C69.7802 148.539 69.7836 148.55 69.7793 148.581L70.1677 148.635L70.5562 148.689C70.5867 148.47 70.5512 148.23 70.3808 148.038C70.2218 147.86 69.9991 147.785 69.791 147.757L69.7362 148.15ZM78.7668 149.51L78.4255 149.707L78.4339 149.721L78.4435 149.736L78.7668 149.51ZM78.666 150.177L78.8878 150.504L78.9598 150.453L79.004 150.378L78.666 150.177ZM77.0066 151.686L76.7303 151.405L76.5402 151.596L76.6466 151.845L77.0066 151.686ZM77.5494 152.852L77.2044 153.042L77.2065 153.046L77.5494 152.852ZM77.9865 153.409L77.7518 153.728L77.7542 153.73L77.9865 153.409ZM78.2143 153.537L78.3797 153.177L78.3755 153.175L78.3711 153.173L78.2143 153.537ZM78.2777 154.164L78.4025 154.54L78.4081 154.537L78.4137 154.536L78.2777 154.164ZM77.0938 153.678L76.7646 153.895L76.7668 153.898L77.0938 153.678ZM76.4042 152.315L76.7634 152.155L76.5334 151.626L76.1279 152.035L76.4042 152.315ZM75.4407 153.263L75.7059 153.556L75.7085 153.553L75.4407 153.263ZM74.7594 153.834L74.9706 154.168L74.9784 154.163L74.9858 154.158L74.7594 153.834ZM74.593 153.892L74.6271 154.287L74.6411 154.286L74.655 154.283L74.593 153.892ZM74.1433 153.709L73.8097 153.919L73.8131 153.924L73.8165 153.929L74.1433 153.709ZM74.0594 153.4L73.671 153.346L73.6695 153.357L73.6685 153.367L74.0594 153.4ZM74.4737 152.985L74.2821 152.639L74.2627 152.65L74.2447 152.664L74.4737 152.985ZM75.0531 152.521L74.7902 152.226L74.7867 152.23L75.0531 152.521ZM76.0599 151.546L76.3349 151.829L76.5297 151.634L76.4176 151.382L76.0599 151.546ZM75.3223 150.072L75.0253 150.333L75.0301 150.339L75.0349 150.344L75.3223 150.072ZM74.9214 149.937L74.9626 150.332L74.9731 150.331L74.9835 150.329L74.9214 149.937ZM74.6118 149.886L74.8196 149.548L74.8183 149.548L74.6118 149.886ZM74.5033 149.47L74.8135 149.712L74.8256 149.696L74.8361 149.679L74.5033 149.47ZM74.7959 149.246L74.9488 149.611L74.9528 149.609L74.7959 149.246ZM76.2509 149.945L75.9006 150.125L75.9022 150.128L75.904 150.132L76.2509 149.945ZM76.6789 150.911L76.3158 151.062L76.5417 151.619L76.9589 151.188L76.6789 150.911ZM77.9636 149.646L78.2173 149.949L78.2202 149.946L78.223 149.943L77.9636 149.646ZM78.5479 149.375L78.4931 149.768C78.5034 149.769 78.4939 149.77 78.4757 149.759C78.4552 149.746 78.4371 149.727 78.4255 149.707L78.7668 149.51L79.108 149.313C78.9924 149.107 78.7973 149.009 78.6026 148.982L78.5479 149.375ZM78.7668 149.51L78.4435 149.736C78.4392 149.729 78.4359 149.723 78.4334 149.717C78.4309 149.71 78.4298 149.706 78.4293 149.703C78.4286 149.699 78.4306 149.706 78.4276 149.727L78.8161 149.781L79.2046 149.835C79.2295 149.656 79.2086 149.457 79.0901 149.284L78.7668 149.51ZM78.8161 149.781L78.4276 149.727C78.4201 149.781 78.3941 149.863 78.3279 149.977L78.666 150.177L79.004 150.378C79.1045 150.205 79.1786 150.023 79.2046 149.835L78.8161 149.781ZM78.666 150.177L78.4442 149.851C78.2198 150.007 77.9697 150.214 77.6952 150.468L77.9591 150.76L78.2231 151.053C78.4818 150.814 78.7029 150.632 78.8878 150.504L78.666 150.177ZM77.9591 150.76L77.6952 150.468C77.4231 150.719 77.1013 151.032 76.7303 151.405L77.0066 151.686L77.283 151.967C77.6489 151.598 77.9622 151.294 78.2231 151.053L77.9591 150.76ZM77.0066 151.686L76.6466 151.845C76.8673 152.359 77.0536 152.76 77.2044 153.042L77.5494 152.852L77.8944 152.662C77.7601 152.412 77.5845 152.035 77.3668 151.527L77.0066 151.686ZM77.5494 152.852L77.2065 153.046C77.3624 153.329 77.5407 153.57 77.7518 153.728L77.9865 153.409L78.2214 153.091C78.1363 153.027 78.0229 152.895 77.8924 152.658L77.5494 152.852ZM77.9865 153.409L77.7542 153.73C77.8452 153.797 77.9479 153.853 78.0577 153.902L78.2143 153.537L78.3711 153.173C78.3015 153.142 78.2525 153.114 78.219 153.089L77.9865 153.409ZM78.2143 153.537L78.0489 153.898C78.1529 153.947 78.1974 153.977 78.2084 153.987L78.4632 153.684L78.7179 153.381C78.6252 153.301 78.5037 153.234 78.3797 153.177L78.2143 153.537ZM78.4632 153.684L78.2084 153.987C78.1876 153.969 78.1631 153.938 78.1482 153.897C78.1338 153.856 78.135 153.822 78.1373 153.808L78.5257 153.861L78.9141 153.915C78.9414 153.719 78.8805 153.521 78.7179 153.381L78.4632 153.684ZM78.5257 153.861L78.1373 153.808C78.1363 153.813 78.1356 153.814 78.1372 153.81C78.139 153.805 78.1422 153.8 78.1468 153.793C78.1514 153.788 78.1553 153.785 78.1559 153.785C78.1563 153.784 78.1524 153.788 78.1417 153.792L78.2777 154.164L78.4137 154.536C78.538 154.488 78.6567 154.413 78.75 154.3C78.8438 154.185 78.8951 154.051 78.9141 153.915L78.5257 153.861ZM78.2777 154.164L78.1529 153.788C78.08 153.813 77.976 153.825 77.8287 153.804L77.7739 154.197L77.7192 154.59C77.9552 154.623 78.187 154.613 78.4025 154.54L78.2777 154.164ZM77.7739 154.197L77.8287 153.804C77.7355 153.792 77.5935 153.721 77.4208 153.458L77.0938 153.678L76.7668 153.898C77.0038 154.259 77.3153 154.535 77.7192 154.59L77.7739 154.197ZM77.0938 153.678L77.4232 153.462C77.2403 153.177 77.0204 152.745 76.7634 152.155L76.4042 152.315L76.0452 152.477C76.3084 153.081 76.548 153.557 76.7646 153.895L77.0938 153.678ZM76.4042 152.315L76.1279 152.035C75.7424 152.424 75.4244 152.736 75.1728 152.974L75.4407 153.263L75.7085 153.553C75.968 153.307 76.2923 152.987 76.6806 152.597L76.4042 152.315ZM75.4407 153.263L75.1755 152.972C74.9285 153.202 74.7146 153.381 74.533 153.511L74.7594 153.834L74.9858 154.158C75.2032 154.002 75.4435 153.8 75.7059 153.556L75.4407 153.263ZM74.7594 153.834L74.5481 153.5C74.5598 153.493 74.566 153.491 74.5626 153.493C74.5591 153.494 74.5493 153.497 74.531 153.5L74.593 153.892L74.655 154.283C74.7553 154.266 74.8685 154.234 74.9706 154.168L74.7594 153.834ZM74.593 153.892L74.559 153.496C74.5063 153.501 74.4804 153.499 74.4735 153.498L74.4188 153.891L74.3641 154.284C74.4506 154.297 74.5407 154.295 74.6271 154.287L74.593 153.892ZM74.4188 153.891L74.4735 153.498C74.4717 153.498 74.4722 153.498 74.4743 153.499C74.4764 153.5 74.4785 153.5 74.4802 153.501C74.4819 153.503 74.4817 153.503 74.4802 153.501C74.4786 153.5 74.4751 153.496 74.47 153.488L74.1433 153.709L73.8165 153.929C73.9418 154.12 74.1279 154.251 74.3641 154.284L74.4188 153.891ZM74.1433 153.709L74.4767 153.498C74.4611 153.473 74.4547 153.455 74.4522 153.446C74.4498 153.437 74.4503 153.434 74.4502 153.433L74.0594 153.4L73.6685 153.367C73.651 153.571 73.7112 153.759 73.8097 153.919L74.1433 153.709ZM74.0594 153.4L74.4479 153.454C74.4441 153.482 74.4379 153.504 74.4332 153.519C74.4283 153.534 74.4235 153.546 74.4197 153.554C74.4127 153.57 74.4063 153.581 74.4038 153.585C74.3988 153.594 74.3968 153.596 74.4019 153.589C74.4115 153.576 74.4307 153.552 74.4633 153.514L74.1668 153.255L73.8704 152.996C73.8334 153.039 73.8001 153.08 73.7739 153.116C73.7612 153.133 73.7454 153.155 73.7309 153.18C73.726 153.188 73.6837 153.255 73.671 153.346L74.0594 153.4ZM74.1668 153.255L74.4633 153.514C74.5046 153.465 74.5798 153.396 74.7027 153.307L74.4737 152.985L74.2447 152.664C74.0971 152.772 73.9677 152.882 73.8704 152.996L74.1668 153.255ZM74.4737 152.985L74.6651 153.331C74.8507 153.225 75.0719 153.044 75.3195 152.811L75.0531 152.521L74.7867 152.23C74.5485 152.454 74.3832 152.582 74.2821 152.639L74.4737 152.985ZM75.0531 152.521L75.316 152.815C75.5702 152.582 75.9104 152.252 76.3349 151.829L76.0599 151.546L75.7849 151.264C75.3632 151.684 75.0322 152.004 74.7902 152.226L75.0531 152.521ZM76.0599 151.546L76.4176 151.382L76.2426 150.989L75.8849 151.154L75.527 151.317L75.7021 151.71L76.0599 151.546ZM75.8849 151.154L76.2426 150.989C76.0894 150.646 75.9726 150.395 75.8944 150.237L75.5438 150.416L75.1932 150.595C75.2636 150.738 75.3745 150.976 75.5274 151.318L75.8849 151.154ZM75.5438 150.416L75.8944 150.237C75.8113 150.07 75.7181 149.92 75.6098 149.801L75.3223 150.072L75.0349 150.344C75.0734 150.386 75.1278 150.464 75.1932 150.595L75.5438 150.416ZM75.3223 150.072L75.6193 149.813C75.4964 149.669 75.3321 149.561 75.1281 149.533L75.0735 149.926L75.0188 150.319C75.0167 150.319 75.0142 150.319 75.0117 150.318C75.0092 150.317 75.0075 150.316 75.0071 150.315C75.0062 150.315 75.0128 150.319 75.0253 150.333L75.3223 150.072ZM75.0735 149.926L75.1281 149.533C75.0338 149.52 74.932 149.533 74.8594 149.545L74.9214 149.937L74.9835 150.329C75.0111 150.324 75.0289 150.322 75.0387 150.322C75.0433 150.321 75.0441 150.321 75.0419 150.321C75.0402 150.321 75.0318 150.321 75.0188 150.319L75.0735 149.926ZM74.9214 149.937L74.8804 149.543C74.858 149.545 74.8414 149.545 74.8301 149.546C74.8183 149.546 74.8147 149.546 74.8175 149.546L74.7628 149.939L74.7081 150.332C74.7936 150.344 74.8818 150.341 74.9626 150.332L74.9214 149.937ZM74.7628 149.939L74.8175 149.546C74.8126 149.545 74.8111 149.544 74.8122 149.545C74.8133 149.545 74.8161 149.547 74.8196 149.548L74.6118 149.886L74.404 150.223C74.4995 150.283 74.6031 150.318 74.7081 150.332L74.7628 149.939ZM74.6118 149.886L74.8183 149.548C74.7968 149.534 74.8089 149.536 74.8239 149.563C74.8315 149.577 74.8378 149.594 74.8409 149.612C74.844 149.63 74.8434 149.645 74.8421 149.653L74.4536 149.599L74.0651 149.545C74.0461 149.683 74.0677 149.824 74.1383 149.951C74.2061 150.074 74.3053 150.162 74.4053 150.224L74.6118 149.886ZM74.4536 149.599L74.8421 149.653C74.8422 149.654 74.842 149.654 74.842 149.655C74.8418 149.655 74.8416 149.656 74.8412 149.658C74.8405 149.66 74.8392 149.664 74.8371 149.671C74.8329 149.681 74.8255 149.696 74.8135 149.712L74.5033 149.47L74.1932 149.228C74.1166 149.328 74.0797 149.44 74.0651 149.545L74.4536 149.599ZM74.5033 149.47L74.8361 149.679C74.8319 149.686 74.8488 149.654 74.9488 149.611L74.7959 149.246L74.6429 148.881C74.4619 148.959 74.2839 149.077 74.1706 149.261L74.5033 149.47ZM74.7959 149.246L74.9528 149.609C75.0096 149.584 75.1165 149.563 75.3026 149.59L75.3573 149.196L75.412 148.803C75.1421 148.765 74.8749 148.778 74.6387 148.882L74.7959 149.246ZM75.3573 149.196L75.3026 149.59C75.4452 149.609 75.544 149.659 75.6184 149.729L75.886 149.438L76.1535 149.147C75.9477 148.953 75.6941 148.842 75.412 148.803L75.3573 149.196ZM75.886 149.438L75.6184 149.729C75.7186 149.823 75.8141 149.952 75.9006 150.125L76.2509 149.945L76.6013 149.766C76.4811 149.525 76.3334 149.316 76.1535 149.147L75.886 149.438ZM76.2509 149.945L75.904 150.132C76.0032 150.322 76.14 150.629 76.3158 151.062L76.6789 150.911L77.042 150.76C76.864 150.321 76.7154 149.984 76.5979 149.759L76.2509 149.945ZM76.6789 150.911L76.9589 151.188C77.5705 150.556 77.987 150.147 78.2173 149.949L77.9636 149.646L77.71 149.344C77.4485 149.57 77.0083 150.003 76.3989 150.634L76.6789 150.911ZM77.9636 149.646L78.223 149.943C78.289 149.884 78.3421 149.841 78.3834 149.812C78.4272 149.779 78.4458 149.772 78.4435 149.773L78.2983 149.405L78.153 149.037C78.0061 149.096 77.8506 149.219 77.7044 149.35L77.9636 149.646ZM78.2983 149.405L78.4435 149.773C78.455 149.768 78.469 149.765 78.4931 149.768L78.5479 149.375L78.6026 148.982C78.4508 148.961 78.2983 148.978 78.153 149.037L78.2983 149.405Z" fill="#2F2F2F"/>
</g>
</g>
<mask id="mask2_995_1648" style="mask-type:luminance" maskUnits="userSpaceOnUse" x="80" y="140" width="29" height="30">
<path d="M108.742 151.991L92.2612 140.937L80.7447 158.102L97.2253 169.155L108.742 151.991Z" fill="white"/>
</mask>
<g mask="url(#mask2_995_1648)">
<path d="M107.339 151.049L93.6637 141.877C92.8901 141.358 91.8491 141.552 91.34 142.31L81.6664 156.728C81.1576 157.486 81.3731 158.523 82.1477 159.042L95.8228 168.214C96.5975 168.734 97.6385 168.54 98.1466 167.782L107.821 153.363C108.33 152.605 108.114 151.569 107.339 151.049Z" fill="#2FE587"/>
<path d="M93.3631 151.829C93.2738 151.963 93.1511 152.136 92.9942 152.349L92.6879 152.79C92.3964 153.226 92.1845 153.612 92.0532 153.948C91.8708 154.423 91.7976 154.835 91.8344 155.184C91.8751 155.497 92.022 155.739 92.2741 155.908C92.4705 156.039 92.684 156.1 92.9156 156.089C93.1489 156.073 93.3673 156.007 93.5677 155.89C93.8979 155.7 94.2034 155.397 94.4832 154.98C94.6521 154.729 94.8351 154.42 95.0325 154.055C95.2624 153.652 95.4423 153.354 95.5714 153.162C95.6381 153.06 95.7426 153.038 95.8827 153.092C96.0256 153.141 96.1619 153.21 96.2928 153.297C96.3398 153.329 96.3734 153.394 96.3948 153.495C96.4152 153.595 96.4034 153.679 96.3574 153.748C96.2643 153.886 96.1701 154.011 96.0729 154.125C95.9721 154.257 95.9027 154.35 95.8656 154.404C95.7492 154.578 95.5956 154.828 95.4057 155.151C95.3577 155.232 95.2998 155.329 95.2302 155.442C95.1615 155.554 95.0799 155.683 94.9841 155.825C94.7756 156.136 94.4897 156.395 94.1263 156.602C93.771 156.809 93.3899 156.922 92.9838 156.942C92.5804 156.957 92.2079 156.849 91.8674 156.621C91.3437 156.27 91.0445 155.83 90.9711 155.304C90.9013 154.771 90.9884 154.207 91.2342 153.608C91.3763 153.265 91.5481 152.922 91.7507 152.58C91.9577 152.242 92.2472 151.796 92.6191 151.241C92.6678 151.168 92.7497 151.123 92.8619 151.106C92.9805 151.092 93.0809 151.113 93.1648 151.169C93.4595 151.367 93.5256 151.587 93.3631 151.829ZM95.6995 159.201C95.5587 159.106 95.4886 159 95.4879 158.879C95.4917 158.763 95.5441 158.629 95.6451 158.478L96.2511 157.59L96.3366 157.448C96.6051 156.997 96.8341 156.63 97.0246 156.346L97.6008 155.548L97.8846 155.141C97.9767 155.004 98.0514 154.902 98.1099 154.835C98.1683 154.767 98.2386 154.728 98.3206 154.718C98.4036 154.706 98.5008 154.738 98.6121 154.813C98.7528 154.907 98.8308 155.009 98.8448 155.119C98.8625 155.224 98.8182 155.356 98.7108 155.516L98.6066 155.656C98.3425 156.009 98.1468 156.279 98.0214 156.467C97.8833 156.673 97.7252 156.919 97.5472 157.205C97.3719 157.486 97.2486 157.685 97.1762 157.802C96.8717 158.308 96.6001 158.736 96.3636 159.089C96.2715 159.226 96.1751 159.305 96.0743 159.323C95.979 159.345 95.8533 159.304 95.6995 159.201Z" fill="#2F2F2F"/>
<mask id="mask3_995_1648" style="mask-type:luminance" maskUnits="userSpaceOnUse" x="88" y="150" width="13" height="11">
<path d="M100.038 155.113L92.6746 150.174L88.9891 155.666L96.3524 160.605L100.038 155.113Z" fill="white"/>
<path d="M93.3629 151.83C93.2735 151.963 93.1509 152.136 92.994 152.349L92.6877 152.791C92.3962 153.226 92.1843 153.612 92.0529 153.949C91.8706 154.424 91.7973 154.836 91.8341 155.185C91.8748 155.498 92.0218 155.74 92.2738 155.908C92.4702 156.04 92.6838 156.101 92.9154 156.09C93.1486 156.074 93.367 156.008 93.5675 155.89C93.8976 155.701 94.2031 155.397 94.483 154.98C94.6518 154.73 94.8349 154.421 95.0323 154.056C95.2622 153.653 95.4421 153.355 95.5712 153.163C95.6378 153.061 95.7423 153.038 95.8825 153.092C96.0253 153.142 96.1617 153.21 96.2926 153.298C96.3395 153.329 96.3732 153.395 96.3946 153.496C96.415 153.596 96.4031 153.68 96.3571 153.749C96.2641 153.886 96.1699 154.012 96.0727 154.126C95.9718 154.257 95.9024 154.351 95.8654 154.405C95.7489 154.579 95.5953 154.828 95.4054 155.152C95.3574 155.233 95.2996 155.33 95.2299 155.442C95.1612 155.555 95.0796 155.683 94.9839 155.825C94.7754 156.136 94.4895 156.396 94.1261 156.603C93.7708 156.809 93.3896 156.923 92.9836 156.942C92.5802 156.957 92.2076 156.85 91.8672 156.622C91.3434 156.271 91.0443 155.831 90.9709 155.304C90.901 154.772 90.9881 154.208 91.234 153.608C91.3761 153.266 91.5479 152.923 91.7505 152.581C91.9575 152.243 92.2469 151.796 92.6188 151.242C92.6675 151.169 92.7495 151.124 92.8616 151.106C92.9803 151.092 93.0806 151.114 93.1646 151.17C93.4592 151.368 93.5253 151.588 93.3629 151.83ZM95.6993 159.202C95.5585 159.107 95.4884 159.001 95.4876 158.88C95.4914 158.764 95.5438 158.63 95.6449 158.478L96.2508 157.59L96.3363 157.448C96.6049 156.998 96.8339 156.631 97.0244 156.347L97.6006 155.549L97.8844 155.142C97.9764 155.005 98.0512 154.902 98.1097 154.836C98.1681 154.768 98.2383 154.729 98.3204 154.718C98.4033 154.707 98.5005 154.739 98.6119 154.814C98.7526 154.907 98.8305 155.01 98.8446 155.119C98.8623 155.224 98.8179 155.356 98.7105 155.517L98.6064 155.656C98.3423 156.009 98.1465 156.28 98.0211 156.468C97.883 156.674 97.725 156.92 97.547 157.205C97.3717 157.487 97.2483 157.685 97.176 157.803C96.8714 158.309 96.5998 158.737 96.3633 159.089C96.2713 159.227 96.1749 159.305 96.0741 159.324C95.9787 159.346 95.8531 159.305 95.6993 159.202Z" fill="black"/>
</mask>
<g mask="url(#mask3_995_1648)">
<path d="M92.9939 152.349L92.6526 152.1L92.65 152.104L92.6463 152.109L92.9939 152.349ZM92.6877 152.79L92.34 152.551L92.3382 152.553L92.3364 152.556L92.6877 152.79ZM92.0529 153.948L91.6616 153.792L91.6607 153.794L92.0529 153.948ZM91.8331 155.185L91.4161 155.219L91.4167 155.225L91.4171 155.231L91.8331 155.185ZM92.9144 156.089L92.9428 156.505L92.9469 156.505L92.951 156.504L92.9144 156.089ZM93.5674 155.89L93.3522 155.528L93.3493 155.531L93.5674 155.89ZM95.0323 154.055L94.6658 153.845L94.6641 153.849L94.6614 153.853L95.0323 154.055ZM95.8814 153.092L95.7362 153.479L95.7436 153.481L95.7511 153.485L95.8814 153.092ZM96.0726 154.126L95.7498 153.854L95.7443 153.861L95.7377 153.868L96.0726 154.126ZM94.1261 156.603L93.9109 156.242L93.909 156.243L94.1261 156.603ZM92.9835 156.942L93.0069 157.358L93.012 157.357L92.9835 156.942ZM90.9708 155.304L90.5549 155.35L90.5551 155.353L90.9708 155.304ZM91.7504 152.58L91.3902 152.36L91.3875 152.364L91.7504 152.58ZM92.8616 151.106L92.8047 150.693L92.7976 150.693L92.7904 150.694L92.8616 151.106ZM93.3628 151.83L93.0116 151.595C92.9277 151.721 92.8086 151.888 92.6526 152.1L92.9939 152.349L93.3343 152.599C93.493 152.383 93.6193 152.205 93.7132 152.065L93.3628 151.83ZM92.9939 152.349L92.6463 152.109L92.34 152.551L92.6877 152.79L93.0344 153.032L93.3406 152.59L92.9939 152.349ZM92.6877 152.79L92.3364 152.556C92.0349 153.005 91.807 153.419 91.6616 153.792L92.0529 153.948L92.4452 154.104C92.5615 153.805 92.7564 153.446 93.038 153.026L92.6877 152.79ZM92.0529 153.948L91.6607 153.794C91.4641 154.303 91.3703 154.783 91.4161 155.219L91.8331 155.185L92.2511 155.15C92.2232 154.888 92.276 154.544 92.4452 154.104L92.0529 153.948ZM91.8331 155.185L91.4171 155.231C91.4732 155.657 91.6825 156.01 92.0437 156.252L92.2738 155.908L92.504 155.565C92.3589 155.468 92.2755 155.339 92.2492 155.14L91.8331 155.185ZM92.2738 155.908L92.0437 156.252C92.3144 156.434 92.6194 156.52 92.9428 156.505L92.9144 156.089L92.8869 155.674C92.7481 155.68 92.6251 155.646 92.504 155.565L92.2738 155.908ZM92.9144 156.089L92.951 156.504C93.2494 156.484 93.5297 156.399 93.7855 156.249L93.5674 155.89L93.3493 155.531C93.2033 155.616 93.0477 155.662 92.8787 155.674L92.9144 156.089ZM93.5674 155.89L93.7827 156.251C94.1819 156.022 94.529 155.668 94.8333 155.216L94.4819 154.98L94.1317 154.745C93.8762 155.126 93.6132 155.379 93.3522 155.528L93.5674 155.89ZM94.4819 154.98L94.8333 155.216C95.0111 154.95 95.2013 154.63 95.4031 154.257L95.0323 154.055L94.6614 153.853C94.4685 154.211 94.2915 154.508 94.1317 154.745L94.4819 154.98ZM95.0323 154.055L95.3987 154.265C95.6277 153.864 95.8004 153.577 95.9214 153.397L95.5701 153.162L95.2198 152.926C95.0827 153.131 94.8964 153.439 94.6658 153.845L95.0323 154.055ZM95.5701 153.162L95.9214 153.397C95.915 153.405 95.9022 153.422 95.8791 153.438C95.8561 153.456 95.8285 153.468 95.7993 153.474C95.7432 153.488 95.715 153.471 95.7362 153.479L95.8814 153.092L96.0277 152.705C95.9088 152.659 95.7583 152.627 95.5986 152.663C95.4289 152.7 95.3019 152.803 95.2198 152.926L95.5701 153.162ZM95.8814 153.092L95.7511 153.485C95.8569 153.521 95.961 153.573 96.0625 153.641L96.2926 153.297L96.5228 152.955C96.3623 152.846 96.1927 152.761 96.0128 152.699L95.8814 153.092ZM96.2926 153.297L96.0625 153.641C96.009 153.605 95.9859 153.565 95.9798 153.554C95.9746 153.542 95.9779 153.545 95.9834 153.571L96.3945 153.495L96.8047 153.419C96.7788 153.292 96.7148 153.084 96.5228 152.955L96.2926 153.297ZM96.3945 153.495L95.9834 153.571C95.9854 153.582 95.9831 153.579 95.9849 153.565C95.9875 153.549 95.994 153.53 96.0057 153.513L96.3561 153.748L96.7074 153.984C96.8274 153.804 96.8428 153.602 96.8047 153.419L96.3945 153.495ZM96.3561 153.748L96.0057 153.513C95.9209 153.639 95.8359 153.753 95.7498 153.854L96.0726 154.126L96.3955 154.398C96.5039 154.271 96.6071 154.132 96.7074 153.984L96.3561 153.748ZM96.0726 154.126L95.7377 153.868C95.6369 153.999 95.5601 154.101 95.515 154.169L95.8653 154.405L96.2157 154.64C96.2446 154.598 96.3057 154.514 96.4075 154.383L96.0726 154.126ZM95.8653 154.405L95.515 154.169C95.3914 154.353 95.2333 154.611 95.0416 154.936L95.4054 155.151L95.7682 155.366C95.9573 155.045 96.1055 154.804 96.2157 154.64L95.8653 154.405ZM95.4054 155.151L95.0416 154.936C94.9954 155.015 94.9384 155.11 94.8707 155.221L95.2299 155.442L95.5902 155.663C95.6597 155.548 95.7194 155.45 95.7682 155.366L95.4054 155.151ZM95.2299 155.442L94.8707 155.221C94.8046 155.329 94.7265 155.451 94.6335 155.589L94.9839 155.825L95.3341 156.059C95.4316 155.914 95.5169 155.782 95.5902 155.663L95.2299 155.442ZM94.9839 155.825L94.6335 155.589C94.4629 155.843 94.2255 156.062 93.9109 156.242L94.1261 156.603L94.3413 156.964C94.7524 156.729 95.0868 156.428 95.3341 156.059L94.9839 155.825ZM94.1261 156.603L93.909 156.243C93.6091 156.417 93.2927 156.51 92.955 156.526L92.9835 156.942L93.012 157.357C93.4865 157.335 93.9315 157.202 94.3432 156.963L94.1261 156.603ZM92.9835 156.942L92.9591 156.526C92.6476 156.538 92.3636 156.457 92.0973 156.277L91.8661 156.621L91.6359 156.964C92.0517 157.243 92.5126 157.376 93.0069 157.358L92.9835 156.942ZM91.8661 156.621L92.0973 156.277C91.6554 155.981 91.4401 155.641 91.3865 155.255L90.9708 155.304L90.5551 155.353C90.6485 156.02 91.0303 156.558 91.6359 156.964L91.8661 156.621ZM90.9708 155.304L91.3867 155.257C91.3277 154.81 91.3989 154.318 91.6228 153.771L91.234 153.608L90.845 153.443C90.5782 154.094 90.4733 154.733 90.5549 155.35L90.9708 155.304ZM91.234 153.608L91.6228 153.771C91.7564 153.448 91.9196 153.124 92.1133 152.797L91.7504 152.58L91.3875 152.364C91.1762 152.723 90.9946 153.081 90.845 153.443L91.234 153.608ZM91.7504 152.58L92.1106 152.801C92.3131 152.469 92.599 152.028 92.9691 151.477L92.6188 151.241L92.2674 151.006C91.8947 151.562 91.6017 152.014 91.3902 152.36L91.7504 152.58ZM92.6188 151.241L92.9691 151.477C92.9637 151.486 92.9563 151.494 92.9478 151.502C92.9402 151.508 92.9324 151.513 92.9266 151.517C92.9159 151.523 92.9146 151.52 92.9328 151.517L92.8616 151.106L92.7904 150.694C92.5974 150.724 92.3975 150.813 92.2674 151.006L92.6188 151.241ZM92.8616 151.106L92.9197 151.519C92.9399 151.517 92.9473 151.519 92.9462 151.518C92.9462 151.518 92.9442 151.518 92.9409 151.517C92.9388 151.516 92.9366 151.514 92.9345 151.513L93.1646 151.169L93.3948 150.827C93.2114 150.703 93.0034 150.67 92.8047 150.693L92.8616 151.106ZM93.1646 151.169L92.9345 151.513C92.9846 151.546 93.0127 151.574 93.0265 151.59C93.0391 151.605 93.0372 151.606 93.033 151.594C93.0287 151.58 93.0295 151.567 93.031 151.561C93.0316 151.556 93.0306 151.568 93.0116 151.595L93.3628 151.83L93.7132 152.065C93.8414 151.874 93.9147 151.632 93.8367 151.372C93.7644 151.128 93.5834 150.952 93.3948 150.827L93.1646 151.169ZM95.4866 158.879L95.0676 158.858L95.0673 158.866L95.068 158.874L95.4866 158.879ZM95.6448 158.478L95.2963 158.24L95.2946 158.243L95.6448 158.478ZM96.2508 157.59L96.5993 157.828L96.6066 157.818L96.6129 157.808L96.2508 157.59ZM96.3363 157.448L96.6973 157.666L96.6983 157.665L96.3363 157.448ZM97.0243 156.347L96.6812 156.1L96.6776 156.105L96.673 156.111L97.0243 156.347ZM97.6005 155.548L97.9426 155.795L97.9454 155.792L97.9473 155.789L97.6005 155.548ZM97.8833 155.142L98.23 155.382L98.2328 155.379L98.2346 155.376L97.8833 155.142ZM98.8445 155.119L98.4286 155.166L98.4293 155.173L98.431 155.18L98.8445 155.119ZM98.7095 155.516L99.0489 155.767L99.0554 155.76L99.0607 155.751L98.7095 155.516ZM98.6063 155.656L98.9448 155.908L98.9458 155.907L98.6063 155.656ZM97.1759 157.802L96.8167 157.582L96.8149 157.584L97.1759 157.802ZM96.0741 159.323L95.9888 158.915L95.9807 158.916L95.9727 158.917L96.0741 159.323ZM95.6992 159.201L95.9293 158.858C95.9109 158.846 95.9008 158.837 95.8941 158.831C95.8885 158.826 95.8883 158.824 95.8907 158.827C95.8931 158.831 95.8969 158.839 95.9011 158.851C95.9051 158.862 95.9062 158.874 95.9062 158.885L95.4866 158.879L95.068 158.874C95.0695 159.184 95.2607 159.405 95.468 159.544L95.6992 159.201ZM95.4866 158.879L95.9067 158.902C95.9069 158.893 95.9148 158.833 95.9952 158.713L95.6448 158.478L95.2946 158.243C95.1727 158.424 95.0748 158.633 95.0676 158.858L95.4866 158.879ZM95.6448 158.478L95.9933 158.716L96.5993 157.828L96.2508 157.59L95.9023 157.352L95.2963 158.24L95.6448 158.478ZM96.2508 157.59L96.6129 157.808L96.6973 157.666L96.3363 157.448L95.9743 157.231L95.8888 157.373L96.2508 157.59ZM96.3363 157.448L96.6983 157.665C96.9641 157.218 97.1896 156.857 97.3747 156.582L97.0243 156.347L96.673 156.111C96.4772 156.403 96.2446 156.777 95.9743 157.231L96.3363 157.448ZM97.0243 156.347L97.3664 156.593L97.9426 155.795L97.6005 155.548L97.2574 155.302L96.6812 156.1L97.0243 156.347ZM97.6005 155.548L97.9473 155.789L98.23 155.382L97.8833 155.142L97.5366 154.9L97.2538 155.307L97.6005 155.548ZM97.8833 155.142L98.2346 155.376C98.3239 155.243 98.388 155.158 98.4288 155.11L98.1097 154.835L97.7905 154.559C97.7143 154.646 97.6277 154.764 97.533 154.906L97.8833 155.142ZM98.1097 154.835L98.4288 155.11C98.4306 155.108 98.427 155.114 98.4172 155.119C98.4065 155.125 98.3945 155.128 98.3864 155.13L98.3203 154.718L98.2553 154.306C98.0649 154.331 97.9074 154.424 97.7905 154.559L98.1097 154.835ZM98.3203 154.718L98.3864 155.13C98.351 155.134 98.3289 155.128 98.3299 155.128C98.3299 155.128 98.3352 155.129 98.3437 155.134C98.3534 155.139 98.3654 155.146 98.3817 155.157L98.6118 154.813L98.842 154.471C98.6936 154.37 98.488 154.273 98.2553 154.306L98.3203 154.718ZM98.6118 154.813L98.3817 155.157C98.4243 155.186 98.4393 155.204 98.4426 155.207C98.4438 155.208 98.4404 155.205 98.4376 155.197C98.4338 155.189 98.4308 155.178 98.4286 155.166L98.8445 155.119L99.2604 155.072C99.2227 154.791 99.0318 154.597 98.842 154.471L98.6118 154.813ZM98.8445 155.119L98.431 155.18C98.4249 155.147 98.434 155.135 98.4259 155.158C98.4187 155.18 98.3998 155.221 98.3591 155.281L98.7095 155.516L99.0607 155.751C99.1825 155.569 99.3038 155.324 99.2581 155.058L98.8445 155.119ZM98.7095 155.516L98.3711 155.265L98.2669 155.405L98.6063 155.656L98.9458 155.907L99.0489 155.767L98.7095 155.516ZM98.6063 155.656L98.2678 155.404C98.0019 155.759 97.8016 156.036 97.6698 156.233L98.0211 156.467L98.3714 156.703C98.4915 156.524 98.6816 156.26 98.9448 155.908L98.6063 155.656ZM98.0211 156.467L97.6698 156.233C97.5291 156.443 97.3684 156.693 97.1885 156.981L97.547 157.205L97.9044 157.428C98.0807 157.146 98.2359 156.904 98.3714 156.703L98.0211 156.467ZM97.547 157.205L97.1885 156.981C97.0131 157.261 96.8889 157.462 96.8167 157.582L97.1759 157.802L97.5352 158.023C97.6066 157.907 97.7291 157.71 97.9044 157.428L97.547 157.205ZM97.1759 157.802L96.8149 157.584C96.512 158.086 96.245 158.508 96.0131 158.854L96.3633 159.089L96.7136 159.324C96.9557 158.965 97.2298 158.531 97.5371 158.021L97.1759 157.802ZM96.3633 159.089L96.0131 158.854C95.9824 158.9 95.9606 158.919 95.953 158.926C95.9463 158.932 95.9585 158.92 95.9888 158.915L96.0741 159.323L96.1594 159.732C96.4204 159.684 96.5972 159.498 96.7136 159.324L96.3633 159.089ZM96.0741 159.323L95.9727 158.917C96.0189 158.907 96.0445 158.918 96.0318 158.914C96.0191 158.91 95.985 158.896 95.9293 158.858L95.6992 159.201L95.468 159.544C95.6436 159.661 95.9004 159.792 96.1754 159.729L96.0741 159.323Z" fill="#2F2F2F"/>
</g>
</g>
</g>
<path d="M69.9495 135.789L72.7619 135.285L72.2988 102.231C72.193 99.3555 73.0965 98.7589 74.7484 98.1471C76.5201 97.491 78.2223 97.3093 79.5028 97.2481C81.9822 73.8741 107.536 74.4811 112.449 74.0083C116.378 73.63 116.98 71.4503 116.79 70.4077L114.174 56.8372C112.991 53.1825 115.288 51.8472 116.585 51.6363C124.115 50.5708 124.637 51.4008 125.391 51.1217C128.451 52.0992 127.327 54.0845 126.382 54.955L122.835 57.6685L125.349 70.0925C127.074 77.2081 121.924 81.8079 119.481 82.443C117.528 82.9511 107.289 84.3195 102.415 84.94C94.7746 86.1751 93.0465 93.2377 93.1368 96.6147C96.525 96.3939 97.2972 98.7362 97.2584 99.9349L97.8913 109.448C98.0913 116.697 93.9095 119.035 91.7937 119.299C88.5982 119.441 81.9933 119.729 81.1419 119.743C80.2896 119.757 80.1467 120.237 80.1817 120.476C80.0871 124.029 80.0077 132.15 80.4411 136.211C80.9825 141.288 78.4059 141.704 77.117 142.128C76.0858 142.466 72.4733 141.783 70.796 141.399C68.3861 140.675 68.1323 141.147 67.1314 138.878C66.3308 137.064 68.6767 136.063 69.9495 135.789Z" fill="#76E4AB"/>
<path d="M79.851 111.685C82.0507 111.579 83.7307 109.485 83.6032 107.007C83.4767 104.529 81.5898 102.607 79.3891 102.713C77.1893 102.818 75.5091 104.913 75.6365 107.39C75.7639 109.868 77.6506 111.791 79.851 111.685Z" fill="#F5F5F5"/>
<path d="M89.1342 110.724C91.3339 110.619 93.014 108.524 92.8864 106.047C92.7599 103.569 90.8731 101.646 88.6723 101.752C86.4726 101.858 84.7925 103.952 84.9201 106.43C85.0476 108.908 86.9335 110.83 89.1342 110.724Z" fill="#F5F5F5"/>
<path d="M79.5565 111.409C80.6064 111.358 81.4104 110.405 81.3523 109.28C81.2942 108.155 80.3964 107.284 79.3465 107.334C78.2977 107.385 77.4934 108.338 77.5513 109.463C77.6091 110.588 78.5067 111.459 79.5565 111.409Z" fill="#202020"/>
<path d="M88.8392 110.448C89.889 110.398 90.693 109.445 90.635 108.32C90.5769 107.195 89.679 106.323 88.6302 106.374C87.5803 106.424 86.7763 107.377 86.8344 108.503C86.8914 109.628 87.7893 110.499 88.8392 110.448Z" fill="#202020"/>
<path d="M87.4757 113.375L83.1539 113.381C82.6826 113.382 82.3015 113.767 82.3045 114.24C82.3066 114.714 82.6908 115.098 83.1631 115.097L87.4839 115.091C87.9562 115.09 88.3363 114.705 88.3343 114.232C88.3313 113.758 87.947 113.374 87.4757 113.375Z" fill="#202020"/>
<path d="M149.608 117.435C149.195 123.541 145.18 125.997 143.224 126.463C143.129 124.863 142.67 120.337 141.601 115.037C140.534 109.737 142.163 106.202 143.112 105.096C148.266 100.153 149.202 102.411 149.829 103.637C150.33 104.618 148.866 107.454 148.072 108.749C149.47 111.003 149.68 115.479 149.608 117.435Z" fill="url(#paint0_linear_995_1648)"/>
<path d="M123.498 142.513C129.891 136.909 130.418 130.665 129.881 128.244C125.799 132.121 122.287 131.472 121.041 130.663C120.159 134.143 119.441 135.067 117.314 137.46C115.188 139.853 110.305 141.21 107.415 141.758C105.103 142.196 102.639 143.914 101.696 144.717C99.3099 146.876 100.871 148.953 101.949 149.722C102.595 150.029 102.811 148.909 102.751 148.515C104.404 149.591 105.308 149.827 105.308 149.827C105.308 149.827 106.216 150.064 108.342 149.329C114.77 149.183 121.096 144.484 123.498 142.513Z" fill="url(#paint1_linear_995_1648)"/>
<path d="M144.449 119.582C145.675 124.294 143.881 128.184 142.831 129.539C147.135 129.305 147.212 128.655 150.033 126.488C152.854 124.32 153.718 123.771 157.299 124.286C160.878 124.8 163.796 127.33 162.525 128.822C161.507 130.016 158.366 130.165 156.924 130.09C154.778 132.794 152.329 134.699 151.371 135.314C145.242 139.397 138.367 138.306 135.696 137.25C128.732 140.826 119.221 138.419 115.336 136.769C106.276 131.779 104.293 123.644 105.984 117.508C107.675 111.371 115.405 107.292 120.577 110.318C124.715 112.739 129.186 112.867 130.906 112.628C138.072 111.806 142.917 113.692 144.449 119.582Z" fill="#7ED7D7"/>
<path d="M118.955 123.734C117.262 124.927 114.848 124.416 113.561 122.592C112.275 120.768 112.604 118.322 114.297 117.129C115.989 115.935 118.404 116.447 119.69 118.271C120.977 120.095 120.647 122.541 118.955 123.734Z" fill="white"/>
<path d="M112.507 128.279C110.903 129.411 108.559 128.849 107.273 127.025C105.987 125.201 106.245 122.805 107.849 121.674C109.454 120.543 111.797 121.105 113.084 122.929C114.37 124.753 114.112 127.148 112.507 128.279Z" fill="white"/>
<path d="M116.616 123.119C115.89 123.63 114.775 123.296 114.124 122.373C113.473 121.45 113.533 120.288 114.259 119.776C114.984 119.265 116.1 119.599 116.75 120.522C117.401 121.445 117.341 122.607 116.616 123.119Z" fill="#0D1C20"/>
<path d="M110.247 127.608C109.565 128.088 108.485 127.729 107.834 126.806C107.184 125.883 107.208 124.746 107.89 124.266C108.571 123.785 109.651 124.144 110.302 125.067C110.953 125.99 110.928 127.128 110.247 127.608Z" fill="#0D1C20"/>
<path d="M114.785 128.13C114.337 128.314 114.124 128.826 114.309 129.274C114.493 129.722 115.09 130.055 115.537 129.871C116.645 129.415 117.232 128.945 117.919 128.516C118.329 128.258 118.368 127.597 118.112 127.187C117.854 126.777 117.313 126.653 116.903 126.91C116.074 127.429 115.709 127.749 114.785 128.13Z" fill="#112728"/>
<defs>
<filter id="filter0_d_995_1648" x="52.4908" y="129.084" width="66.6058" height="50.4214" filterUnits="userSpaceOnUse" color-interpolation-filters="sRGB">
<feFlood flood-opacity="0" result="BackgroundImageFix"/>
<feColorMatrix in="SourceAlpha" type="matrix" values="0 0 0 0 0 0 0 0 0 0 0 0 0 0 0 0 0 0 127 0" result="hardAlpha"/>
<feOffset/>
<feGaussianBlur stdDeviation="5.5"/>
<feComposite in2="hardAlpha" operator="out"/>
<feColorMatrix type="matrix" values="0 0 0 0 0 0 0 0 0 0 0 0 0 0 0 0 0 0 0.99 0"/>
<feBlend mode="normal" in2="BackgroundImageFix" result="effect1_dropShadow_995_1648"/>
<feBlend mode="normal" in="SourceGraphic" in2="effect1_dropShadow_995_1648" result="shape"/>
</filter>
<linearGradient id="paint0_linear_995_1648" x1="145.989" y1="113.285" x2="138.459" y2="126.265" gradientUnits="userSpaceOnUse">
<stop stop-color="#7ED7D7"/>
<stop offset="1" stop-color="#4598C2"/>
</linearGradient>
<linearGradient id="paint1_linear_995_1648" x1="102.361" y1="150.688" x2="131.312" y2="130.272" gradientUnits="userSpaceOnUse">
<stop stop-color="#7FD7D7"/>
<stop offset="1" stop-color="#4598C2"/>
</linearGradient>
</defs>
</svg>
