<svg width="350" height="350" viewBox="0 0 350 350" fill="none" xmlns="http://www.w3.org/2000/svg">
<g clip-path="url(#clip0_3029_717)">
<path d="M202.506 156.232L196.619 154.807L153.738 154.43C152.419 154.694 151.084 154.976 149.756 155.18C141.6 155.902 134.208 158.762 128.749 165.153C126.712 167.538 125.673 170.189 124.138 172.927C119.69 180.862 113.795 182.856 105.088 183.846C100.969 184.312 97.5071 184.134 93.4954 184.35C85.4994 184.782 77.1442 187.134 71.965 193.628C71.3805 194.361 70.4337 195.573 70.0133 196.407C66.0555 202.648 64.0247 210.487 65.6012 217.798C67.0193 224.374 72.5498 228.845 78.8091 230.504C82.115 231.381 85.6514 231.967 88.7918 233.329C90.4905 234.093 92.2453 235.828 92.6233 237.747C93.6 242.71 90.1566 247.037 89.2078 251.703C86.2346 264.25 94.7587 276.63 104.826 283.259C110.765 287.171 116.803 288.425 123.488 290.408C127.33 291.547 129.511 292.125 133.18 294.026C139.14 297.114 141.08 301.803 145.488 306.446C147.439 308.501 150.08 310.69 152.582 312.18C162.863 318.303 176.822 320 188.474 317.639C192.326 316.859 196.72 314.891 199.61 312.24C201.744 310.283 203.87 307.176 206.722 306.318C210.785 305.096 215.782 306.71 220.088 307.098C229.77 307.967 240.977 305.416 246.74 296.927C248.529 294.292 249.264 290.255 249.155 287.12C249.186 284.664 249.281 282.406 248.91 279.967C249.363 279.012 250.134 277.958 251.071 277.399C257.508 273.554 264.155 279.333 270.521 280.367C274.865 281.128 280.106 280.574 283.77 277.79C292.746 270.971 288.931 260.447 283.587 253.128C280.629 248.548 274.937 245.482 271.055 241.749C270.515 241.23 269.331 240.271 269.309 239.577C269.321 238.666 269.153 237.658 270.24 237.362C271.657 236.992 273.139 237.055 274.598 236.944C280.648 236.484 287.501 234.09 288.608 227.261C289.42 222.255 287.556 217.466 284.637 213.414C284.399 212.868 282.254 210.453 281.708 209.889C275.89 203.89 268.815 201.906 260.735 201.621C256.914 193.059 252.969 180.828 246.277 174.509C235.849 164.663 216.809 156.163 202.506 156.232Z" fill="#B175B4"/>
<path d="M70.0133 196.406C70.2806 197.36 69.2909 200.573 69.139 201.803C68.2059 209.364 71.3853 217.559 78.2662 221.387C88.1641 226.895 96.1235 223.383 100.106 237.179C101.157 240.818 101.411 244.625 102.137 248.332C103.957 257.617 109.192 265.309 117.483 269.929C126.661 275.042 136.961 275.143 145.441 280.131C157.955 287.494 156.338 301.943 174.546 305.206C178.822 305.971 183.795 305.932 187.985 304.707C190.133 304.078 192.386 303.045 193.507 300.993C195.66 297.045 191.073 291.417 198.919 288.871C211.48 284.797 224.764 301.646 240.847 295.369C243.428 294.36 246.101 292.445 247.388 289.914C247.87 288.965 248.217 287.97 248.791 287.072C248.912 287.089 249.034 287.104 249.155 287.119C249.264 290.255 248.529 294.292 246.74 296.927C240.977 305.416 229.77 307.967 220.088 307.097C215.782 306.709 210.785 305.096 206.722 306.318C203.87 307.176 201.744 310.283 199.61 312.24C196.72 314.89 192.326 316.859 188.474 317.638C176.822 320 162.863 318.303 152.582 312.18C150.08 310.69 147.439 308.5 145.488 306.446C141.08 301.803 139.14 297.114 133.18 294.025C129.511 292.125 127.33 291.547 123.488 290.407C116.803 288.425 110.765 287.171 104.826 283.259C94.7587 276.63 86.2346 264.25 89.2078 251.702C90.1566 247.037 93.6 242.71 92.6233 237.747C92.2453 235.828 90.4905 234.093 88.7918 233.329C85.6514 231.967 82.115 231.381 78.8091 230.504C72.5498 228.845 67.0193 224.374 65.6012 217.798C64.0247 210.487 66.0555 202.648 70.0133 196.406Z" fill="#865A9C"/>
<path d="M283.587 253.128C288.931 260.447 292.745 270.971 283.77 277.79C280.105 280.574 274.864 281.128 270.52 280.367C264.154 279.333 257.508 273.553 251.07 277.399C250.133 277.958 249.363 279.012 248.91 279.967C248.809 279.834 248.604 279.564 248.546 279.41C247.295 276.105 244.391 269.413 245.456 266.031C245.953 264.457 247.079 263.159 248.57 262.445C253.997 259.866 261.76 265.583 267.133 267.522C275.351 270.489 285.771 268.457 284.291 257.407C284.156 256.397 283.276 254.003 283.587 253.128Z" fill="#865A9C"/>
<path d="M284.636 213.414C287.555 217.466 289.42 222.255 288.608 227.261C287.501 234.09 280.648 236.484 274.598 236.944C273.138 237.055 271.657 236.991 270.24 237.362C269.153 237.658 269.32 238.666 269.308 239.577C267.434 238.61 266.314 234.478 266.9 232.545C268.929 225.864 277.5 229.94 281.957 226.756C285.532 224.203 285.364 219.148 284.617 215.304C284.508 214.737 284.402 213.936 284.636 213.414Z" fill="#865A9C"/>
<path d="M214.515 190.087C215.023 188.22 215.734 186.684 217.564 185.84C225.026 182.4 235.122 188.772 238.615 195.349C240.427 198.756 240.193 200.655 238.028 203.442C237.831 211.844 229.906 213.431 223.552 210.318C217.227 207.219 209.964 198.642 213.437 191.225C213.705 190.651 213.938 190.287 214.515 190.087Z" fill="#CB8EC9"/>
<path d="M238.027 203.442C237.831 211.844 229.906 213.431 223.552 210.318C217.227 207.219 209.964 198.642 213.437 191.225C213.705 190.651 213.938 190.287 214.515 190.087C214.324 198.218 225.277 205.018 232.601 205.259C234.914 205.334 236.235 204.717 238.027 203.442Z" fill="#865A9C"/>
<path d="M223.002 188.044C230.381 188.038 240.392 197.953 231.637 199.638C228.829 199.563 226.974 198.813 224.555 197.456C220.958 195.437 216.009 189.562 223.002 188.044Z" fill="#865A9C"/>
<path d="M142.727 193.867C142.797 193.13 142.862 192.096 143.13 191.418C146.908 181.844 169.89 183.772 170.433 194.168C170.559 194.337 170.676 194.482 170.752 194.684C172.533 199.419 170.61 204.302 165.841 206.351C158.276 209.602 146.759 208.173 142.818 200.079C142.022 198.444 142.06 195.578 142.727 193.867Z" fill="#CB8EC9"/>
<path d="M142.727 193.867C143.515 196.174 143.946 196.885 145.687 198.608C151.226 204.092 169.826 204.264 170.433 194.168C170.559 194.337 170.676 194.482 170.752 194.684C172.533 199.419 170.61 204.302 165.841 206.351C158.276 209.602 146.759 208.173 142.818 200.079C142.022 198.444 142.06 195.578 142.727 193.867Z" fill="#865A9C"/>
<path d="M154.935 188.593C162.559 187.113 170.807 196.459 158.293 198.401C155.668 198.548 153.138 198.247 150.84 196.82C148.915 195.672 147.533 193.079 149.129 191.083C150.534 189.326 152.825 188.817 154.935 188.593Z" fill="#865A9C"/>
<path d="M141.774 253.534C147.258 253.073 152.4 255.795 153.988 261.262C152.948 264.417 151.948 264.945 148.812 265.622C148.65 265.653 148.488 265.682 148.325 265.706C145.286 266.176 142.271 265.287 139.783 263.445C137.429 261.767 135.008 258.198 137.226 255.488C138.339 254.126 140.11 253.673 141.774 253.534Z" fill="#865A9C"/>
<path d="M132.223 203.297C140.518 203.617 143.983 211.066 135.065 212.621C131.762 212.678 126.924 211.117 126.533 207.325C126.445 206.525 126.696 205.727 127.226 205.122C128.453 203.704 130.479 203.408 132.223 203.297Z" fill="#865A9C"/>
<path d="M230.654 248.394C235.659 248.245 242.924 254.956 235.986 257.159C234.439 257.156 233.422 257 232.009 256.305C228.962 254.806 224.916 249.455 230.654 248.394Z" fill="#865A9C"/>
<path d="M242.107 237.301C245.299 238.328 249.525 240.632 247.239 244.586C246.328 248.373 236.665 244.248 238.909 239.936C238.328 238.078 240.854 237.667 242.107 237.301Z" fill="#865A9C"/>
<path d="M242.106 237.301C245.299 238.328 249.525 240.632 247.238 244.586C246.186 242.047 244.668 240.387 241.896 239.536C240.674 239.158 239.979 239.316 238.909 239.936C238.328 238.078 240.854 237.667 242.106 237.301Z" fill="#CB8EC9"/>
<path d="M240.495 214.787L240.705 214.459C242.986 214.043 249.062 215.901 247.633 219.394C247.09 225.89 233.011 217.099 240.495 214.787Z" fill="#865A9C"/>
<path d="M240.495 214.787L240.705 214.459C242.987 214.043 249.062 215.901 247.634 219.394C246.403 216.547 243.435 215.154 240.495 214.787Z" fill="#CB8EC9"/>
<path d="M135.511 138.542C140.339 141.1 144.453 145.101 149.461 147.837C167.453 157.667 190.223 158.42 208.807 149.787C211.151 148.696 213.549 146.805 215.933 145.892C213.903 155.044 211.351 164.073 208.293 172.933C207.24 176.049 206.075 179.901 204.561 182.762C203.267 185.152 201.601 187.318 199.62 189.175C192.772 194.371 186.496 195.691 178.314 197.909C171.896 197.909 166.029 199.178 166.029 199.178C160.896 199.178 161.797 209.458 161.797 209.458C161.797 209.458 161.773 213.171 161.797 215.415C166.513 215.948 171.822 218.613 170.967 223.647C169.684 231.216 153.311 228.627 148.302 227.747C146.079 227.356 143.056 226.038 141.934 224.204C140.583 221.962 141.132 214.26 141.444 211.562C142.108 208.68 142.171 202.861 142.913 199.178C136.376 188.702 136.208 176.808 136.601 164.737C135.483 167.04 134.53 169.264 134.013 171.778C132.742 177.957 132.295 187.758 124.008 188.55C122.012 188.752 120.019 188.135 118.482 186.841C116.392 185.095 115.371 182.464 115.209 179.857C114.444 167.618 122.484 157.049 131.115 149.304C132.757 147.831 134.405 145.832 135.841 144.148C135.522 142.061 135.532 140.669 135.511 138.542Z" fill="#FD8D2F"/>
<path d="M198.936 189.508C202.405 197.574 203.923 203.174 203.62 212.106L212.192 214.173C215.97 216.061 225.287 217.937 225.2 223.624C225.182 224.821 223.61 226.897 222.627 227.491C210.59 234.763 190.824 236.657 176.938 236.947C168.382 237.152 159.823 236.762 151.322 235.783C142.806 234.786 125.73 232.488 119.423 225.616C118.829 224.888 118.501 223.866 118.685 222.953C120.096 215.953 131.447 215.849 135.381 212.648C137.315 212.353 139.259 211.943 141.18 211.56C140.869 214.217 140.325 221.804 141.666 224.011C142.78 225.818 145.781 227.117 147.989 227.501C152.961 228.368 169.216 230.919 170.49 223.463C171.339 218.504 166.067 215.879 161.386 215.355C161.362 213.144 161.359 211.427 161.743 209.248C169.002 209.178 176.077 209.015 183.323 209.57C182.38 205.344 180.576 201.446 177.784 198.111C185.906 195.926 192.138 194.626 198.936 189.508Z" fill="#865A9C"/>
<path d="M199.306 189.508C202.848 197.442 204.398 202.952 204.088 211.738C204.121 212.459 204.128 212.557 204.304 213.256C204.807 213.587 208.064 214.395 208.893 214.569C214.579 215.764 215.464 223.958 209.719 225.588C203.603 227.247 194.88 226.704 188.878 224.788C182.132 222.635 185.798 214.912 183.364 209.243C182.401 205.085 180.559 201.251 177.708 197.971C186.002 195.822 192.364 194.543 199.306 189.508Z" fill="#F06E2F"/>
<path d="M115.413 102.275C115.125 101.796 114.673 99.4508 114.585 98.8063C113.568 91.3555 113.857 83.2229 115.606 75.9322C119.168 61.1193 128.544 48.3896 141.593 40.6463C166.936 25.2641 199.515 31.0114 219.399 52.6299C221.038 54.4127 222.894 56.1786 224.137 58.2666C225.751 57.5324 227.29 57.13 229.017 56.7464C229.777 39.0427 254.737 42.1623 252.904 58.3197C251.646 69.418 237.367 72.5433 230.947 62.7585C230.001 63.0434 228.24 63.5177 227.363 63.8424C228.82 66.086 230.06 68.9051 231.159 71.3679C236.243 82.7566 237.897 95.4142 235.322 107.705C233.376 116.97 229.047 125.558 222.764 132.609C221.735 133.754 217.605 137.546 217.03 138.429C216.507 140.887 215.978 143.669 215.346 146.077C212.977 146.986 210.593 148.869 208.263 149.955C189.795 158.553 167.166 157.803 149.285 148.013C144.308 145.289 140.22 141.305 135.421 138.757L135.188 135.375L134.999 135.238C128.259 130.252 122.013 120.455 118.647 112.791C117.236 109.578 116.236 105.71 115.413 102.275Z" fill="#FD8D2F"/>
<path d="M115.412 102.722C115.124 102.24 114.672 99.8796 114.584 99.2311C113.569 91.7329 113.857 83.5486 115.604 76.2116C119.164 61.3045 128.531 48.4939 141.57 40.7015C166.891 25.2215 199.441 31.0052 219.308 52.7612C220.945 54.5553 222.8 56.3325 224.042 58.4337L221.762 59.174C210.255 63.1664 200.068 72.992 194.715 83.9649C194.563 84.2806 194.411 84.5984 194.267 84.9178C186.155 80.9859 168.82 79.83 160.103 82.4986C158.781 70.9896 162.817 65.6714 172.725 60.8161C175.821 66.8891 183.228 68.7606 189.062 65.7077C191.705 64.3145 193.682 61.9049 194.555 59.02C197.963 47.9994 186.541 39.3141 176.901 44.9543C173.13 47.1617 171.45 50.8962 171.114 55.1448C158.214 60.3256 151.693 70.9516 152.123 84.9867C134.582 94.9368 135.036 110.186 135.151 128.117C126.805 120.169 121.835 109.374 119.386 98.1819C119.194 100.383 118.416 102.742 115.902 103.176C115.81 102.924 115.727 102.707 115.578 102.485L115.412 102.722Z" fill="#E4F1F3"/>
<path d="M115.412 102.183C115.124 101.704 114.672 99.3621 114.584 98.7185C113.569 91.2775 113.857 83.1556 115.604 75.8744C119.164 61.081 128.531 48.368 141.57 40.6349C166.891 25.273 199.441 31.0126 219.308 52.6027C220.945 54.3832 222.8 56.1468 224.042 58.232L221.762 58.9667C210.686 45.8091 196.728 37.6922 179.45 36.2848C163.842 34.9165 148.348 39.9558 136.494 50.255C124.209 60.9166 117.436 77.057 118.915 93.1765C119.042 94.5586 119.344 96.3593 119.386 97.6773C119.194 99.8621 118.416 102.202 115.902 102.633C115.81 102.384 115.727 102.168 115.578 101.947L115.412 102.183Z" fill="#B9E0E7"/>
<path d="M227.585 64.4084C229.049 66.6382 230.294 69.44 231.398 71.8877C236.504 83.2064 238.165 95.7861 235.578 108.001C233.624 117.209 229.276 125.744 222.967 132.753C221.934 133.891 217.786 137.659 217.208 138.536C216.683 140.979 216.152 143.744 215.517 146.137C213.138 147.04 210.744 148.912 208.405 149.992C189.857 158.537 167.132 157.792 149.175 148.062C144.176 145.354 140.071 141.395 135.251 138.862L135.018 135.501L134.828 135.365C128.059 130.41 121.787 120.673 118.407 113.056C116.989 109.863 115.985 106.019 115.158 102.605L115.325 102.371C115.476 102.59 115.558 102.805 115.651 103.053C118.178 102.624 118.96 100.295 119.153 98.1212C121.614 109.174 126.61 119.835 134.999 127.684C137.758 129.957 140.527 132.492 143.368 134.447C164.207 148.788 193.032 149.925 213.313 133.965C213.938 133.473 215.444 132.136 216.04 131.779C219.862 129.918 226.024 120.921 227.993 117.056C229.396 114.294 230.537 111.406 231.398 108.432C235.778 93.256 233.357 78.6594 225.779 64.9854L227.585 64.4084Z" fill="#64BBD3"/>
<path d="M134.85 135.067C154.692 153.625 186.138 157.611 209.489 143.538C212.212 141.896 214.513 139.828 217.091 138.167C216.566 140.662 216.035 143.485 215.399 145.929C213.018 146.852 210.623 148.763 208.282 149.866C189.723 158.593 166.983 157.831 149.015 147.895C144.014 145.129 139.906 141.086 135.083 138.499L134.85 135.067Z" fill="#F06E2F"/>
<path d="M225.657 64.4084C233.097 78.1621 235.474 92.8438 231.173 108.109C230.328 111.1 229.208 114.004 227.831 116.783C225.898 120.67 219.848 129.719 216.095 131.592C216.657 130.993 218.102 129.47 218.465 128.835C221.243 123.96 222.122 113.376 221.034 108.075C219.214 99.1941 211.367 93.5532 204.35 88.9334C208.164 76.376 214.037 69.6935 225.657 64.4084Z" fill="#B9E0E7"/>
<path d="M168.875 96.9616C177.165 95.9157 184.723 101.822 185.71 110.121C186.699 118.42 180.737 125.935 172.432 126.864C164.208 127.783 156.785 121.895 155.807 113.679C154.83 105.463 160.665 97.9972 168.875 96.9616Z" fill="#FEFEFE"/>
<path d="M173.191 103.946C177.931 103.045 182.495 106.179 183.358 110.926C184.221 115.672 181.052 120.212 176.297 121.037C171.599 121.853 167.12 118.726 166.267 114.033C165.413 109.34 168.505 104.837 173.191 103.946Z" fill="#474747"/>
<path d="M203.514 96.9759C211.75 95.8754 219.322 101.655 220.43 109.89C221.541 118.124 215.768 125.701 207.536 126.819C199.289 127.939 191.697 122.157 190.587 113.91C189.476 105.663 195.267 98.078 203.514 96.9759Z" fill="#FEFEFE"/>
<path d="M208.778 103.828C213.519 103.398 217.721 106.862 218.204 111.597C218.69 116.332 215.273 120.574 210.544 121.111C207.436 121.464 204.38 120.12 202.538 117.591C200.698 115.063 200.359 111.74 201.65 108.892C202.942 106.044 205.665 104.11 208.778 103.828Z" fill="#474747"/>
<path d="M184.254 48.1943C187.743 48.2988 190.507 51.4487 190.449 55.2572C190.391 59.0658 187.532 62.1137 184.042 62.0915C181.749 62.0771 179.64 60.7202 178.52 58.5381C177.401 56.3562 177.44 53.6858 178.627 51.5456C179.813 49.4053 181.962 48.1256 184.254 48.1943Z" fill="#F06E2F"/>
<path d="M240.603 50.6643C244.032 49.8941 247.439 52.0505 248.21 55.4816C248.981 58.9125 246.829 62.3197 243.396 63.0927C239.964 63.8665 236.555 61.7099 235.781 58.2767C235.01 54.8435 237.168 51.4348 240.603 50.6643Z" fill="#FC9C42"/>
<path d="M177.708 136.225C180.708 136.701 183.369 138.077 186.889 137.926C189.415 137.818 191.295 137.649 193.848 137.149C194.664 136.989 194.65 137.211 195.083 137.809C191.621 141.237 181.219 139.579 177.708 136.225Z" fill="#F06E2F"/>
</g>
<defs>
<clipPath id="clip0_3029_717">
<rect width="350" height="350" fill="white"/>
</clipPath>
</defs>
</svg>
