<svg width="1024" height="1024" viewBox="0 0 1024 1024" fill="none" xmlns="http://www.w3.org/2000/svg">
<path d="M439.532 134.305C470.71 89.9562 539.745 95.7512 585.775 109.522C595.51 112.435 605.14 116.693 614.655 119.459C642.795 105.193 677.04 120.929 673.75 155.039C698.735 179.094 710.13 191.937 715.48 228.183C716.395 235.077 716.615 239.27 716.65 246.189C736.795 261.763 795.045 303.442 772.595 336.868C766.8 345.496 751.45 349.558 741.395 351.273C741.83 354.036 742.25 354.981 743.265 357.538C761.59 360.432 773.11 365.673 786.78 377.939C790.83 371.558 792.66 369.851 799.625 367.149C799.63 367.144 803.08 363.38 803.24 363.203C808.54 357.284 811.155 356.502 818.295 353.651C823.62 352.407 831.025 351.922 836.415 352.88C849.89 357.011 857.02 361.258 863.84 374.348C873.95 393.746 874.595 423.639 860.79 441.599C853.695 450.825 853 457.641 848.045 467.544C844.47 473.131 837.83 483.61 832.605 487.393L832.51 487.792L831.83 488.444C827.01 493.109 821.015 501.025 813.8 502.365L813.475 502.94L812.94 525.12C800.865 527.85 786.055 533.17 774.025 527.97C772.32 527.235 769.43 524.945 767.845 523.76C766.285 542.845 762.74 573.825 753.555 590.98C754.64 593.455 754.56 593.59 753.48 596.37C751.93 600.36 746.73 611.305 743.155 613.36C739.97 618.565 731.4 632.175 727.23 636.455C711.67 653.255 701.85 664.165 681.5 676.59C676.615 679.575 665.34 685.26 661.635 687.895C643.135 696.245 621.71 702.84 601.51 705.37C601.45 705.38 601.39 705.385 601.33 705.39C561.36 711.46 519.92 708.725 480.743 698.965C468.548 695.925 456.746 690.655 445.058 687.71L444.454 687.565C440.345 686.975 435.1 684.035 431.217 682.35C414.797 675.215 401.413 666.695 386.442 657.05C381.889 653.525 377.368 649.96 372.88 646.35C338.883 618.755 311.93 576.8 305.14 533.195C303.687 523.86 303.403 514.43 302.429 505.07C301.679 481.94 303.759 463.44 306.57 440.737C308.056 436.4 309.468 426.749 310.426 421.76C312.327 412.159 314.436 402.601 316.753 393.092C318.146 387.531 319.679 382.225 321.31 376.64C331.53 341.633 340.581 304.277 358.867 272.491C361.222 268.399 363.311 264.529 365.433 260.402C361.771 258.668 353.092 251.132 350.11 248.161C336.728 234.833 323.874 217.207 323.496 197.623C323.355 185.552 328.061 173.929 336.562 165.358C360.09 141.305 403.776 139.448 435.43 138.904L439.532 134.305Z" fill="#FCEED6"/>
<path d="M439.532 134.305C470.71 89.9562 539.745 95.7512 585.775 109.522C595.51 112.435 605.14 116.693 614.655 119.459C642.795 105.193 677.04 120.929 673.75 155.039C698.735 179.094 710.13 191.937 715.48 228.183C716.395 235.077 716.615 239.27 716.65 246.189C736.795 261.763 795.045 303.442 772.595 336.868C766.8 345.496 751.45 349.558 741.395 351.273C740.695 347.914 736.045 335.929 734.55 332.732C712.14 284.748 670.585 250.35 626.035 223.68C602.85 209.801 583.135 199.37 557.555 189.906C518.935 175.617 481.355 171.727 442.732 189.236C414.868 201.868 391.691 222.082 374.119 246.926C372.278 249.53 366.404 257.791 365.433 260.402C361.771 258.668 353.092 251.132 350.11 248.161C336.728 234.833 323.874 217.207 323.496 197.623C323.355 185.552 328.061 173.929 336.562 165.358C360.09 141.305 403.776 139.448 435.43 138.904L439.532 134.305Z" fill="#F88529"/>
<path d="M439.531 134.305C470.709 89.9562 539.745 95.7512 585.775 109.522C595.51 112.435 605.14 116.693 614.655 119.459C642.795 105.193 677.04 120.929 673.75 155.039C698.735 179.094 710.13 191.937 715.48 228.183C711.06 224.036 707.135 219.433 702.345 215.351C689.05 204.022 673.12 193.552 657.855 185.221C601.165 154.286 504.135 115.974 439.531 134.305Z" fill="#FD9B30"/>
<path d="M655.66 168.902C662.825 169.54 665.485 175.344 659.59 180.494C651.995 181.281 648.59 173.38 655.66 168.902Z" fill="#A55B38"/>
<path d="M684.615 187.974C691.77 187.635 694.395 193.744 689.07 198.959C682.87 199.884 680.095 192.9 684.615 187.974Z" fill="#A55B38"/>
<path d="M439.532 134.306C504.135 115.974 601.165 154.287 657.855 185.221C673.12 193.553 689.05 204.022 702.345 215.352C707.135 219.434 711.06 224.037 715.48 228.184C716.395 235.078 716.615 239.27 716.65 246.189C639.77 192.889 529.9 143.311 435.43 138.905L439.532 134.306Z" fill="#FEE071"/>
<path d="M818.295 353.652C823.62 352.408 831.025 351.923 836.415 352.881C849.89 357.012 857.02 361.258 863.84 374.348C873.95 393.747 874.595 423.64 860.79 441.6C853.695 450.825 853 457.642 848.045 467.545C844.47 473.131 837.83 483.61 832.605 487.394L832.51 487.792L831.83 488.445C827.01 493.109 821.015 501.026 813.8 502.366L813.475 502.941L812.94 525.121C800.865 527.851 786.055 533.171 774.025 527.971C772.32 527.236 769.43 524.946 767.845 523.761C766.285 542.846 762.74 573.826 753.555 590.981C754.64 593.456 754.56 593.591 753.48 596.371C751.93 600.361 746.73 611.306 743.155 613.361C735.17 611.351 722.175 604.951 715.7 599.706C714.055 597.861 711.835 591.286 710.57 588.786C708.2 584.101 704.89 577.021 701.8 572.866C688.79 596.446 650.85 601.276 626.775 599.996C624.89 598.376 622.32 596.866 619.925 594.801C616.795 591.561 611.14 582.976 610.38 578.466C609.705 574.451 610.47 573.086 612.65 569.961C619.235 578.111 634.465 576.966 643.995 576.051L646.14 575.831C664.065 571.141 677.42 567.866 686.055 550.001C681.88 541.541 677.95 535.056 674.575 526.071C669.58 512.766 667.585 499.754 664.305 486.11C663.165 478.824 663.1 473.56 657.025 468.636C656.18 467.948 656.03 467.915 655.3 467.094C658.83 442.836 665.66 424.207 683.18 406.008C695.29 393.426 720.43 380.448 737.985 380.429C741.12 379.932 745.425 380.037 748.695 380.014C746.93 372.504 744.845 365.094 743.265 357.539C761.59 360.432 773.11 365.674 786.78 377.939C790.83 371.558 792.66 369.852 799.625 367.15C799.63 367.145 803.08 363.38 803.24 363.203C808.54 357.284 811.155 356.502 818.295 353.652Z" fill="#EA7A33"/>
<path d="M818.295 353.652C823.62 352.408 831.025 351.923 836.415 352.881C849.89 357.012 857.02 361.258 863.84 374.348C873.95 393.747 874.595 423.64 860.79 441.6C853.695 450.825 853 457.642 848.045 467.545C844.47 473.131 837.83 483.61 832.605 487.394L832.51 487.792L831.83 488.445C827.01 493.109 821.015 501.026 813.8 502.366L813.475 502.941L812.94 525.121C800.865 527.851 786.055 533.171 774.025 527.971C772.32 527.236 769.43 524.946 767.845 523.761L767.89 519.486C764.055 520.106 729.915 520.806 727.92 519.796C712.015 511.736 710.475 481.059 717.15 466.443C717.885 463.594 724.66 453.873 727.325 453.968C740.25 454.425 749.66 457.403 762.615 452.117C767.115 451.501 774.77 446.376 778.045 443.088C787.26 433.84 792.44 420.106 792.555 407.182L789.01 403.077L787.62 401.713C787.61 401.621 787.6 401.529 787.585 401.438C784.295 393.491 784.665 386.226 786.78 377.939C790.83 371.558 792.66 369.852 799.625 367.15C799.63 367.145 803.08 363.38 803.24 363.203C808.54 357.284 811.155 356.502 818.295 353.652Z" fill="#FFC852"/>
<path d="M815.46 443.988C823.295 446.145 825.37 446.014 833.445 445.974C833.67 457.657 833.28 475.795 832.605 487.394L832.51 487.792L831.83 488.445C827.01 493.109 821.015 501.026 813.8 502.366C814.46 482.91 815.01 463.45 815.46 443.988Z" fill="#A55B38"/>
<path d="M813.475 502.941L812.94 525.121C800.865 527.851 786.055 533.171 774.025 527.971C772.32 527.236 769.43 524.946 767.845 523.761L767.89 519.486C769.335 518.366 782.08 515.946 785.22 514.946C794.975 511.791 804.43 507.776 813.475 502.941Z" fill="#EA7A33"/>
<path d="M786.78 377.938C790.83 371.557 792.66 369.85 799.625 367.148L800.435 368.84C798.61 377.193 801.025 381.358 806.56 387.194C801.525 392.062 799.53 396.613 799.67 403.724C794.82 404.459 793.57 405.008 789.01 403.076L787.62 401.711C787.61 401.619 787.6 401.528 787.585 401.436C784.295 393.49 784.665 386.225 786.78 377.938Z" fill="#FEE071"/>
<path d="M800.435 368.84C802.95 371.742 798.435 377.128 808.085 385.933C816.06 381.853 822.075 380.328 831.105 381.305C833.23 381.534 836.215 381.417 837.95 382.8L837.745 383.429C828.155 383.751 813.935 381.302 806.18 389.804C799.34 397.308 800.545 408.453 808.615 414.846C813.965 412.831 833.755 408.924 837.36 413.112L837.06 413.72C829.89 415.534 819.075 411.946 808.395 417.288L807.52 416.661C802.62 412.774 800.72 410.038 799.67 403.723C799.53 396.612 801.525 392.062 806.56 387.193C801.025 381.357 798.61 377.192 800.435 368.84Z" fill="#FD9B30"/>
<path d="M807.52 416.664L808.395 417.291C802.62 423.573 803.03 431.575 808.345 438.071C809.1 438.995 811.165 440.588 811.375 441.518C803.375 440.003 799.175 423.107 807.52 416.664Z" fill="#FD9B30"/>
<path d="M753.555 590.979C743.79 586.319 734.87 581.594 726.49 574.324C685.45 538.719 666.09 465.956 704.145 421.513C716.41 407.189 733.26 400.096 751.77 398.953C754.1 408.046 755.575 415.536 757.455 424.64C758.305 432.25 761.085 444.443 762.615 452.115C749.66 457.401 740.25 454.423 727.325 453.966C724.66 453.871 717.885 463.592 717.15 466.441C710.475 481.057 712.015 511.734 727.92 519.794C729.915 520.804 764.055 520.104 767.89 519.484L767.845 523.759C766.285 542.844 762.74 573.824 753.555 590.979Z" fill="#FCEED6"/>
<path d="M743.265 357.539C761.59 360.433 773.11 365.674 786.78 377.94C784.665 386.227 784.295 393.492 787.585 401.438C787.6 401.53 787.61 401.621 787.62 401.713C787.715 403.786 788.095 403.098 787.075 404.228L784.555 404.742C783.69 402.225 778.38 394.549 776.17 392.406C763.77 380.384 753.115 380.972 737.985 380.43C741.12 379.932 745.425 380.038 748.695 380.015C746.93 372.504 744.845 365.094 743.265 357.539Z" fill="#FD9B30"/>
<path d="M619.925 594.8C623.185 594.425 631.585 595.13 635.705 595.135C650.94 595.215 665.98 591.705 679.61 584.89C691.84 578.75 696.805 574.18 701.08 561.18C702.245 566.225 703 567.825 701.8 572.865C688.79 596.445 650.85 601.275 626.775 599.995C624.89 598.375 622.32 596.865 619.925 594.8Z" fill="#EB6B1B"/>
<path d="M751.77 398.953C761.92 399.848 770.14 401.244 777.81 408.392L777.65 409.687C769.875 413.305 762.359 416.15 758.419 424.198L757.455 424.64C755.575 415.536 754.1 408.046 751.77 398.953Z" fill="#CD5531"/>
<path d="M777.81 408.393C780.385 406.985 783.615 404.465 786.03 406.8C783.22 407.71 780.425 408.672 777.65 409.688L777.81 408.393Z" fill="#EB6B1B"/>
<path d="M664.305 486.109C667.585 499.754 669.58 512.765 674.575 526.07C677.95 535.055 681.88 541.54 686.055 550C677.42 567.865 664.065 571.14 646.14 575.83L643.995 576.05C634.465 576.965 619.235 578.11 612.65 569.96C613.1 567 583.47 526.81 579.535 521.755C580.605 521.555 592.495 523.14 594.905 523.305C611.05 524.41 627.395 518.4 640.755 509.675C643.55 507.85 646.71 505.985 649.145 503.685C653 499.167 656.13 494.647 660.705 490.703C660.52 490.862 664.22 486.232 664.305 486.109Z" fill="#FEE071"/>
<path d="M621.86 535.227C627.6 539.792 636.35 561.642 641.765 568.382C642.94 569.842 645.3 574.157 646.14 575.832L643.995 576.052C637.66 568.317 626.48 544.722 621.86 535.227Z" fill="#FCCE5E"/>
<path d="M579.535 521.754C562.115 506.274 591.335 481.756 605.13 477.039C609.52 475.539 621.17 470.264 625.48 470.326C636.36 470.484 644.955 463.317 655.3 467.092C656.03 467.913 656.18 467.946 657.025 468.634C663.1 473.558 663.165 478.822 664.305 486.108C664.22 486.231 660.52 490.861 660.705 490.701C656.13 494.645 653 499.166 649.145 503.684C646.71 505.984 643.55 507.849 640.755 509.674C627.395 518.399 611.05 524.409 594.905 523.304C592.495 523.139 580.605 521.554 579.535 521.754Z" fill="#FDE394"/>
<path d="M616.365 516.329C613.925 512.374 612.31 507.084 609.26 503.769C601.155 494.967 584.885 507.419 580.19 507.234L579.56 506.344C582.22 493.763 602.9 480.752 614.28 477.091C617.685 475.997 629.315 472.043 632.38 473.581C631.99 474.578 631.625 475.585 631.285 476.601C629.885 480.825 633.82 486.867 635.845 490.932C638.76 494.918 638.16 495.476 643.25 495.253C644.49 494.025 646.085 492.206 647.605 491.516C646.625 493.592 645.035 494.84 643.365 496.463C642.78 498.868 642.285 500.119 643.085 502.469L642.31 503.324C633.74 509.704 626.68 513.419 616.365 516.329Z" fill="#FDBF45"/>
<path d="M643.25 495.255C644.49 494.027 646.085 492.208 647.605 491.518C646.625 493.594 645.035 494.842 643.365 496.465C642.78 498.869 642.285 500.121 643.085 502.471L642.31 503.326C640.59 500.566 636.855 493.888 635.845 490.934C638.76 494.92 638.16 495.478 643.25 495.255Z" fill="#FCCE5E"/>
<path d="M596.315 505.652C607.77 505.362 603.57 513.777 612.22 517.077C607.58 519.147 604.23 519.162 599.24 519.497C594.265 519.532 586.665 519.347 583.01 515.762C581.1 510.292 592.26 507.042 596.315 505.652Z" fill="#FCCE5E"/>
<path d="M650.44 470.574C659.045 475.198 658.15 483.604 653.64 490.981C650.885 495.448 647.3 499.348 643.085 502.469C642.285 500.119 642.78 498.867 643.365 496.463C645.035 494.84 646.625 493.592 647.605 491.516C649.3 488.955 649.925 486.27 650.515 483.338C651.27 481.464 651.91 477.956 651.87 475.887C651.825 473.322 651.16 473.288 649.42 471.643L650.44 470.574Z" fill="#FDBF45"/>
<path d="M638.625 484.26C638.32 483.883 638.02 483.502 637.725 483.118C630.955 474.236 641.68 468.318 650.44 470.577L649.42 471.646C651.16 473.291 651.825 473.324 651.87 475.889C651.91 477.959 651.27 481.466 650.515 483.34C650.505 480.645 650.88 477.014 649.025 475.062L647.92 475.093C644.07 477.999 644.08 480.686 638.625 484.26Z" fill="#FCCE5E"/>
<path d="M701.8 572.863C704.89 577.018 708.2 584.098 710.57 588.783C711.835 591.283 714.055 597.858 715.7 599.703C715.13 600.533 715.635 604.588 715.37 606.303C711.795 629.578 665.25 644.913 648.23 630.843C643.99 627.338 630.9 606.338 626.775 599.993C650.85 601.273 688.79 596.443 701.8 572.863Z" fill="#FD9B30"/>
<path d="M478.342 231.715C545.43 226.81 618.32 279.506 626.67 347.761C630.435 378.527 622.015 410.215 603.145 434.921C580.135 465.054 547.415 479.913 510.615 484.918C507.82 485.237 505.01 485.485 502.2 485.661C434.727 490.234 368.173 450.928 362.119 378.39C358.318 332.858 372.849 289.407 408.702 259.863C429.864 242.425 450.604 233.305 478.342 231.715Z" fill="#FDBF45"/>
<path d="M535.605 304.24C560.89 299.8 584.99 316.683 589.45 341.962C593.91 367.241 577.045 391.354 551.77 395.836C526.47 400.323 502.32 383.436 497.854 358.128C493.388 332.82 510.295 308.686 535.605 304.24Z" fill="#FCEED6"/>
<path d="M545.345 328.071C555.085 326.624 564.85 330.524 570.91 338.282C576.975 346.04 578.4 356.458 574.645 365.559C570.885 374.66 562.525 381.039 552.755 382.261C537.89 384.12 524.295 373.673 522.265 358.83C520.235 343.986 530.525 330.272 545.345 328.071Z" fill="#393338"/>
<path d="M431.071 303.685C456.606 300.668 479.739 318.956 482.696 344.498C485.653 370.04 467.311 393.13 441.762 396.028C416.298 398.915 393.301 380.647 390.354 355.19C387.406 329.732 405.62 306.693 431.071 303.685Z" fill="#FCEED6"/>
<path d="M438.034 328.153C452.876 326.09 466.593 336.416 468.714 351.25C470.836 366.084 460.564 379.841 445.738 382.021C430.83 384.213 416.979 373.871 414.846 358.954C412.712 344.037 423.109 330.228 438.034 328.153Z" fill="#393338"/>
<path d="M456.091 406.972C460.453 406.839 465.679 410.595 469.928 412.691C480.072 417.652 491.936 417.668 502.095 412.733C505.855 410.884 513.37 405.381 516.91 408.087C520.88 411.121 516.95 414.954 514.585 417.215C507.47 422.592 498.971 425.834 490.082 426.563C478.433 427.589 465.155 424.196 455.968 416.83C451.784 413.477 451.668 410.146 456.091 406.972Z" fill="#393338"/>
<path d="M372.361 781.999C382.65 793.019 413.333 800.544 426.12 789.089C428.106 787.309 429.493 784.629 429.771 781.949C438.482 792.744 440.137 820.654 433.745 833.254C442.866 835.574 450.826 838.319 458.653 843.639C466.708 849.109 470.053 857.704 476.722 864.419C488.385 876.169 509.07 884.249 513.92 901.214C511.49 906.644 507.76 909.199 502.065 911.084C488.052 915.724 470.659 918.049 456.027 919.954C401.556 927.044 344.868 928.704 290.363 921.199C278.497 919.564 263.484 916.724 252.47 912.184C258.121 906.429 265.393 899.874 271.203 894.034C273.536 891.689 279.014 890.864 280.296 889.024L279.868 887.684C275.462 883.239 262.533 880.394 256.466 879.384C256.997 878.684 259.819 875.179 259.994 874.729C262.986 866.999 265.689 861.914 270.516 855.244C285.986 833.879 305.619 823.149 331.693 819.584C331.434 815.999 329.409 812.204 329.401 808.549C329.347 784.734 355.14 782.709 372.361 781.999Z" fill="#EA7A33"/>
<path d="M372.361 781.999C382.651 793.019 413.333 800.544 426.12 789.089C428.107 787.309 429.494 784.629 429.771 781.949C438.483 792.744 440.138 820.654 433.745 833.254C433.16 835.139 431.208 839.424 429.567 840.479C418.56 847.559 402.32 845.039 389.508 845.284C374.764 845.564 330.723 840.084 331.694 819.584C331.434 815.999 329.41 812.204 329.401 808.549C329.348 784.734 355.14 782.709 372.361 781.999Z" fill="#EB6B1B"/>
<path d="M179.242 294.763C185.74 287.402 197.29 283.985 206.657 287.321C209.25 288.245 211.667 290.271 214.057 289.51C222.053 283.422 234.097 288.722 238.833 296.164C239.622 297.404 241.028 299.689 241.868 300.706C250.814 298.82 255.481 298.603 264.184 301.779C282.287 287.376 300.504 295.667 305.326 317.433C310.951 318.983 314.588 320.706 318.328 325.569C326.17 335.765 327.969 357.246 315.003 364.114C310.545 366.475 305.202 366.457 302.719 371.096C301.085 374.583 289.61 385.548 285.375 386.598C279.998 387.931 264.356 391.288 261.465 396.032C255.837 396.489 249.002 399.114 243.495 400.587C232.122 403.63 218.513 408.474 207.038 410.85C200.318 413.436 193.176 413.907 186.158 412.579C184.444 412.255 181.344 411.479 179.829 411.362C178.592 409.708 172.785 407.151 170.793 405.547C165.173 401.02 161.896 396.736 157.911 390.867C146.582 392.777 134.641 394.952 123.289 396.455C120.742 396.899 117.906 397.403 115.37 397.516C74.9095 399.33 64.0725 341.835 87.3175 316.508C93.767 309.481 103.44 306.907 112.407 306.599C118.115 305.875 138.089 304.173 142.507 302.552C144.487 298.408 150.554 294.36 154.865 292.948C164.554 289.777 170.367 290.603 179.242 294.763Z" fill="#EB6B1B"/>
<path d="M142.507 302.554C144.487 298.41 150.554 294.362 154.865 292.95C164.554 289.779 170.367 290.605 179.242 294.765L179.355 294.981C184.829 301.47 190.772 308.957 192.963 317.318C190.538 317.734 187.958 318.129 185.565 318.641C176.132 320.205 171.659 321.336 164.094 327.377C149.635 338.752 147.953 364.721 153.932 380.783C155.095 383.907 157.032 387.81 157.911 390.869C146.582 392.779 134.641 394.954 123.289 396.457C120.742 396.901 117.906 397.405 115.37 397.518C74.9095 399.332 64.0725 341.837 87.3175 316.51C93.767 309.483 103.44 306.909 112.407 306.601C118.115 305.877 138.089 304.175 142.507 302.554Z" fill="#FE9128"/>
<path d="M142.507 302.554C144.487 298.41 150.554 294.362 154.865 292.95C164.554 289.779 170.367 290.605 179.242 294.765L179.355 294.981C184.829 301.47 190.772 308.957 192.963 317.318C190.538 317.734 187.958 318.129 185.565 318.641C176.132 320.205 171.659 321.336 164.094 327.377C149.635 338.752 147.953 364.721 153.932 380.783C155.095 383.907 157.032 387.81 157.911 390.869C146.582 392.779 134.641 394.954 123.289 396.457C132.786 389.817 136.534 388.869 141.912 376.761C147.958 363.177 148.368 347.749 143.053 333.862C139.699 325.261 133.031 315.722 124.501 311.447C120.404 309.394 116.194 308.41 112.407 306.601C118.115 305.877 138.089 304.175 142.507 302.554Z" fill="#EB6B1B"/>
<path d="M142.507 302.554C144.487 298.41 150.554 294.362 154.865 292.95C164.554 289.779 170.367 290.605 179.242 294.765L179.355 294.981C184.829 301.47 190.772 308.957 192.963 317.318C190.538 317.734 187.958 318.129 185.565 318.641C176.132 320.205 171.659 321.336 164.094 327.377C159.198 322.451 154.832 314.413 149.312 309.781C148.661 309.235 143.45 306.428 142.421 305.868C141.798 304.504 142.16 304.369 142.507 302.554Z" fill="#FECA59"/>
<path d="M103.581 320.096C137.706 317.085 144.822 373.987 116.34 385.146C88.2266 391.969 71.8496 332.764 103.581 320.096Z" fill="#393338"/>
<path d="M117.195 334.954C119.266 334.816 121.088 336.311 121.356 338.369C121.624 340.428 120.246 342.34 118.209 342.736C116.772 343.016 115.299 342.475 114.385 341.331C113.472 340.188 113.269 338.631 113.859 337.292C114.449 335.952 115.735 335.052 117.195 334.954Z" fill="#D3CFD3"/>
<path d="M164.095 327.377C171.659 321.336 176.133 320.205 185.565 318.641C200.087 321.345 208.782 324.819 217.538 337.664C226.406 350.666 229.645 366.698 226.52 382.122C224.534 391.956 219.856 400.061 212.023 406.343C210.015 407.954 206.871 409.261 207.039 410.852C200.318 413.438 193.176 413.909 186.158 412.581C184.444 412.257 181.344 411.481 179.83 411.364C178.593 409.71 172.786 407.153 170.793 405.549C165.173 401.022 161.896 396.738 157.912 390.869C157.033 387.81 155.095 383.907 153.933 380.783C147.953 364.721 149.636 338.752 164.095 327.377Z" fill="#FD9B30"/>
<path d="M181.478 332.599C216.721 329.974 227.762 392.995 195.106 400.467C161.66 402.727 148.034 339.52 181.478 332.599Z" fill="#393338"/>
<path d="M194.557 348.354C196.701 347.853 198.856 349.139 199.434 351.264C200.012 353.389 198.804 355.589 196.701 356.243C195.272 356.687 193.715 356.316 192.64 355.274C191.566 354.233 191.146 352.688 191.545 351.246C191.944 349.803 193.099 348.694 194.557 348.354Z" fill="#D3CFD3"/>
<path d="M264.183 301.781C282.286 287.378 300.504 295.669 305.326 317.435C310.951 318.985 314.587 320.708 318.328 325.571C326.17 335.767 327.969 357.248 315.003 364.116C310.545 366.477 305.201 366.459 302.718 371.098C302.82 364.556 305.264 358.04 305.022 350.034C304.955 336.836 299.284 323.104 289.995 314.069C278.593 302.978 268.648 305.208 254.976 308.408C253.833 308.675 246.212 308.318 244.148 308.367C243.539 305.463 243.231 303.378 241.868 300.708C250.814 298.822 255.481 298.605 264.183 301.781Z" fill="#A55B38"/>
<path d="M179.242 294.763C185.741 287.402 197.29 283.985 206.657 287.321C209.25 288.245 211.667 290.271 214.057 289.51C222.053 283.422 234.097 288.722 238.833 296.164C239.622 297.404 241.029 299.689 241.869 300.706C243.232 303.376 243.54 305.461 244.148 308.365C238.355 308.723 232.603 309.57 226.953 310.898L222.702 311.617C215.218 312.872 203.116 314.941 195.887 316.803L192.963 317.316C190.772 308.955 184.829 301.468 179.356 294.979L179.242 294.763Z" fill="#FCCE5E"/>
<path d="M214.057 289.51C222.053 283.422 234.097 288.722 238.833 296.164C239.622 297.404 241.029 299.689 241.869 300.706C243.232 303.376 243.54 305.461 244.148 308.365C238.355 308.723 232.603 309.57 226.953 310.898L222.702 311.617C222.363 305.242 220.108 300.848 216.653 295.658C215.708 294.24 214.305 292.484 213.91 290.902L214.057 289.51Z" fill="#FEE071"/>
<path d="M213.91 290.902C219.281 293.102 221.995 298.376 224.112 303.455C225.127 305.909 226.074 308.392 226.953 310.898L222.702 311.617C222.363 305.242 220.108 300.849 216.653 295.659C215.708 294.24 214.305 292.484 213.91 290.902Z" fill="#FD9B30"/>
<path d="M179.355 294.98C186.274 296.302 193.589 308.682 195.051 315.27C195.172 315.819 195.5 316.407 195.887 316.805L192.963 317.317C190.772 308.957 184.829 301.469 179.355 294.98Z" fill="#FD9B30"/>
<path d="M832.605 487.392C837.83 483.608 844.47 473.129 848.045 467.543C851.56 476.59 857.43 493.772 853.49 503.219C852.665 505.194 851.001 507.489 849.706 509.264C854.581 538.784 860.121 582.459 841.646 608.074C838.476 612.469 833.686 617.679 829.021 620.489C828.076 628.694 828.09 641.084 827.88 649.564L826.711 695.579L823.656 827.314L822.665 864.174C822.62 866.584 822.33 875.114 822.745 876.849C828.135 882.329 849.01 903.914 841.67 913.654C839.625 916.369 828.956 917.529 825.086 917.589C815.576 918.384 816.11 927.464 803.36 919.554C800.535 911.974 802.825 872.459 802.85 861.159C803.675 855.874 803.391 847.059 803.591 841.259C804.346 819.034 804.775 796.729 805.41 774.499L808.47 676.749C808.93 662.524 810.17 643.784 809.935 629.834C802.895 632.194 792.556 635.494 785.526 636.844C771.036 639.619 741.415 640.014 727.23 636.454C731.4 632.174 739.971 618.564 743.156 613.359C746.731 611.304 751.93 600.359 753.48 596.369C754.56 593.589 754.64 593.454 753.555 590.979C762.74 573.824 766.285 542.844 767.845 523.759C769.43 524.944 772.321 527.234 774.026 527.969C786.056 533.169 800.865 527.849 812.94 525.119L813.475 502.939L813.8 502.364C821.015 501.024 827.011 493.107 831.831 488.443L832.51 487.79L832.605 487.392Z" fill="#9E5C3F"/>
<path d="M767.845 523.762C769.43 524.947 772.321 527.237 774.026 527.972C786.056 533.172 800.865 527.852 812.94 525.122C811.64 547.712 812.32 570.527 810.995 593.142C810.28 605.312 810.44 617.642 809.935 629.837C802.895 632.197 792.556 635.497 785.526 636.847C771.036 639.622 741.415 640.017 727.23 636.457C731.4 632.177 739.971 618.567 743.156 613.362C746.731 611.307 751.93 600.362 753.48 596.372C754.56 593.592 754.64 593.457 753.555 590.982C762.74 573.827 766.285 542.847 767.845 523.762Z" fill="#EB6B1B"/>
<path d="M832.605 487.392C837.83 483.608 844.47 473.129 848.045 467.543C851.56 476.59 857.43 493.772 853.49 503.219C852.665 505.194 851 507.489 849.705 509.264C854.58 538.784 860.12 582.459 841.645 608.074C838.475 612.469 833.685 617.679 829.02 620.489C828.925 614.029 829.66 603.659 829.81 596.724C830.065 578.979 830.47 561.239 831.025 543.499C831.66 525.429 832.765 505.824 832.51 487.79L832.605 487.392Z" fill="#EA7A33"/>
<path d="M822.745 876.852C828.135 882.332 849.01 903.917 841.67 913.657C839.625 916.372 828.956 917.532 825.086 917.592C823.631 917.592 822.425 917.787 821.23 917.047C822.38 903.242 821.995 890.367 822.745 876.852Z" fill="#EA7A33"/>
<path d="M839.72 190.273C847.745 191.314 861.875 188.156 870.2 186.898C900.145 182.375 931.78 181.802 960.54 192.518C962.54 193.263 973.45 196.836 971.225 200.289C963.65 212.035 947.535 219.097 938.575 229.683C948.11 242.663 958.355 257.747 964.2 272.732C943.435 269.749 924.88 266.365 903.66 268.265C879.33 270.444 863.245 278.772 838.38 275.824L839.175 218.702C839.31 209.695 839.725 199.187 839.43 190.31L839.72 190.273Z" fill="#FF8B2C"/>
<path d="M207.038 410.85C218.513 408.474 232.122 403.63 243.495 400.587C249.002 399.113 255.837 396.488 261.465 396.031C259.538 400.006 256.635 402.527 253.505 405.591C258.874 419.762 267.123 431.186 281.306 437.811C289.666 441.715 297.608 441.552 306.57 440.736C303.758 463.439 301.678 481.939 302.428 505.069C281.335 509.504 246.363 497.087 229.414 485.041C207.086 469.173 184.554 438.548 179.829 411.362C181.344 411.479 184.444 412.255 186.158 412.579C193.176 413.907 200.318 413.435 207.038 410.85Z" fill="#FDBF45"/>
<path d="M386.442 657.051C401.413 666.696 414.797 675.216 431.217 682.351C435.1 684.036 440.345 686.976 444.454 687.566C435.794 691.481 416.982 710.111 413.615 719.191C408.434 733.176 416.033 748.246 421.077 761.106C423.354 766.986 426.637 776.701 429.771 781.951C429.494 784.631 428.107 787.311 426.12 789.091C413.333 800.546 382.651 793.021 372.361 782.001C369.7 776.401 366.93 768.911 364.748 763.021C358.632 746.501 350.763 728.206 351.951 710.321C353.428 688.091 370.956 670.951 386.442 657.051Z" fill="#FFC44C"/>
<path d="M219.108 773.656C219.523 774.916 220.445 778.111 221.088 779.041C222.619 795.756 220.892 824.691 216.681 840.991C228.289 824.576 235.728 821.276 256.32 816.736C258.146 816.336 259.671 816.231 261.547 816.441C262.368 817.161 262.301 816.826 262.294 817.951C262.208 830.996 256.674 843.246 247.894 852.731C243.686 857.276 239.305 859.956 234.706 863.646C227.023 869.811 219.843 876.291 214.47 884.511C214.341 890.401 214.198 897.346 215.217 903.146C222.015 892.276 230.595 885.271 243.241 881.836C246.02 881.081 255.092 880.481 256.466 879.386C262.533 880.396 275.462 883.241 279.868 887.686L280.296 889.026C279.014 890.866 273.536 891.691 271.203 894.036C265.393 899.876 258.121 906.431 252.47 912.186C250.094 912.241 240.306 918.321 236.043 919.326C226.537 921.561 218.924 919.921 210.081 920.271C200.895 920.636 192.344 922.961 182.488 921.466C156.729 917.556 154.329 899.381 126.508 898.331C139.002 879.181 164.901 878.456 183.16 888.656C191.168 893.131 195.635 897.681 201.973 904.076C193.961 878.466 183.168 875.671 166.396 859.346C169.621 860.221 172.372 860.906 175.691 859.641C178.731 862.436 183.615 865.826 186.954 868.671C199.055 878.966 202.659 885.721 208.163 899.826C207.615 884.041 206.78 875.556 208.273 859.116C210.612 833.361 218.521 804.346 217.498 779.006C218.033 777.231 218.593 775.436 219.108 773.656Z" fill="#A09054"/>
<path d="M729.425 870.654C741.2 862.319 752 854.964 766.77 852.739C779.145 850.874 792.705 853.709 802.85 861.159C802.825 872.459 800.535 911.974 803.36 919.554C798.365 920.529 790.42 920.834 785.08 921.089C768.6 921.879 750.845 922.304 734.415 921.259C727.605 920.824 712.68 920.119 708.485 914.634C705.945 911.319 706.48 907.714 706.925 903.919L704.595 903.924C702.57 895.144 698.57 891.224 691.37 886.664C701.35 873.554 713.545 869.934 729.425 870.654Z" fill="#EA7A33"/>
<path d="M691.37 886.663C701.35 873.553 713.545 869.933 729.425 870.653C721.125 879.108 709.07 891.713 706.925 903.918L704.595 903.923C702.57 895.143 698.57 891.223 691.37 886.663Z" fill="#CD5531"/>
<path d="M661.635 687.895C667.985 708.085 672.735 728.32 695.5 734.19C698.28 734.91 699.895 735.72 702.91 735.58C718.705 744.355 714.63 779.835 696.295 783.715C694.94 784 693.525 784.12 692.165 784.315C676.83 782.875 652.765 775.905 640.845 765.69C623.905 751.17 610.375 725.59 601.51 705.37C621.71 702.84 643.135 696.245 661.635 687.895Z" fill="#FFC049"/>
<path d="M702.91 735.58C717.48 727.59 733.875 730.215 749.07 731.52C755.28 733.8 757.395 735.905 760.41 742.095C770.805 763.425 769.34 821.32 743.625 831.44C733.55 832.395 728.685 836.58 717.485 829.63C703.68 821.065 695.87 799.455 692.165 784.315C693.525 784.12 694.94 784 696.295 783.715C714.63 779.835 718.705 744.355 702.91 735.58Z" fill="#EB6B1B"/>
<path d="M749.07 731.52C755.28 733.8 757.395 735.904 760.41 742.094C770.805 763.424 769.34 821.32 743.625 831.44C742.3 828.1 745.97 824.955 747.36 821.655C749.255 817.135 754.075 809.364 755.135 804.784C759.415 785.854 759.25 764.49 754.565 745.625C753.31 740.58 747.085 737.16 749.07 731.52Z" fill="#EA7A33"/>
<path d="M197.372 759.915C185.996 760.155 171.782 757.085 171.474 742.82C171.403 739.325 172.793 735.955 175.309 733.53C186.32 722.86 200.89 734.7 202.805 734.125C200.01 725.51 196.515 717.925 201.345 708.775C208.768 694.705 226.184 703.415 228.057 716.51C229.497 724.92 228.985 728.465 227.566 736.465C233.919 730.935 239.416 727.97 248.17 728.28C261.983 728.77 268.78 746.875 257.546 755.545C252.344 759.56 246.894 759.785 240.595 759.66C243.886 762.895 247.564 765.85 249.157 770.235C250.156 772.985 250.949 775.215 250.909 778.195C250.713 792.78 233.202 795.985 224.978 785.425C223.413 783.35 222.317 781.28 221.088 779.04C220.445 778.11 219.523 774.915 219.108 773.655C218.593 775.435 218.033 777.23 217.498 779.005C214.877 784.715 212.084 790.29 205.741 792.76C202.18 794.17 198.19 794.01 194.754 792.315C185.759 787.905 184.438 776.915 189.194 768.965C191.638 764.88 193.707 762.97 197.372 759.915Z" fill="#FDBF45"/>
<path d="M214.716 743.84C217.893 742.265 221.746 743.57 223.308 746.755C224.869 749.94 223.544 753.785 220.352 755.335C217.181 756.87 213.364 755.555 211.812 752.39C210.261 749.23 211.559 745.405 214.716 743.84Z" fill="#FEE071"/>
<path d="M142.656 813.64C140.622 805.745 138.492 797.31 142.861 789.805C149.246 778.835 165.424 781.33 167.659 794.075C168.897 801.135 166.971 806.39 164.348 812.66C171.922 805.785 185.216 800.56 192.882 810.11C195.046 812.785 195.996 816.245 195.506 819.655C193.965 830.1 183.25 831.9 174.645 832.13C181.265 837.83 183.826 839.545 185.814 848.255C184.321 852.905 183.752 855.595 179.102 857.995C177.975 858.565 176.838 859.115 175.691 859.64C172.372 860.905 169.621 860.22 166.396 859.345C160.582 853.64 159.002 851.975 156.494 844.145C155.66 850.665 154.375 854.655 149.156 859.105C140.777 866.245 126.56 861.65 128.578 849.46C129.707 842.78 133.869 838.99 138.601 834.565C129.698 837.345 115.967 837.335 112.571 826.59C111.535 823.205 111.898 819.54 113.581 816.42C119.309 805.69 133.965 808.61 142.656 813.64Z" fill="#FDBF45"/>
<path d="M152.79 818.993C155.956 818.413 159.014 820.443 159.706 823.583C160.399 826.728 158.477 829.853 155.36 830.658C153.244 831.203 151 830.548 149.508 828.953C148.015 827.358 147.512 825.073 148.196 822.998C148.88 820.923 150.642 819.388 152.79 818.993Z" fill="#FEE071"/>
<path d="M823.035 189.012C829.955 193.166 831.83 193.219 839.43 190.309C839.725 199.187 839.31 209.695 839.175 218.702L838.38 275.824C837.525 280.025 837.555 296.354 837.46 301.549L836.415 352.88C831.025 351.922 823.62 352.407 818.295 353.651C817.785 344.219 818.855 329.154 819.115 319.194L821.575 235.974C822.04 223.042 823.535 201.568 823.035 189.012Z" fill="#A55B38"/>
<path d="M237.473 115.645C238.418 115.964 239.766 116.421 240.142 117.347C243.337 125.217 242.543 133.608 246.567 141.599C252.113 152.612 265.193 152.373 269.768 157.651C269.521 160.038 254.848 164.989 250.047 170.672C241.839 180.388 244.19 195.364 239.131 201.296C238.578 201.033 237.064 200.365 236.848 199.82C233.714 191.919 234.24 182.439 229.631 174.767C224.402 166.062 213.021 163.563 206.44 157.988C208.733 154.45 221.131 152.063 227.074 145.053C235.232 135.431 233.288 122.583 237.473 115.645Z" fill="#FCCE5E"/>
<path d="M314.49 44.6562C315.178 44.8387 316.56 45.4893 316.686 45.8772C319.741 55.2491 318.895 61.4021 323.687 70.4401C328.639 79.7791 343.342 82.5596 345.604 85.9911C344.335 88.7796 331.927 92.5616 326.856 98.0101C318.38 107.117 320.372 123.824 315.412 128.405C314.831 128.15 313.676 127.701 313.458 127.066C310.786 119.315 310.443 108.453 305.737 101.366C301.346 94.7541 290.178 90.7696 284.818 86.1891C285.022 84.0666 298.852 79.7826 303.837 74.0211C311.951 64.6441 310.276 49.2984 314.49 44.6562Z" fill="#FCCE5E"/>
<path d="M704.595 903.925C698.8 914.24 663.515 911.27 653.795 906.765C639.155 899.98 641.935 885.015 656.315 880.39C668.75 876.395 680.355 881.085 691.37 886.665C698.57 891.225 702.57 895.145 704.595 903.925Z" fill="#EA7A33"/>
<path d="M823.035 189.011C819.03 182.756 817.84 175.616 825.35 171.451C828.42 169.722 832.055 169.309 835.435 170.306C845.89 173.42 845.03 182.725 839.72 190.272L839.43 190.309C831.83 193.219 829.955 193.166 823.035 189.011Z" fill="#FDBF45"/>
<path d="M152.33 642.734C153.569 643.194 153.149 642.999 154.204 643.879C155.461 647.929 150.061 655.679 147.034 658.169C145.784 657.704 145.671 657.819 144.945 656.754C145.134 652.984 149.669 645.384 152.33 642.734Z" fill="#FDBF45"/>
<path d="M135.961 668.289C137.684 669.019 137.655 668.999 138.141 670.474C136.848 674.659 131.401 678.644 127.787 680.984C126.413 680.849 126.081 680.664 125.625 679.494C126.323 676.454 133.358 670.234 135.961 668.289Z" fill="#FDBF45"/>
<path d="M166.392 615.766C168.051 616.696 167.509 616.056 168.297 617.536C168.115 621.171 163.045 628.506 160.738 631.346C159.63 630.556 159.457 630.601 158.891 629.411C159.34 625.256 163.56 618.711 166.392 615.766Z" fill="#FDBF45"/>
<path d="M209.547 582.992C211.21 582.812 211.279 582.917 212.851 583.307L213.266 584.122C211.837 586.277 203.875 588.757 200.896 589.997L199.084 590.692L198.159 589.947L198.088 590.302C197.758 589.467 197.891 589.862 198.118 588.757C200.95 585.602 205.577 584.367 209.547 582.992Z" fill="#FDBF45"/>
<path d="M73.7744 694.496C77.4049 694.416 85.6779 692.996 85.8004 697.651C83.2669 697.951 76.2789 698.471 74.4039 696.856C73.8089 696.346 73.9224 695.521 73.7744 694.496Z" fill="#FDBF45"/>
<path d="M112.957 688.012C113.49 688.722 113.261 688.362 113.348 689.452C111.766 692.027 104.656 693.662 101.618 694.512C101.172 693.342 101.231 693.947 101.453 692.702C104.647 690.422 109.18 689.217 112.957 688.012Z" fill="#FDBF45"/>
<path d="M228.341 579.547C230.817 579.542 240.464 579.877 241.961 581.362L241.481 582.032C238.527 582.067 229.584 582.897 227.774 580.777L228.341 579.547Z" fill="#FDBF45"/>
<path d="M184.526 597.359L185.187 597.829C184.728 599.524 178.935 604.424 177.349 605.874L176.352 605.244C176.573 602.449 182.197 598.914 184.526 597.359Z" fill="#FDBF45"/>
</svg>
