<svg width="350" height="350" viewBox="0 0 350 350" fill="none" xmlns="http://www.w3.org/2000/svg">
<g clip-path="url(#clip0_3029_717)">
<path d="M206.014 130.719C206.471 130.45 207.151 130.259 207.645 130.032C209.771 129.054 210.695 126.183 213.303 125.56C215.009 125.153 216.718 125.932 218.148 126.792C220.802 129.58 221.108 132.024 220.577 135.641L221.233 135.776C221.546 135.895 222.504 136.283 222.774 136.352C224.637 137.647 224.849 138.359 225.64 140.446C225.001 146.252 220.412 151.987 217.49 156.976C215.697 160.035 214.513 162.364 212.978 165.566C221.563 162.035 231.623 162.975 240.011 166.568C247.77 169.893 251.868 173.623 257.412 179.536C258.108 175.054 258.962 167.585 257.024 163.475C256.922 162.335 256.007 160.6 255.594 159.474C253.538 153.872 255.778 150.072 261.978 150.117C262.501 150.256 263.127 150.405 263.638 150.564C268.543 153.014 270.887 157.446 272.685 162.418C274.1 166.329 273.863 168.864 274.548 172.464C274.724 178.726 273.777 184.969 271.754 190.897C269.917 196.455 268.64 199.057 268.43 205.165C267.782 223.957 260.558 241.915 247.773 255.362C238.789 264.928 227.623 272.178 215.227 276.49C212.768 277.324 209.49 278.313 206.944 278.691C207.628 284.729 208.248 290.773 208.803 296.825C209.106 299.92 209.431 303.017 209.644 306.101C209.824 308.66 208.752 309.418 206.307 309.48C189.544 309.9 172.669 309.583 155.925 309.702C153.01 312.582 148.082 316.53 143.578 314.004C142.012 313.125 141.272 311.201 140.879 309.506C138.533 309.752 135.879 309.709 133.499 309.733L122.508 309.849C117.265 309.919 112.148 310.138 106.879 310.059C102.942 310.001 99.9175 310.186 95.9215 309.627C83.8267 307.935 73.0239 302.458 65.5556 292.694C53.665 277.426 52.8619 256.267 63.5609 240.141C64.8729 238.154 67.0508 235.356 68.6724 233.565C72.2024 229.67 76.7547 226.485 76.9275 220.676C77.0521 216.48 74.886 211.072 73.1498 207.247C68.6735 197.383 65.0077 187.392 66.5355 176.311C67.808 166.805 72.8783 158.221 80.5888 152.517C87.9544 147.025 96.8263 145.257 105.789 146.553C124.443 149.25 136.618 165.357 140.017 183C140.703 186.558 141.35 192.437 143.136 195.568C144.235 197.492 153.139 196.496 155.274 196.962C163.756 197.528 168.131 202.691 173.203 208.641C181.807 196.427 186.514 185.573 191.802 171.637C192.754 169.854 194.345 168.127 195.407 166.373C196.504 164.56 197.413 162.305 198.51 160.537C199.942 158.224 201.643 155.843 203.194 153.594C203.43 153.272 203.837 152.587 204.064 152.227C201.928 150.668 200.944 149.412 199.99 146.962C198.209 140.681 201.074 134.689 206.014 130.719Z" fill="#DFF7FF"/>
<path d="M206.014 130.719C206.47 130.45 207.151 130.259 207.644 130.032C209.77 129.054 210.695 126.183 213.303 125.56C215.009 125.153 216.717 125.932 218.148 126.792C220.802 129.58 221.108 132.024 220.576 135.641L221.233 135.776C221.545 135.895 222.504 136.283 222.774 136.352C224.637 137.647 224.849 138.359 225.64 140.446C225.001 146.252 220.412 151.987 217.49 156.976C215.697 160.035 214.513 162.364 212.978 165.566C221.562 162.035 231.623 162.975 240.011 166.568C247.77 169.893 251.868 173.623 257.412 179.536C258.107 175.054 258.962 167.585 257.024 163.475C256.921 162.335 256.007 160.6 255.593 159.474C253.538 153.872 255.778 150.072 261.978 150.117C262.501 150.256 263.127 150.405 263.638 150.564C268.542 153.014 270.887 157.446 272.685 162.418C274.1 166.329 273.863 168.864 274.548 172.464C274.724 178.726 273.777 184.969 271.754 190.897C269.916 196.455 268.64 199.057 268.43 205.165C267.782 223.957 260.558 241.915 247.773 255.362C238.789 264.928 227.623 272.178 215.227 276.49C212.768 277.324 209.49 278.313 206.944 278.691C203.07 279.313 194.786 280.725 190.977 280.325C189.972 281.624 189 282.914 187.898 284.132C181.595 284.088 177.398 283.544 171.453 281.089C170.272 280.6 168.261 279.757 167.237 279.091C168.126 278.192 168.559 277.531 169.285 276.495C166.649 275.95 160.621 271.85 158.31 270.091C157.362 270.366 155.133 271.042 154.161 271.067C153.503 270.119 150.692 267.396 149.626 266.087C145.798 261.386 145.48 258.275 143.381 253.282C144.087 253.121 144.397 252.943 145.06 252.631C144.524 251.375 144.13 249.527 143.938 248.196C142.705 239.634 145.353 232.097 152.147 226.615C155.39 223.998 159.102 221.638 162.45 219.094C166.75 215.824 169.937 212.982 173.203 208.641C181.807 196.427 186.514 185.573 191.802 171.637C192.754 169.854 194.345 168.127 195.406 166.373C196.504 164.56 197.413 162.305 198.51 160.537C199.942 158.224 201.643 155.843 203.194 153.594C203.43 153.272 203.837 152.587 204.064 152.227C201.928 150.668 200.944 149.412 199.99 146.962C198.209 140.681 201.073 134.689 206.014 130.719Z" fill="#CBB3E0"/>
<path d="M206.014 130.719C206.47 130.45 207.15 130.259 207.644 130.032C209.77 129.054 210.695 126.183 213.303 125.56C215.008 125.153 216.717 125.932 218.148 126.792C220.802 129.58 221.108 132.024 220.576 135.641L221.232 135.776C221.161 136.37 221.027 137.607 220.634 138.057C217.326 141.852 218.688 147.457 212.635 148.857C212.072 153.998 207.408 156.951 203.194 153.594C203.43 153.272 203.837 152.587 204.064 152.227C201.928 150.668 200.943 149.412 199.99 146.962C198.209 140.681 201.073 134.689 206.014 130.719Z" fill="#CBB3E0"/>
<path d="M211.215 131.974C212.602 132.856 213.508 133.499 214.586 134.795C215.448 135.763 216.14 137.37 217.206 138.099C219.054 139.36 220.105 136.904 220.576 135.641L221.233 135.776C221.161 136.37 221.028 137.607 220.635 138.057C217.326 141.851 218.688 147.457 212.635 148.857C212.073 153.998 207.409 156.951 203.194 153.594C203.43 153.272 203.837 152.587 204.064 152.227C205.765 152.698 206.438 152.746 208.106 152.19C211.883 148.306 209.107 142.909 207.542 138.689C209.851 140.58 210.666 141.759 211.688 144.602C211.912 144.93 212.276 146.461 212.766 146.431C221.434 145.905 212.325 133.627 211.215 131.974Z" fill="#AE90C3"/>
<path d="M169.285 276.495C177.482 279.641 182.426 280.215 190.977 280.325C189.972 281.624 189 282.914 187.897 284.132C181.595 284.088 177.397 283.544 171.452 281.089C170.272 280.6 168.26 279.757 167.236 279.091C168.126 278.192 168.559 277.531 169.285 276.495Z" fill="#AE90C3"/>
<path d="M145.06 252.63C145.88 253.217 147.723 258.075 148.592 259.424C151.412 263.804 154.3 266.849 158.31 270.091C157.362 270.366 155.133 271.041 154.161 271.067C153.503 270.118 150.692 267.396 149.626 266.087C145.798 261.385 145.48 258.275 143.381 253.281C144.087 253.121 144.397 252.943 145.06 252.63Z" fill="#AE90C3"/>
<path d="M217.342 177.832C225.196 176.825 232.381 182.372 233.393 190.227C234.404 198.081 228.86 205.269 221.008 206.286C213.148 207.303 205.951 201.752 204.94 193.893C203.926 186.033 209.48 178.84 217.342 177.832Z" fill="white"/>
<path d="M221.899 183.094C226.059 182.796 229.497 184.774 230.869 188.815C231.743 191.425 231.524 194.277 230.261 196.723C228.935 199.228 227.064 200.397 224.452 201.17C222.718 201.489 220.927 201.209 219.371 200.373C214.716 197.926 213.522 191.821 216.01 187.423C217.439 184.893 219.214 183.854 221.899 183.094Z" fill="#5C3250"/>
<path d="M249.525 187.6C256.886 186.455 263.778 191.507 264.903 198.871C266.027 206.237 260.957 213.114 253.588 214.218C246.249 215.317 239.405 210.272 238.285 202.935C237.164 195.6 242.192 188.74 249.525 187.6Z" fill="white"/>
<path d="M263.043 203.969C261.377 211.793 250.745 213.146 247.816 204.857C246.936 202.326 247.114 199.548 248.305 197.148C251.646 190.423 260.909 191.461 262.848 198.244C263.388 199.908 263.544 202.289 263.043 203.969Z" fill="#5C3250"/>
<path d="M262.848 198.244C263.388 199.908 263.544 202.289 263.043 203.969C262.936 203.672 262.749 198.722 262.848 198.244Z" fill="#210B1A"/>
<path d="M223.991 209.579C227.31 209.475 228.378 213.274 232.124 214.703C234.944 215.78 239.691 214.332 241.269 216.174C242.962 218.15 240.563 220.423 238.751 221.568C236.226 222.602 234.094 222.862 231.16 222.159C226.973 221.158 220.74 216.892 221.8 211.837C222.019 210.8 223.06 210.075 223.991 209.579Z" fill="#F8842C"/>
<path d="M190.978 280.325C194.786 280.725 203.07 279.313 206.944 278.691C207.628 284.729 208.248 290.773 208.804 296.825C209.106 299.92 209.431 303.017 209.644 306.101C209.824 308.66 208.752 309.418 206.307 309.48C189.544 309.9 172.669 309.583 155.925 309.702C156.614 308.646 157.27 307.826 157.941 306.669C158.726 305.317 160.314 301.625 161.24 300.773C162.717 299.411 166.847 298.452 168.867 297.57C176.868 294.077 182.068 290.633 187.898 284.132C189.001 282.914 189.973 281.624 190.978 280.325Z" fill="white"/>
<path d="M167.236 279.091C168.26 279.757 170.272 280.6 171.452 281.088C177.397 283.544 181.595 284.088 187.898 284.132C182.067 290.633 176.867 294.077 168.866 297.57C166.847 298.452 162.717 299.41 161.239 300.772C160.313 301.625 158.725 305.317 157.941 306.668C157.269 307.825 156.613 308.646 155.924 309.702C153.01 312.582 148.082 316.529 143.578 314.003C142.012 313.125 141.272 311.201 140.879 309.505C141.21 307.692 141.254 305.811 141.821 303.862C143.167 298.824 147.853 287.2 153.392 285.556C159.962 283.606 161.468 283.785 167.236 279.091Z" fill="#CBB3E0"/>
<path d="M131.218 269.305C130.202 269.915 128.345 271.527 127.385 272.371C124.602 274.842 120.94 276.502 117.29 277.042C113.938 277.537 109.158 275.912 109.075 271.986C108.969 266.955 113.747 261.519 116.86 257.792C119.301 254.871 123.498 250.793 127.33 249.891C129.51 249.455 133.56 252.683 135.874 253.162C138.521 253.711 140.768 253.456 143.381 253.282C145.48 258.275 145.798 261.386 149.626 266.087C150.692 267.396 153.503 270.118 154.161 271.067C144.085 272.643 140.722 271.583 131.218 269.305Z" fill="#CBB3E0"/>
<path d="M206.014 130.719C203.974 129.506 202.08 127.655 200.009 126.41C172.471 109.867 140.628 100.888 109.451 94.2588C101.486 92.5678 93.4988 90.9839 85.4912 89.5079C81.3274 88.7472 77.1252 88.1279 72.9929 87.2563C71.0539 86.8475 69.3329 85.4494 69.463 83.3415C69.5115 82.5535 70.3506 80.8402 71.0284 80.494C75.3209 78.301 81.1319 77.7107 85.901 76.7352C92.9952 75.2156 100.097 73.7327 107.207 72.2864L191.401 54.8042L257.643 41.2335L274.797 37.8169C278.932 36.9532 283.066 36.0035 287.225 35.29C289.772 34.8532 291.829 36.1448 293.225 38.1759C293.805 39.3709 294.082 40.1773 294.056 41.5279C294.077 43.5883 293.63 46.5223 293.345 48.6093C292.913 51.7183 292.496 54.8297 292.096 57.9433L287.55 93.2514L281.124 142.737L279.092 158.483C278.441 163.374 278.54 168.358 274.975 172.038C274.835 172.182 274.693 172.324 274.548 172.464C273.863 168.864 274.1 166.329 272.685 162.418C270.887 157.446 268.543 153.014 263.638 150.564C263.127 150.405 262.501 150.256 261.978 150.117C255.778 150.072 253.538 153.872 255.594 159.474C256.007 160.6 256.921 162.335 257.024 163.475C252.499 159.846 247.961 156.042 243.265 152.648C237.494 148.476 231.524 144.461 225.64 140.446C224.849 138.359 224.637 137.647 222.774 136.352C222.504 136.283 221.546 135.894 221.233 135.776L220.577 135.641C221.108 132.024 220.802 129.58 218.148 126.792C216.718 125.932 215.009 125.153 213.303 125.56C210.695 126.183 209.771 129.054 207.645 130.032C207.151 130.259 206.471 130.45 206.014 130.719Z" fill="#FEC43D"/>
<path d="M293.225 38.176C293.804 39.3709 294.081 40.1774 294.055 41.528C294.076 43.5884 293.63 46.5224 293.344 48.6094C292.912 51.7184 292.495 54.8297 292.095 57.9433L287.549 93.2515L281.124 142.737L279.092 158.483C278.44 163.375 278.54 168.358 274.975 172.038C274.834 172.182 274.693 172.324 274.547 172.464C273.862 168.864 274.1 166.329 272.685 162.418C270.887 157.446 268.542 153.014 263.637 150.564C263.126 150.405 262.501 150.257 261.978 150.117C255.778 150.072 253.537 153.872 255.593 159.474C256.007 160.6 256.921 162.335 257.023 163.475C252.498 159.846 247.961 156.042 243.264 152.648C237.493 148.476 231.524 144.461 225.64 140.446C224.848 138.359 224.636 137.647 222.774 136.352C222.504 136.283 221.545 135.895 221.232 135.776L220.576 135.641C221.107 132.024 220.802 129.58 218.147 126.793C219.836 125.123 221.909 122.53 223.461 120.704C226.718 116.823 230.008 112.97 233.328 109.144C228.143 104.187 227.453 96.0882 232.985 91.0553C239.141 85.4547 253.971 84.0706 259.218 77.8269C270.4 64.5245 282.159 51.548 293.225 38.176Z" fill="#F8842C"/>
<path d="M294.056 41.5278C294.076 43.5882 293.63 46.5222 293.345 48.6092C292.913 51.7182 292.496 54.8295 292.096 57.9431L287.55 93.2513L281.124 142.737L279.092 158.483C278.441 163.374 278.54 168.358 274.975 172.038C274.835 172.182 274.693 172.324 274.548 172.464C273.862 168.864 274.1 166.329 272.685 162.418C270.887 157.446 268.542 153.014 263.638 150.564C263.651 143.982 263.316 139.19 262.995 132.662C262.47 122.832 262 112.999 261.587 103.164C261.378 97.4933 261.071 91.7715 261.269 86.091C261.365 84.5871 261.483 83.3604 262.334 82.0668C264.038 79.4782 266.119 77.1103 268.033 74.6686L279.514 60.0322L289.438 47.3652C290.315 46.2383 293.196 42.2979 294.056 41.5278Z" fill="#FEC43D"/>
<path d="M239.804 114.406C241.65 114.599 244.446 114.811 246.203 115.126C247.652 117.646 249.491 122.633 250.691 125.536C253.193 131.543 255.836 137.489 258.622 143.369C259.524 145.246 260.951 148.397 261.979 150.117C255.778 150.072 253.538 153.872 255.594 159.474C256.007 160.599 256.922 162.335 257.024 163.474C252.499 159.846 247.961 156.042 243.265 152.648C237.494 148.476 231.524 144.461 225.64 140.446C224.849 138.359 224.637 137.646 222.774 136.352C225.676 131.762 229.923 126.888 233.228 122.476C234.524 120.747 238.533 115.469 239.804 114.406Z" fill="#FEC43D"/>
<path d="M199.99 146.962C200.943 149.412 201.928 150.668 204.064 152.227C203.837 152.587 203.43 153.272 203.194 153.594C201.642 155.843 199.942 158.224 198.51 160.537C197.413 162.305 196.503 164.56 195.406 166.372C194.345 168.127 192.754 169.853 191.802 171.637C191.103 172.174 190.449 173.151 189.881 173.843C187.635 176.579 186.33 179.438 182.804 180.616C181.213 180.291 180.417 180.129 179.037 179.132C177.183 177.982 176.299 174.631 177.791 172.846C185.007 164.217 193.041 155.821 199.99 146.962Z" fill="#F8842C"/>
</g>
<defs>
<clipPath id="clip0_3029_717">
<rect width="350" height="350" fill="white"/>
</clipPath>
</defs>
</svg>
