<svg width="350" height="350" viewBox="0 0 350 350" fill="none" xmlns="http://www.w3.org/2000/svg">
<path d="M154.701 100.064L154.746 99.9277C155.38 97.9783 155.937 95.3281 156.51 93.2808C159.168 83.7863 162.253 75.0283 171.541 70.1705C177.752 66.9224 185.103 65.8861 191.804 68.1136C196.807 69.813 201.182 72.9729 203.642 77.7001C206.732 83.6403 205.389 89.7549 204.003 95.9564C203.65 97.5342 203.177 100.68 202.615 102.098C202.117 104.879 201.912 109.876 202.62 112.601C204.247 118.58 207.043 121.873 210.478 126.964C215.584 135.818 213.821 140.495 208.147 148.236C202.607 153.837 199.429 158.48 200.704 166.658C202.361 177.94 213.821 180.878 213.681 194.127C217.458 194.257 222.733 195.022 226.468 195.688C242.582 198.563 259.859 202.944 271.578 215.155C281.141 225.121 281.447 237.689 280.613 250.582L280.803 250.546C282.652 250.227 284.639 250.212 286.506 250.05C291.642 249.609 296.699 249.138 301.145 252.309C306.671 256.254 306.595 262.016 306.649 268.087L306.698 278.221C306.713 281.601 307.053 288.631 306.52 291.605C306.109 293.812 305.198 295.897 303.857 297.697C300.699 301.958 295.913 303.621 290.811 303.95C287.647 304.153 284.45 304.437 281.286 304.671L254.197 306.55L160.178 313.644L91.9238 318.922L74.6375 320.254C71.415 320.505 66.934 320.95 63.7343 320.863C59.4597 320.752 55.3288 319.297 51.9288 316.704C47.5512 313.355 44.6823 308.404 43.952 302.942C43.5402 299.789 43.8487 296.691 43.7806 293.577C43.6058 285.601 43.1553 279.461 48.4637 272.793C53.8756 265.996 61.0792 263.261 69.6168 263.51C61.7587 240.32 55.3826 205.332 58.9419 181.116C61.2589 165.352 68.3701 150.411 81.3657 140.736C85.4029 145.27 86.7464 147.015 91.8718 150.811L92.5382 151.145C92.6899 151.048 93.0651 150.883 93.2451 150.797C93.3474 149.8 93.6757 149.357 94.1695 148.505C91.5669 146.872 85.4078 141.724 84.2988 138.937C95.7713 131.625 112.41 130.273 124.63 136.488C130.44 139.442 137.524 144.225 141.763 149.271C142.508 148.766 143.236 148.236 143.944 147.68C149.663 143.214 152.27 136.896 153.135 129.842C153.266 124.306 152.833 118.846 152.959 113.295C153.182 108.89 153.901 104.403 154.701 100.064Z" fill="#FEE39D"/>
<path d="M154.7 100.064L154.746 99.9277C155.379 97.9783 155.936 95.3281 156.509 93.2808C159.167 83.7863 162.252 75.0283 171.54 70.1705C177.751 66.9224 185.102 65.8861 191.803 68.1136C196.806 69.813 201.181 72.9729 203.641 77.7001C206.731 83.6403 205.389 89.7549 204.003 95.9564C203.649 97.5342 203.177 100.68 202.615 102.098C202.117 104.879 201.912 109.876 202.62 112.601C204.246 118.58 207.042 121.873 210.478 126.964C215.583 135.818 213.82 140.495 208.146 148.236C202.606 153.837 199.429 158.48 200.704 166.658C202.361 177.94 213.82 180.878 213.681 194.127C213.302 200.003 211.48 204.453 209.842 209.923C208.844 213.249 207.604 218.333 207.227 221.756L207.091 221.815C205.836 222.365 204.41 223.343 203.198 223.79C197.353 225.948 188.941 226.771 183.141 224.1C182.429 226.421 181.884 228.13 181.435 230.516C179.198 230.499 175.483 231.046 173.155 231.3C171.301 231.502 168.08 231.769 166.368 232.095C165.322 231.285 164.289 230.299 163.187 229.439C162.185 229.957 159.884 230.137 158.735 230.099C151.612 229.856 145.393 228.009 140.365 222.878C138.517 226.091 136.882 229.406 136.006 233.029C130.31 233.112 125.796 232.933 120.343 231.132C116.741 229.94 114.494 229.67 111.951 232.874C107.839 240.68 119.349 248.514 125.077 251.223C126.023 251.67 127.26 252.399 128.223 252.693C127.406 254.861 127.195 256.74 127.782 259.001C125.51 260.1 114.314 260.346 110.982 260.568L80.7896 262.633C78.6204 262.79 71.6632 263.138 69.9226 263.744L69.6161 263.51C61.758 240.32 55.3819 205.332 58.9412 181.116C61.2582 165.352 68.3694 150.411 81.365 140.736C85.4022 145.27 86.7456 147.015 91.8711 150.811L92.5375 151.145C92.6892 151.048 93.0644 150.883 93.2444 150.797C93.3466 149.8 93.675 149.357 94.1688 148.505C91.5661 146.872 85.4071 141.724 84.2981 138.937C95.7706 131.625 112.409 130.273 124.629 136.488C130.439 139.442 137.523 144.225 141.762 149.271C142.508 148.766 143.235 148.236 143.943 147.68C149.663 143.214 152.269 136.896 153.135 129.842C153.266 124.306 152.832 118.846 152.958 113.295C153.182 108.89 153.9 104.403 154.7 100.064Z" fill="#D1B2D4"/>
<path d="M81.365 140.736C85.4022 145.27 86.7456 147.015 91.8711 150.811C90.4299 150.963 89.641 151.443 89.1878 152.928C88.2354 155.318 88.5736 156.157 89.8968 158.233L89.034 159.652C88.4893 160.606 88.3386 161.496 88.7406 162.544C89.2332 164.198 89.5358 164.527 91.0764 165.371L91.2739 165.477C93.8326 166.993 95.4055 167.23 98.3394 167.381C99.5634 167.443 101.488 167.354 102.121 168.541C102.916 168.964 103.382 168.709 103.693 168.904C103.645 170.119 103.638 171.336 103.672 172.552C116.406 175.799 132.443 177.619 144.348 170.713C144.837 170.429 145.249 170.168 145.696 169.82C145.643 173.223 145.44 176.712 146.382 180.026C147.6 184.314 150.337 187.655 152.065 191.737C156.626 202.508 147.407 210.677 142.493 219.226C141.874 220.303 140.832 221.771 140.365 222.878C138.517 226.092 136.882 229.406 136.006 233.029C130.31 233.112 125.796 232.933 120.343 231.132C116.741 229.941 114.494 229.67 111.951 232.874C107.839 240.68 119.349 248.514 125.077 251.223C126.023 251.67 127.26 252.399 128.223 252.693C127.406 254.861 127.195 256.74 127.782 259.001C125.51 260.1 114.314 260.346 110.982 260.568L80.7896 262.633C78.6204 262.79 71.6632 263.138 69.9226 263.744L69.6161 263.51C61.758 240.32 55.3819 205.333 58.9412 181.116C61.2582 165.352 68.3694 150.411 81.365 140.736Z" fill="#FDCB99"/>
<path d="M102.121 168.541C102.916 168.963 103.382 168.709 103.694 168.904C103.645 170.119 103.638 171.336 103.672 172.552C103.495 176.211 102.279 180.516 100.224 183.714C97.7987 187.492 93.7362 191.617 89.2219 192.867C88.8505 192.929 88.3078 192.981 88.0031 192.693C85.9581 190.762 89.573 189.64 90.3747 189.189C92.523 187.958 94.4443 186.367 96.055 184.486C98.637 181.518 101.046 176.46 100.539 172.444C101.399 170.758 102.354 171.37 102.121 168.541Z" fill="#593A55"/>
<path d="M91.2747 165.477C93.8334 166.993 95.4063 167.23 98.3401 167.38C99.5642 167.443 101.488 167.354 102.121 168.541C102.355 171.37 101.399 170.758 100.539 172.444C96.974 172.547 86.8324 170.997 91.2747 165.477Z" fill="#D1B2D4"/>
<path d="M84.2988 138.937C95.7713 131.624 112.41 130.273 124.63 136.487C130.44 139.442 137.524 144.224 141.763 149.271C139.527 151.13 136.118 152.46 133.357 153.276C115.837 158.456 105.355 144.731 97.5012 146.164C95.9831 146.441 95.0158 147.253 94.1695 148.505C91.5668 146.872 85.4078 141.724 84.2988 138.937Z" fill="#FDCB99"/>
<path d="M180.778 205.676C186.191 207.888 186.365 210.958 185.359 216.235C184.977 218.25 184.359 220.099 183.824 222.066C183.469 222.902 183.331 223.22 183.141 224.1C182.43 226.421 181.885 228.13 181.436 230.516C179.198 230.499 175.484 231.046 173.156 231.3C171.302 231.502 168.08 231.769 166.368 232.095C165.323 231.284 164.29 230.299 163.188 229.439C163.42 229.202 163.311 229.291 163.589 229.096C168.392 225.698 175.834 216.783 178.577 211.462C179.533 209.61 180.147 207.656 180.778 205.676Z" fill="#FDCB99"/>
<path d="M180.777 205.676C181.131 203.44 181.884 196.485 185.318 197.599C192.501 199.926 193.11 207.106 190.482 213.13C188.807 216.975 185.905 218.745 184.112 221.914L183.824 222.066C184.359 220.099 184.976 218.25 185.358 216.235C186.364 210.958 186.191 207.888 180.777 205.676Z" fill="#B690B1"/>
<path d="M89.1884 152.928C89.0446 153.957 88.601 155.993 89.3735 156.798C91.9169 159.449 97.8073 161.251 101.211 159.482C102.443 158.842 101.325 155.802 100.863 154.86L102.814 153.861C104.289 157.305 104.853 165.086 103.771 168.784C103.745 168.824 103.72 168.864 103.694 168.904C103.382 168.709 102.916 168.963 102.121 168.541C101.488 167.354 99.5641 167.443 98.3401 167.38C95.4062 167.23 93.8333 166.993 91.2746 165.477L91.0771 165.371C89.5365 164.527 89.2339 164.198 88.7413 162.544C88.3392 161.496 88.49 160.606 89.0347 159.652L89.8975 158.233C88.5742 156.157 88.2361 155.318 89.1884 152.928Z" fill="#B690B1"/>
<path d="M89.0347 159.651C89.59 159.182 89.7094 158.917 90.3152 158.808C90.853 159.171 92.2685 160.397 93.0573 160.713C95.1805 161.566 99.3723 161.46 101.553 161.856C102.379 162.007 102.447 165.811 100.78 165.67C97.3494 166.131 94.2747 165.409 91.0049 164.661C90.5233 164.177 89.2657 162.834 88.7413 162.544C88.3392 161.495 88.49 160.606 89.0347 159.651Z" fill="#D1B2D4"/>
<path d="M93.2443 150.797C93.9382 154.579 94.9891 155.606 98.8299 156.076C97.5983 156.272 96.5987 156.382 95.3541 156.49C94.1251 155.599 91.4735 152.722 92.5374 151.144C92.6891 151.047 93.0643 150.883 93.2443 150.797Z" fill="#B690B1"/>
<path d="M166.727 103.2C167.837 103.136 169.096 103.039 170.17 103.307C181.431 106.116 180.549 123.526 169.766 126.347C167.639 126.631 165.477 126.205 163.616 125.136C158.07 121.947 156.642 113.499 159.821 108.218C161.633 105.208 163.383 104.091 166.727 103.2Z" fill="#FDF2E0"/>
<path d="M167.119 112.876C171.88 106.489 178.325 116.093 173.118 121.097C173.085 121.143 173.051 121.189 173.016 121.235C168.113 125.263 163.64 117.006 167.119 112.876Z" fill="#593A55"/>
<path d="M167.118 112.876C171.88 106.489 178.325 116.093 173.118 121.097C173.239 120.444 173.828 119.79 174.132 119.131C175.593 115.978 173.771 110.038 169.415 111.415C168.529 111.696 167.856 112.739 167.118 112.876Z" fill="#120B15"/>
<path d="M189.678 104.377C203.343 103.693 203.972 124.5 192.165 126.714C186.748 126.899 182.845 123.59 181.661 118.43C180.882 115.108 181.476 111.612 183.308 108.733C184.844 106.36 186.916 104.951 189.678 104.377Z" fill="#FDF2E0"/>
<path d="M189.988 113.38C193.96 108.372 198.596 113.79 197.243 119.348C195.998 124.933 188.908 123.318 188.691 118.001C188.62 116.272 188.839 114.746 189.988 113.38Z" fill="#593A55"/>
<path d="M189.988 113.38C193.96 108.372 198.596 113.79 197.244 119.348C197.059 118.468 197.2 117.714 197.111 116.858C196.825 114.107 195.639 111.017 192.288 112.124C191.378 112.424 190.644 113.244 189.988 113.38Z" fill="#120B15"/>
<path d="M173.973 130.119C176.407 129.876 177.59 130.611 180.041 130.891C182.617 131.186 189.325 129.136 188.907 134.017C188.827 134.948 187.636 135.751 186.903 136.204C184.295 137.349 181.146 137.28 178.268 136.77C176.486 136.455 171.507 134.758 172.123 132.153C172.345 131.212 173.151 130.606 173.973 130.119Z" fill="#E87C3B"/>
<path d="M213.681 194.127C217.458 194.256 222.734 195.022 226.468 195.688C242.583 198.563 259.859 202.944 271.578 215.155C281.141 225.121 281.448 237.689 280.613 250.582C273.136 250.879 264.948 251.774 257.413 252.225C249.48 252.651 241.55 253.145 233.626 253.707C231.855 253.823 224.45 253.948 223.294 254.712C221.928 252.244 220.816 251.492 218.186 250.583C217.322 250.706 216.37 250.78 215.473 250.9C214.837 250.984 213.249 251.396 212.857 251.43C210.736 251.28 207.534 251.598 205.358 251.776C204.659 254.92 203.26 256.007 203.177 258.734C202.799 258.752 202.365 258.744 201.981 258.746C200.387 258.295 196.39 258.633 194.115 257.736C192.091 256.937 191.726 255.514 190.264 255.289C189.766 254.935 189.269 253.896 188.976 253.337C178.963 254.054 168.952 254.796 158.928 255.358C158.042 255.408 156.939 255.491 156.087 255.677C154.134 255.511 152.187 255.714 150.259 256.041C148.938 255.854 144.881 256.052 143.355 256.099C137.489 255.876 133.611 254.681 128.224 252.693C127.261 252.399 126.024 251.67 125.078 251.223C119.349 248.514 107.84 240.68 111.952 232.874C114.495 229.67 116.742 229.94 120.344 231.131C125.796 232.933 130.31 233.111 136.006 233.029C136.883 229.405 138.518 226.091 140.366 222.878C145.394 228.009 151.613 229.856 158.736 230.099C159.885 230.137 162.185 229.957 163.188 229.439C164.29 230.299 165.323 231.285 166.369 232.095C168.08 231.769 171.302 231.502 173.156 231.3C175.484 231.046 179.199 230.499 181.436 230.516C181.885 228.13 182.43 226.421 183.142 224.1C188.942 226.771 197.353 225.948 203.199 223.79C204.41 223.343 205.837 222.365 207.092 221.815L207.228 221.756C207.605 218.333 208.845 213.249 209.842 209.923C211.481 204.453 213.303 200.003 213.681 194.127Z" fill="#F79349"/>
<path d="M213.681 194.127C217.457 194.256 222.733 195.022 226.467 195.688C242.582 198.563 259.859 202.944 271.577 215.155C281.141 225.121 281.447 237.689 280.612 250.582C273.135 250.879 264.947 251.774 257.413 252.225C249.479 252.651 241.549 253.145 233.625 253.707C231.854 253.823 224.449 253.948 223.293 254.712C221.927 252.244 220.815 251.492 218.186 250.583C219.257 250.136 223.764 249.601 225.287 249.211C230.749 247.816 237.675 245.35 240.795 240.281C242.663 237.248 242.459 233.853 241.643 230.554C241.48 230.006 241.317 229.49 241.058 228.978C235.612 218.176 224.777 223.686 217.005 227.397C213.536 224.84 211.169 223.439 207.228 221.756C207.604 218.333 208.844 213.249 209.842 209.923C211.48 204.453 213.302 200.003 213.681 194.127Z" fill="#FDCB99"/>
<path d="M111.952 232.874C112.236 239.738 128.088 249.248 134.171 250.913C139.066 252.254 145.85 252.301 150.923 252.192C160.902 251.973 170.84 250.54 180.783 249.727C195.611 248.358 210.544 247.757 225.183 244.912C232.147 243.558 242.887 239.664 241.548 230.726C241.58 230.669 241.612 230.612 241.644 230.554C242.46 233.853 242.663 237.248 240.796 240.281C237.675 245.35 230.75 247.816 225.287 249.211C223.765 249.601 219.258 250.136 218.186 250.583C217.322 250.706 216.37 250.78 215.473 250.9C214.837 250.984 213.249 251.396 212.857 251.43C210.736 251.28 207.534 251.598 205.358 251.776C204.659 254.92 203.26 256.007 203.177 258.734C202.799 258.752 202.365 258.744 201.981 258.746C200.387 258.295 196.39 258.633 194.115 257.736C192.091 256.937 191.726 255.514 190.264 255.289C189.766 254.935 189.269 253.896 188.976 253.337C178.963 254.054 168.952 254.796 158.928 255.358C158.042 255.408 156.939 255.49 156.087 255.677C154.134 255.511 152.187 255.714 150.259 256.041C148.938 255.854 144.881 256.052 143.355 256.099C137.489 255.876 133.611 254.681 128.224 252.693C127.261 252.398 126.024 251.67 125.078 251.223C119.349 248.514 107.84 240.68 111.952 232.874Z" fill="#E87C3B"/>
<path d="M188.976 253.337C194.429 252.673 199.89 252.307 205.357 251.776C204.659 254.92 203.26 256.007 203.177 258.734C202.799 258.752 202.365 258.744 201.981 258.745C200.386 258.295 196.389 258.633 194.115 257.736C192.091 256.937 191.726 255.514 190.264 255.288C189.766 254.935 189.268 253.896 188.976 253.337Z" fill="#593A55"/>
<path d="M207.228 221.756C211.169 223.439 213.536 224.84 217.005 227.397C219.999 230.05 224.543 234.402 220.957 238.582C219.407 240.389 212.974 241.454 210.695 241.252C207.344 241.526 204.773 241.437 201.461 241.25C197.518 241.646 189.381 239.664 185.353 238.734C180.783 237.679 181.136 234.432 181.435 230.516C181.885 228.13 182.43 226.421 183.141 224.1C188.942 226.771 197.353 225.949 203.199 223.79C204.41 223.343 205.836 222.365 207.091 221.815L207.228 221.756Z" fill="#593A55"/>
<path d="M201.461 241.25C203.039 241.038 209.166 241.001 210.695 241.252C207.344 241.526 204.773 241.437 201.461 241.25Z" fill="#2B1911"/>
<path d="M140.365 222.878C145.393 228.009 151.612 229.856 158.736 230.099C159.884 230.137 162.185 229.957 163.187 229.439C164.289 230.299 165.322 231.285 166.368 232.095C169.059 235.41 175.869 243.145 170.52 247.11C167.225 249.552 160.146 248.425 156.364 247.776C150.573 246.681 140.269 243.267 136.269 238.74C135.247 237.583 135.655 234.541 136.006 233.029C136.882 229.406 138.518 226.092 140.365 222.878Z" fill="#593A55"/>
<path d="M150.259 256.04C152.186 255.714 154.133 255.511 156.087 255.677C164.916 259.504 161.599 272.175 152.258 271.613C150.728 271.522 149.546 270.905 148.159 270.303C145.226 269.847 142.992 268.363 141.398 265.892C141.126 265.469 141.069 265.35 140.704 265.007C140.717 264.813 140.724 264.862 140.696 264.679C140.149 261.089 141.332 258.904 143.355 256.099C144.88 256.052 148.937 255.854 150.259 256.04Z" fill="#593A55"/>
<path d="M143.355 256.099C144.88 256.052 148.937 255.854 150.259 256.04C144.653 258.846 143.813 264.776 147.559 269.536C147.757 269.793 147.957 270.049 148.159 270.303C145.226 269.847 142.992 268.363 141.398 265.892C141.126 265.47 141.069 265.35 140.704 265.007C140.717 264.813 140.724 264.862 140.696 264.679C140.149 261.089 141.332 258.904 143.355 256.099Z" fill="#B690B1"/>
<path d="M218.187 250.583C220.816 251.492 221.928 252.244 223.294 254.711C224.221 256.88 224.426 258.665 223.55 260.963C222.692 263.197 220.959 264.982 218.752 265.907C216.737 266.773 214.454 266.788 212.427 265.949C211.7 265.644 211.323 265.372 210.706 264.894C210.709 265.148 210.795 265.333 210.874 265.57C207.861 266.028 203.563 261.78 203.178 258.734C203.26 256.007 204.66 254.92 205.358 251.776C207.535 251.598 210.736 251.28 212.857 251.429C213.249 251.396 214.837 250.984 215.473 250.9C216.37 250.78 217.322 250.706 218.187 250.583Z" fill="#593A55"/>
<path d="M205.358 251.776C207.535 251.598 210.736 251.28 212.857 251.43C210.568 253.002 209.008 254.853 208.527 257.694C207.979 260.938 209.067 262.46 210.706 264.894C210.709 265.148 210.795 265.333 210.874 265.571C207.861 266.028 203.563 261.78 203.178 258.734C203.26 256.007 204.66 254.92 205.358 251.776Z" fill="#B690B1"/>
<path d="M128.223 252.693C133.61 254.681 137.489 255.876 143.355 256.099C141.332 258.904 140.149 261.089 140.697 264.679C140.725 264.862 140.717 264.814 140.704 265.007L140.434 264.975L140.297 264.788C139.191 264.835 137.149 265.015 136.126 264.894C134.933 264.753 133.117 263.903 131.876 263.93C129.828 263.14 128.527 260.949 127.782 259.001C127.195 256.74 127.406 254.861 128.223 252.693Z" fill="#593A55"/>
<path d="M190.264 255.289C191.726 255.514 192.091 256.937 194.114 257.737C196.389 258.633 200.386 258.295 201.981 258.746C200.512 258.978 199.021 259.017 197.543 258.864C194.614 258.559 192.17 257.634 190.264 255.289Z" fill="#27182E"/>
<path d="M131.876 263.93C133.117 263.903 134.933 264.753 136.126 264.894C137.149 265.015 139.191 264.835 140.297 264.788L140.434 264.975C137.575 265.724 134.451 265.419 131.876 263.93Z" fill="#27182E"/>
<path d="M250.112 269.783C250.464 269.761 250.817 269.748 251.169 269.741C259.127 269.64 261.846 279.448 258.372 285.404C256.56 288.515 253.613 290.804 249.989 291.239C243.774 291.984 237.512 292.189 231.278 292.66L184.918 295.907L130.567 299.907L118.079 300.804C114.486 301.076 110.972 301.403 107.366 301.325C101.913 300.661 97.8722 297.034 97.62 291.383C97.4631 288.246 98.5788 285.179 100.714 282.874C104.344 278.913 108.349 279.005 113.312 278.649L122.911 277.992L153.28 275.982L223.072 271.546C232.045 271.001 241.151 270.199 250.112 269.783Z" fill="#FDCB99"/>
<path d="M289.075 258.514C293.921 258.086 297.622 259.885 297.689 265.254C297.789 273.154 298.169 281.253 297.679 289.114C297.55 291.185 294.638 294.682 292.565 295.05C287.236 296.122 280.529 296.26 275.102 296.615C270.132 296.877 266.221 295.4 266.184 289.681C266.13 281.443 265.459 272.996 266.102 264.814C266.223 263.259 268.946 260.258 270.615 259.996C276.589 258.998 282.995 258.837 289.075 258.514Z" fill="#F0816C"/>
<path d="M281.4 271.353C281.523 271.353 281.91 271.369 282.001 271.401C283.525 271.916 288.694 277.543 289.475 278.638C289.164 286.129 284.105 279.727 281.859 277.462C280.653 278.664 276.856 284.097 274.789 282.117C273.512 280.893 274.042 279.249 275.164 278.014C277.176 275.8 279.202 273.417 281.4 271.353Z" fill="#FEE39D"/>
<path d="M77.6227 276.946C80.5477 276.847 79.7955 280.166 79.8278 282.402L79.9387 294.219C79.9696 297.426 80.0808 301.327 80.0845 304.464C80.0913 310.002 71.1755 301.561 69.589 300.348C68.1917 299.224 61.5187 294.394 61.2441 293.324C61.4519 292.556 61.878 291.809 62.449 291.247C66.3341 287.423 70.388 283.764 74.31 279.976C75.3614 278.96 76.4813 277.843 77.6227 276.946Z" fill="#F79349"/>
<path d="M84.7599 91.8287C76.0906 90.0097 67.2332 87.6786 62.3449 79.7267C53.6534 65.5882 62.645 48.5421 75.4793 40.7987C88.8773 32.715 104.086 32.1371 118.923 35.5866C133.603 39.0219 145.209 45.7355 160.685 44.4088C170.879 43.7676 179.559 39.463 188.722 35.2962C200.264 30.0313 212.09 28.3738 224.704 29.2021C240.022 30.2081 262.505 36.7224 258.446 56.5799C256.11 68.0102 243.403 66.9631 240.481 75.9321C237.845 84.0166 249.507 90.8829 254.708 94.7025C270.523 106.336 277.668 122.963 272.971 142.352C271.522 148.176 269.049 153.695 265.67 158.654C265.364 158.395 263.335 157.145 262.778 156.762C267.145 150.476 269.894 143.209 270.777 135.605C272.535 120.843 266.116 107.972 254.641 98.9047C249.574 94.9023 243.996 91.7606 239.896 86.6753C234.582 80.085 236.432 70.999 243.733 66.8376C245.846 65.6175 247.924 64.624 249.895 63.1735C256.355 58.4225 257.561 49.539 252.444 43.31C248.262 38.2193 241.529 35.5942 235.278 34.106C220.537 30.6424 205.073 31.9708 191.136 37.8978C178.724 43.1002 171.787 47.6499 157.402 47.9569C139.911 48.3302 126.714 39.0352 109.567 37.3546C96.9815 36.121 83.813 38.079 73.6951 46.2342C67.6131 51.1365 63.1613 58.1259 62.3702 65.9694C61.8379 70.8893 63.3153 75.8157 66.467 79.6307C71.423 85.5485 80.3403 88.0756 87.7513 88.7769C88.9449 87.4348 90.2143 86.1624 91.5534 84.9654C98.6212 78.6767 113.052 69.6756 122.79 69.9569C130.909 70.1914 129.357 79.5479 124.043 83.6984C113.921 91.6036 101.158 93.4154 88.7588 92.3835C77.4053 104.039 73.1653 122.623 82.626 136.668C83.148 137.443 83.6821 138.235 84.299 138.937C85.4079 141.724 91.567 146.872 94.1696 148.505C93.6759 149.357 93.3475 149.8 93.2452 150.797C93.0652 150.883 92.6901 151.048 92.5383 151.144L91.872 150.811C86.7465 147.015 85.4031 145.27 81.3658 140.736C75.6901 133.33 73.143 123.995 74.2708 114.734C75.4016 105.656 79.2474 98.8859 84.7599 91.8287ZM91.7152 89.234C93.2748 89.2523 94.9847 89.3078 96.531 89.2389C105.219 89.1677 116.162 86.5032 122.556 80.4469C124.562 78.5476 126.788 75.4345 123.781 73.3505C122.474 73.2267 121.88 73.1543 120.585 73.277C110.893 74.6012 99.0386 82.8209 91.7152 89.234Z" fill="#593A55"/>
<path d="M200.704 166.658C199.429 158.48 202.607 153.837 208.146 148.236C216.818 154.701 229.128 158.544 239.865 158.553C243.694 158.557 249.133 158.344 252.825 159.298C254.111 158.092 255.63 154.64 257.517 154.27C259.154 153.95 261.437 155.807 262.778 156.762C263.334 157.145 265.363 158.395 265.669 158.654C270.141 161.693 271.522 162.481 267.688 167.686C266.384 169.455 265.096 171.279 263.659 172.977C267.831 179.061 263.525 183.335 257.103 181.806C256.008 183.367 255.564 184.691 253.49 184.323L250.45 182.546C249.082 181.591 247.626 180.657 246.229 179.735C245.272 179.103 244.037 178.213 242.972 177.876C242.67 178.383 241.839 179.759 241.393 180.073C240.266 180.194 236.969 179.93 235.698 179.813C224.51 178.78 209.541 173.758 200.704 166.658Z" fill="#C7A7CA"/>
<path d="M252.825 159.298C254.111 158.092 255.63 154.639 257.517 154.27C259.154 153.95 261.437 155.807 262.778 156.762C263.334 157.145 265.363 158.395 265.669 158.654C270.141 161.693 271.522 162.481 267.688 167.685C266.384 169.455 265.096 171.279 263.659 172.977C267.831 179.06 263.525 183.335 257.103 181.806C256.008 183.367 255.564 184.691 253.49 184.323L250.45 182.546C249.082 181.591 247.626 180.657 246.229 179.735C245.272 179.102 244.037 178.213 242.972 177.876C242.315 177.366 241.647 176.685 241.903 175.777C242.187 174.767 243.765 172.933 244.618 172.424C245.994 172.195 247.767 172.967 249.099 173.524C251.671 174.599 255.986 175.121 256.957 171.588C258.109 167.398 252.075 165.795 249.054 164.939C249.861 163.643 252.491 160.384 252.825 159.298Z" fill="#F79349"/>
<path d="M263.659 172.977C267.831 179.061 263.525 183.335 257.104 181.806C257.381 181.36 258.453 180.038 258.855 179.471C260.407 177.276 261.99 175.085 263.659 172.977Z" fill="#D1B2D4"/>
<path d="M115.307 101.412C121.237 97.6548 125.344 94.3929 132.551 96.851C136.712 97.4018 140.816 98.1198 145.02 98.5921C146.89 98.8022 153.19 99.5757 154.7 100.064C153.9 104.403 153.182 108.89 152.958 113.295C152.832 118.846 153.266 124.306 153.135 129.842C150.567 129.715 146.322 128.88 143.658 128.535C137.751 127.772 131.445 126.516 125.573 125.827C120.14 124.845 117.085 122.14 112.859 118.544C110.063 116.8 104.466 113.664 102.566 110.981C100.599 108.201 105.715 106.267 107.666 105.272C110.197 103.954 112.745 102.668 115.307 101.412Z" fill="#F0816C"/>
<path d="M132.552 96.8511C136.713 97.4018 140.816 98.1198 145.02 98.5922C146.89 98.8023 153.191 99.5758 154.701 100.065C153.901 104.403 153.182 108.89 152.958 113.295C152.832 118.846 153.266 124.306 153.135 129.842C150.567 129.715 146.323 128.88 143.658 128.535C137.751 127.772 131.445 126.516 125.573 125.827C126.44 125.23 128.745 124.453 129.921 123.652C134.091 120.812 135.115 114.91 136.12 110.415C136.839 106.896 136.537 102.858 134.773 99.6791C134.254 98.7444 133.182 97.8564 132.552 96.8511Z" fill="#E87C3B"/>
<path d="M132.553 96.8511C136.714 97.4018 140.817 98.1198 145.021 98.5922C146.891 98.8023 153.192 99.5758 154.702 100.065C153.902 104.403 153.183 108.89 152.959 113.295C151.462 113.502 138.371 110.851 136.121 110.415C136.84 106.896 136.538 102.858 134.774 99.6791C134.255 98.7444 133.183 97.8564 132.553 96.8511Z" fill="#F79349"/>
<path d="M112.859 118.545C110.063 116.8 104.466 113.664 102.566 110.981C100.599 108.201 105.715 106.267 107.666 105.272C110.197 103.955 112.745 102.668 115.307 101.412C117.561 108.15 116.87 112.636 112.859 118.545Z" fill="#593A55"/>
<path d="M228.132 96.5194C230.883 95.975 233.741 95.3105 236.337 96.9576C239.082 98.6988 240.236 103.581 240.739 106.616C241.357 110.341 242.571 115.688 240.297 119.029C238.7 121.375 235.459 121.529 233.23 122.38C227.991 123.571 222.736 124.686 217.464 125.724C215.817 126.054 211.904 126.92 210.479 126.964C207.044 121.873 204.248 118.58 202.621 112.602C201.913 109.876 202.118 104.879 202.616 102.098L228.132 96.5194Z" fill="#E87C3B"/>
<path d="M228.131 96.5194C230.882 95.975 233.74 95.3105 236.335 96.9576C239.081 98.6988 240.235 103.581 240.738 106.616C241.355 110.341 242.57 115.688 240.296 119.029C238.699 121.375 235.457 121.529 233.228 122.38C232.931 122.1 231.376 120.966 230.892 120.616C227.694 118.301 226.254 113.198 225.848 109.382C225.487 106.582 225.574 103.741 226.111 100.968C226.488 98.9397 228.202 97.2105 228.131 96.5194Z" fill="#F0816C"/>
<path d="M202.616 102.098L228.132 96.519C228.203 97.2101 226.489 98.9393 226.112 100.968C225.575 103.74 225.488 106.581 225.85 109.382C223.378 109.966 204.345 113.922 203.36 113.294C203.094 113.124 202.841 112.829 202.621 112.601C201.913 109.875 202.118 104.879 202.616 102.098Z" fill="#F79349"/>
<path d="M242.972 177.876C244.037 178.213 245.272 179.103 246.229 179.735C245.353 181.453 239.135 189.642 238.035 189.814C231.736 190.793 240.95 180.682 241.393 180.073C241.838 179.759 242.669 178.383 242.972 177.876Z" fill="#593A55"/>
<path d="M250.45 182.546L253.49 184.323C253.478 184.368 253.468 184.415 253.453 184.461C252.972 185.807 246.921 194.475 245.849 194.812C245.41 194.948 244.488 194.807 244.111 194.543C243.802 194.326 243.679 194.035 243.615 193.676C243.264 191.718 248.98 184.651 250.45 182.546Z" fill="#593A55"/>
</svg>
