<svg width="350" height="350" viewBox="0 0 350 350" fill="none" xmlns="http://www.w3.org/2000/svg">
<path d="M144.43 48.8846C145.246 48.0598 146.796 45.7119 147.713 44.5952C152.906 38.2725 159.899 33.4323 168.273 32.8992C174.371 32.5828 181.402 35.2113 185.884 39.485C192.718 45.9995 194.972 53.4602 195.37 62.6703C195.502 65.7383 194.92 68.1399 194.665 71.0228C205.834 78.422 216.257 84.7187 229.816 86.0559C230.712 86.1442 232.226 86.2759 233.066 86.4864C233.454 86.3908 235.691 84.9966 236.253 84.6716C238.23 83.5275 239.581 82.9063 241.798 82.3436C240.014 79.2544 237.01 73.959 237.938 70.2934C238.395 68.526 239.531 67.0111 241.101 66.0809C242.59 65.2051 244.548 65.0044 246.182 65.5265C249.119 66.4656 249.983 68.5199 251.512 70.6555C253.355 68.7494 254.958 67.4294 257.77 67.3884C261.431 67.3429 263.996 69.8671 263.869 73.5548C263.746 77.136 261.366 79.3488 259.113 81.822C258.364 82.6423 257.392 83.9241 256.518 84.5438C262.08 87.6572 258.61 90.4945 256.619 94.1392C258.35 94.4518 260.105 95.0308 261.785 95.5681C272.676 98.9762 282.14 105.88 288.709 115.211C296.874 126.964 299.456 140.839 296.902 154.768C294.405 168.898 286.702 180.314 284.359 194.586C282.44 206.275 284.174 213.809 286.529 225.124C289.085 237.395 286.969 254.679 276.634 262.962C276.524 263.028 276.413 263.094 276.303 263.16C276.159 267.114 276.249 271.574 276.249 275.571L276.261 296.73C276.272 300.947 276.44 305.933 276.111 310.108C275.979 311.774 274.809 314.223 273.542 315.358C269.957 318.571 268.533 318.479 264.113 318.501L136.809 318.502L95.8867 318.499L83.5318 318.513C78.8973 318.516 73.8975 319.255 70.4136 315.634C66.8507 311.93 67.4925 307.012 67.5319 302.326L67.5456 291.124L67.476 243.226C66.9385 242.896 66.4091 242.555 65.8882 242.201C61.6884 239.321 58.0531 235.299 55.368 231.003C45.4104 215.071 47.0464 196.816 52.846 179.765C55.6251 171.593 60.0099 164.26 61.0725 155.799C62.0961 147.648 59.2739 139.351 57.9325 131.367C56.6946 123.809 55.9681 115.581 56.5955 107.926C58.2487 87.853 68.185 68.4269 84.8151 56.7949C101.015 45.4638 122.046 42.8363 140.972 47.6668C142.031 47.937 143.552 48.2708 144.43 48.8846Z" fill="#FEE396"/>
<path d="M144.43 48.8846C145.246 48.0598 146.796 45.7119 147.713 44.5952C152.906 38.2725 159.899 33.4323 168.273 32.8992C174.371 32.5828 181.402 35.2113 185.884 39.485C192.718 45.9995 194.972 53.4602 195.37 62.6703C195.502 65.7383 194.92 68.1399 194.665 71.0228C205.834 78.422 216.257 84.7186 229.816 86.0559C230.712 86.1442 232.226 86.2759 233.066 86.4864C232.524 87.237 231.285 88.0917 230.494 88.6804C224.804 92.9227 219.998 98.0981 214.574 102.656C211.691 105.08 208.967 106.15 205.203 105.38C207.199 110.819 205.252 121.891 203.449 127.409C202.814 129.354 201.548 131.515 200.933 133.518C201.856 134.727 203.346 135.601 203.915 136.381C203.947 136.927 204.256 137.223 204.59 137.677C207.054 139.752 209.13 143.687 209.885 146.768C211.607 153.811 209.287 161.791 206.362 168.164C205.88 169.056 205.576 169.716 205.172 170.645C203.413 174.452 201.565 178.175 199.629 181.896C198.078 184.874 196.153 188.054 195.123 191.24C194.735 192.439 194.41 194.033 194.872 195.249C196.021 198.274 202.148 199.348 203.076 205.17C203.266 206.364 203.194 207.733 202.747 208.865C202.179 210.303 201.103 211.222 199.742 211.884C197.109 212.881 194.938 212.879 192.148 212.436C187.855 213.553 177.886 209.753 173.775 207.839C173.684 208.68 173.607 209.815 173.397 210.612C173.198 211.073 172.967 211.651 172.736 212.082C172.535 212.663 172.433 212.955 172.161 213.502C170.046 214.908 168.964 215.385 166.359 215.424C164.712 215.447 162.662 215.244 161.09 214.71C157.46 213.362 153.429 211.784 149.916 210.159C145.766 208.238 136.915 205.069 133.787 202.292C129.95 197.766 136.169 188.992 138.185 185.085C141.477 178.706 144.792 172.627 144.921 165.548C138.334 168.163 125.139 168.181 118.079 168.214L102.032 168.196C100.478 168.189 92.51 168.327 91.4485 167.896C88.8758 167.747 85.92 167.939 83.4369 167.814C75.2032 167.396 68.0642 168.725 67.7074 178.643C67.5001 184.405 67.57 190.436 67.5661 196.324L67.5499 226.354L67.553 237.105C67.5538 238.799 67.6207 241.581 67.476 243.226C66.9385 242.896 66.4091 242.555 65.8882 242.201C61.6884 239.321 58.0531 235.299 55.368 231.003C45.4104 215.071 47.0464 196.816 52.846 179.765C55.6251 171.593 60.0099 164.26 61.0725 155.799C62.0961 147.648 59.2739 139.351 57.9325 131.367C56.6946 123.809 55.9681 115.581 56.5955 107.926C58.2487 87.853 68.185 68.4269 84.8151 56.7949C101.015 45.4638 122.046 42.8363 140.972 47.6668C142.031 47.937 143.552 48.2708 144.43 48.8846Z" fill="#FEA833"/>
<path d="M67.476 243.226C66.9385 242.896 66.4091 242.555 65.8882 242.201C61.6884 239.32 58.0531 235.299 55.368 231.002C45.4104 215.071 47.0464 196.816 52.846 179.765C55.6251 171.593 60.0099 164.26 61.0725 155.799C62.0961 147.648 59.2739 139.35 57.9325 131.367C56.6946 123.809 55.9681 115.581 56.5955 107.926C58.2487 87.8529 68.185 68.4268 84.8151 56.7948C101.015 45.4637 122.046 42.8362 140.972 47.6667C142.031 47.9369 143.552 48.2707 144.43 48.8845C144.226 49.78 143.157 50.9298 142.643 51.6801C140.511 54.7939 137.413 58.084 134.143 60.0501C126.278 64.7781 118.982 66.7641 111.54 72.5297C102.623 79.4377 100.252 86.1549 94.5411 95.2608C93.1576 97.4671 90.1501 100.81 88.5032 103.035C83.0135 110.343 78.4747 117.997 76.3395 126.97C74.5273 134.586 74.4129 141.892 76.9156 149.379C77.3671 150.73 78.186 153.05 78.972 154.236C81.0385 158.977 83.813 162.526 88.0603 165.562C88.7396 166.047 91.1442 167.383 91.5001 167.813L91.4485 167.896C88.8758 167.747 85.92 167.939 83.4369 167.813C75.2032 167.396 68.0642 168.724 67.7074 178.643C67.5001 184.405 67.57 190.436 67.5661 196.324L67.5499 226.353L67.553 237.105C67.5538 238.799 67.6207 241.581 67.476 243.226Z" fill="#FEE396"/>
<path d="M180.851 170.949C182.22 167.59 184.121 163.17 184.739 159.611C185.687 154.153 184.942 150.262 189.198 145.982C191.99 143.092 194.55 139.649 197.733 137.205C200.128 135.368 202.371 137.282 204.59 137.677C207.054 139.752 209.13 143.687 209.885 146.768C211.607 153.81 209.287 161.791 206.362 168.164C205.881 169.056 205.576 169.716 205.173 170.645C203.413 174.452 201.566 178.175 199.629 181.896C198.078 184.874 196.153 188.054 195.123 191.24C194.735 192.439 194.411 194.033 194.872 195.249C196.021 198.274 202.148 199.348 203.076 205.17C203.266 206.364 203.194 207.733 202.747 208.865C202.179 210.303 201.103 211.222 199.743 211.884C198.665 211.643 197.847 211.658 196.567 211.308C192.126 210.087 188.715 208.121 184.787 205.879C183.739 204.564 181.43 202.746 180.056 201.469C172.727 194.656 177.171 185.388 179.163 177.261C179.579 175.561 180.903 172.75 180.851 170.949Z" fill="#FEA833"/>
<path d="M132.935 115.521C133.868 116.876 135.307 118.396 136.403 119.665C140.71 124.649 144.58 129.109 151.455 130.125C157.147 130.966 163.38 131.357 168.73 133.506C170.583 134.257 172.374 135.149 174.09 136.175C175.885 137.256 179.198 140.09 181.153 140.245C184.95 140.545 188.021 139.101 190.881 136.774C199.879 129.453 203.191 117.192 204.336 106.114C204.407 105.424 204.395 105.328 204.829 104.986L205.204 105.38C207.199 110.819 205.252 121.89 203.449 127.409C202.814 129.353 201.548 131.515 200.934 133.518C201.856 134.726 203.346 135.601 203.915 136.381C203.947 136.927 204.256 137.222 204.59 137.677C202.371 137.282 200.128 135.368 197.733 137.205C194.55 139.648 191.99 143.092 189.198 145.982C184.942 150.262 185.687 154.152 184.739 159.611C184.121 163.17 182.22 167.589 180.85 170.949C180.903 172.75 179.579 175.56 179.163 177.261C177.171 185.388 172.727 194.656 180.055 201.469C181.43 202.746 183.739 204.564 184.787 205.879C188.715 208.121 192.126 210.087 196.567 211.307C197.847 211.658 198.665 211.643 199.743 211.884C197.109 212.88 194.938 212.879 192.148 212.436C187.855 213.553 177.886 209.753 173.775 207.839C173.685 208.68 173.607 209.815 173.397 210.612C173.208 209.523 173.076 209.158 172.509 208.211C172.635 205.5 166.726 200.407 164.863 198.426C161.144 194.468 164.787 190.305 166.873 186.517C172.382 176.509 180.431 166.567 181.52 154.853C181.945 150.263 180.973 146.003 177.818 142.587C171.331 135.341 163.694 134.011 154.534 133.276C148.044 132.546 141.921 133.184 135.482 133.999C130.394 134.643 123.51 136.593 118.476 136.155C119.306 133.783 137.13 131.616 138.955 130.078C139.73 126.845 132.27 121.297 132.935 115.521Z" fill="#A14025"/>
<path d="M180.851 170.949C180.904 172.75 179.579 175.561 179.163 177.261C177.171 185.388 172.727 194.656 180.056 201.469C181.43 202.746 183.739 204.564 184.787 205.879C183.11 205.465 179.436 203.485 177.676 202.719C176.393 202.111 175.008 201.583 173.755 200.931C167.943 197.991 169.881 191.138 172.39 186.621C175.269 181.442 178.103 176.233 180.851 170.949Z" fill="#FA6F31"/>
<path d="M173.393 204.14C175.059 204.704 176.524 205.519 178.114 206.241C182.638 208.294 187.398 211.048 192.148 212.436C187.855 213.553 177.886 209.753 173.775 207.839C173.653 206.623 173.548 205.347 173.393 204.14Z" fill="#FEA833"/>
<path d="M194.665 71.0227C205.834 78.422 216.258 84.7186 229.816 86.0558C230.712 86.1442 232.226 86.2758 233.066 86.4864C232.524 87.237 231.285 88.0916 230.495 88.6804C224.804 92.9226 219.998 98.0981 214.574 102.656C211.691 105.08 208.967 106.15 205.204 105.38L204.829 104.986C204.881 103.986 203.744 97.0883 203.401 96.0192C201.302 89.4897 199.334 86.8648 193.583 83.696C193.147 83.2236 192.707 82.7542 192.265 82.288C192.58 80.1689 194.007 72.8633 194.665 71.0227Z" fill="#FEE396"/>
<path d="M173.003 97.5618C164.025 90.3053 179.818 75.6897 192.265 82.2879C192.707 82.7542 193.147 83.2236 193.583 83.6959C193.532 83.7211 193.483 83.7537 193.431 83.7717C192.508 84.0804 190.122 83.2535 189.071 83.0953C186.906 82.7694 184.425 82.73 182.282 83.2223C179.309 83.906 175.795 86.2525 174.203 88.8788C173.567 89.9283 173.113 91.1798 173.444 92.4088C173.695 93.3435 174.259 94.1379 175.107 94.6172C178.369 96.4622 185.038 93.7129 186.53 98.1031C187.667 101.448 185.706 106.591 184.175 109.543C182.785 112.224 180.26 116.132 177.191 117.063C175.563 117.555 173.792 117.048 172.36 116.233C167.394 113.404 154.781 98.6464 153.422 93.3275C153.244 92.6321 153.325 92.0003 153.657 91.3742C153.972 91.1466 154.072 91.0346 154.486 91.1315C156.095 91.5084 165.648 104.866 167.375 107C168.684 108.617 170.051 110.161 171.574 111.582C172.939 110.623 173.987 109.278 174.584 107.72C176.088 103.747 174.551 101.007 173.003 97.5618Z" fill="#A14025"/>
<path d="M173.003 97.5618C174.649 98.1341 174.798 98.1203 176.268 98.4097C177.481 98.7597 182.634 98.2499 182.96 99.7421C183.467 102.058 182.283 106.079 181.145 108.152C178.383 113.182 176.649 116.893 171.574 111.582C172.939 110.623 173.987 109.278 174.583 107.72C176.088 103.747 174.551 101.007 173.003 97.5618Z" fill="#FA6F31"/>
<path d="M118.476 136.156C117.343 135.703 114.517 135.888 113.58 134.686C110.619 130.892 115.436 125.66 117.511 123.118C118.773 121.587 119.897 119.947 120.869 118.216C121.564 116.95 122.169 115.635 122.678 114.282C123.401 112.325 124.112 108.82 125.453 107.462C127.88 106.569 131.983 113.789 132.936 115.521C132.271 121.297 139.731 126.845 138.956 130.078C137.131 131.616 119.306 133.783 118.476 136.156Z" fill="#FA6F31"/>
<path d="M78.9727 154.236C79.9293 154.815 81.4327 156.286 82.3463 157.061C85.089 159.386 87.8445 161.12 91.1318 162.62C98.5438 165.915 106.639 167.381 114.736 166.893C123.849 166.323 133.237 162.918 142.477 162.795C142.95 162.789 143.811 163.17 144.275 163.364C144.703 164.29 144.81 164.54 144.922 165.548C138.334 168.163 125.139 168.181 118.079 168.214L102.032 168.196C100.478 168.189 92.5106 168.326 91.4492 167.896L91.5007 167.813C91.1449 167.383 88.7403 166.047 88.061 165.562C83.8136 162.526 81.0392 158.977 78.9727 154.236Z" fill="#FA6F31"/>
<path d="M186.175 66.9792C186.903 66.8999 187.087 66.8371 187.78 67.0099C189.498 68.1801 188.715 71.8636 188.183 73.5714C187.659 75.2452 186.83 76.1857 185.268 76.8997C183.342 76.8201 182.703 75.2848 182.852 73.5333C183.08 70.9967 184.271 68.6476 186.175 66.9792Z" fill="#A14025"/>
<path d="M174.989 64.0336C181.74 63.356 178.969 73.1342 174.01 74.8461C167.743 76.3002 169.402 67.0475 174.989 64.0336Z" fill="#A14025"/>
<path d="M173.989 57.1884C175.604 57.1569 178.894 57.5084 179.753 59.0238C180.327 60.0366 179.793 60.9977 178.725 61.3929C177.149 61.4019 171.677 61.1057 172.623 58.2893C172.787 57.7969 173.542 57.408 173.989 57.1884Z" fill="#A14025"/>
<path d="M187.537 60.7419C189.68 60.5512 195.514 62.1836 192.063 64.548C190.126 64.737 184.405 63.3959 187.537 60.7419Z" fill="#A14025"/>
<path d="M241.798 82.3434C240.014 79.2543 237.01 73.9588 237.938 70.2933C238.395 68.5258 239.531 67.011 241.101 66.0807C242.59 65.205 244.548 65.0042 246.182 65.5264C249.12 66.4655 249.983 68.5198 251.512 70.6554C253.355 68.7492 254.958 67.4293 257.77 67.3883C261.431 67.3428 263.996 69.8669 263.869 73.5546C263.746 77.1359 261.366 79.3487 259.113 81.8219C258.365 82.6422 257.393 83.924 256.518 84.5437C262.08 87.657 258.61 90.4944 256.619 94.1391C258.351 94.4517 260.105 95.0307 261.785 95.5679C272.676 98.976 282.14 105.88 288.71 115.211C296.874 126.964 299.456 140.839 296.902 154.767C294.405 168.898 286.702 180.313 284.359 194.586C282.44 206.275 284.174 213.809 286.53 225.124C289.085 237.395 286.969 254.678 276.634 262.962C276.524 263.028 276.414 263.094 276.303 263.16C276.12 261.046 276.226 257.498 276.226 255.244L276.232 240.949C276.286 225.835 276.241 210.719 276.098 195.605L276.05 184.257C276.046 179.601 276.633 174.831 273.061 171.244C269.372 167.537 264.223 168.157 259.399 168.161L247.669 168.175L206.362 168.164C209.287 161.791 211.607 153.81 209.885 146.768C209.13 143.687 207.054 139.751 204.59 137.677C204.256 137.223 203.947 136.927 203.915 136.381C203.347 135.601 201.856 134.726 200.934 133.518C201.548 131.515 202.814 129.353 203.449 127.409C205.252 121.89 207.199 110.819 205.204 105.38C208.967 106.15 211.691 105.08 214.574 102.656C219.998 98.0979 224.804 92.9225 230.495 88.6803C231.285 88.0915 232.524 87.2369 233.066 86.4863C233.454 86.3906 235.692 84.9964 236.254 84.6714C238.23 83.5274 239.581 82.9061 241.798 82.3434Z" fill="#FEE396"/>
<path d="M241.798 82.3434C240.014 79.2543 237.01 73.9588 237.938 70.2933C238.395 68.5258 239.531 67.011 241.101 66.0807C242.59 65.205 244.548 65.0042 246.182 65.5264C249.12 66.4655 249.983 68.5198 251.512 70.6554C253.355 68.7492 254.958 67.4293 257.77 67.3883C261.431 67.3428 263.996 69.8669 263.869 73.5546C263.746 77.1359 261.366 79.3487 259.113 81.8219C258.365 82.6422 257.393 83.924 256.518 84.5437C262.08 87.657 258.61 90.4944 256.619 94.1391C255.276 95.3331 253.987 96.4822 252.593 97.6188L253.237 98.7406C253.944 99.8803 254.357 101.266 254.071 102.604C253.831 103.692 253.329 104.705 252.609 105.556C249.705 109.033 243.632 113.389 240.028 116.238C233.636 121.291 227.15 126.285 220.248 130.63C214.713 134.116 210.161 135.126 203.915 136.381C203.347 135.601 201.856 134.726 200.934 133.518C201.548 131.515 202.814 129.353 203.449 127.409C205.252 121.89 207.199 110.819 205.204 105.38C208.967 106.15 211.691 105.08 214.574 102.656C219.998 98.0979 224.804 92.9225 230.495 88.6803C231.285 88.0915 232.524 87.2369 233.066 86.4863C233.454 86.3906 235.692 84.9964 236.254 84.6714C238.23 83.5274 239.581 82.9061 241.798 82.3434Z" fill="#FEA833"/>
<path d="M236.953 77.4094C233.878 72.0972 228.7 62.991 230.3 56.6877C231.087 53.6483 233.046 51.0433 235.751 49.4436C238.318 47.9377 241.693 47.5924 244.508 48.4904C249.571 50.1053 251.059 53.6379 253.695 57.3103C256.872 54.0325 259.634 51.7626 264.48 51.6921C270.791 51.6139 275.212 55.9545 274.992 62.296C274.781 68.4544 270.678 72.2596 266.795 76.5125C265.505 77.9232 263.83 80.1273 262.323 81.193C261.528 81.7831 259.973 83.0917 259.286 83.8148C256.99 86.498 254.212 88.785 252.162 91.2238L251.637 90.8372C250.497 91.6732 249.582 92.263 248.399 93C245.177 89.955 241.238 82.9662 238.109 79.2147L236.953 77.4094Z" fill="#FB775C"/>
<path d="M254.756 86.0684C253.424 87.6287 251.812 88.9586 250.623 90.3769L250.318 90.1521C251.62 89.0259 253.385 86.9404 254.756 86.0684Z" fill="#450706"/>
<path d="M242.469 83.3933C244.285 85.5749 246.57 89.639 248.44 91.4098C249.126 90.9812 249.657 90.6382 250.318 90.1521L250.623 90.3769C251.812 88.9586 253.424 87.6287 254.756 86.0684C255.155 85.6479 256.057 84.8869 256.519 84.5437C262.08 87.6571 258.61 90.4944 256.619 94.1392C255.276 95.3332 253.988 96.4822 252.593 97.6188L253.238 98.7407C250.618 99.6902 248.817 98.8031 246.834 97.1213C244.589 98.9407 238.696 101.937 243.089 104.653C244.646 104.608 247.561 103.397 248.631 104.472C248.452 106.564 244.255 107.404 242.521 107.157C239.747 106.772 237.895 104.27 238.465 101.483C239.378 97.0223 245.114 96.6384 245.682 92.3197C245.764 91.6972 245.721 91.3723 245.337 90.8873C243.193 90.1376 238.619 95.7183 236.529 95.489C234.715 93.6553 242.282 89.02 243.199 87.7428C243.682 87.072 242.687 84.1122 242.469 83.3933Z" fill="#A14025"/>
<path d="M254.165 86.4783C254.622 86.1219 255.627 85.5038 256.135 85.2331C261.171 89.1401 257.317 91.4289 254.805 94.7366C253.299 95.7173 251.854 96.6615 250.306 97.5778C249.423 96.722 246.254 95.4552 246.423 94.1215C246.592 92.7917 248.422 91.0083 249.436 90.1231C250.823 88.8978 252.615 87.8228 254.165 86.4783Z" fill="#FEA833"/>
<path d="M91.4488 167.896C92.5102 168.327 100.478 168.189 102.032 168.196L118.079 168.214C125.139 168.181 138.334 168.163 144.922 165.548C144.793 172.627 141.477 178.706 138.185 185.085C136.169 188.992 129.95 197.766 133.787 202.292C136.915 205.069 145.767 208.238 149.917 210.159C153.429 211.784 157.46 213.362 161.09 214.71C162.662 215.244 164.712 215.447 166.359 215.424C168.964 215.385 170.046 214.908 172.161 213.502C171.933 214.179 171.537 214.981 171.034 215.48C165.174 221.303 154.341 215.008 148.161 212.775C143.468 210.005 136.032 208.008 131.826 204.58C129.641 202.799 129.633 200.182 129.614 197.599C130.06 195.833 130.368 194.62 131.008 192.906C130.773 191.127 131.022 188.506 130.858 186.669C130.557 183.285 130.462 179.534 130.001 176.2C129.83 174.964 129.03 172.235 128.693 170.966C123.817 170.596 118.619 170.652 113.719 170.651L94.8193 170.652L83.2569 170.621C81.2299 170.612 78.5128 170.454 76.5475 170.724C69.1094 171.744 70.335 180.185 70.3358 185.507C70.3446 189.84 70.3294 194.172 70.2898 198.504C70.0499 217.528 69.9628 236.555 70.0286 255.582L70.0285 289.365L70.0221 300.158C70.0212 304.048 69.4754 310.24 72.3015 313.364C73.7796 314.999 76.289 315.609 78.456 315.625C88.9167 315.704 99.3891 315.619 109.852 315.717C143.085 316.083 176.321 316.122 209.554 315.831L248.851 315.704C252.376 315.69 255.902 315.693 259.428 315.715C261.717 315.729 264.698 315.825 266.956 315.609C268.554 315.451 270.05 314.759 271.207 313.644C273.605 311.305 273.605 308.125 273.653 304.956C273.777 296.725 273.743 288.465 273.748 280.23C273.796 260.307 273.699 240.383 273.459 220.461L273.407 192.152C273.404 188.723 273.588 180.767 273.224 177.641C273.043 175.947 272.294 174.362 271.103 173.145C268.561 170.596 264.717 170.944 261.42 170.924C258.893 170.911 256.365 170.875 253.838 170.815C237.96 170.389 221.128 170.644 205.173 170.645C205.576 169.716 205.881 169.056 206.362 168.164L247.669 168.175L259.399 168.161C264.223 168.157 269.372 167.538 273.061 171.244C276.633 174.831 276.046 179.601 276.05 184.257L276.098 195.605C276.241 210.719 276.286 225.835 276.232 240.949L276.226 255.244C276.226 257.498 276.12 261.046 276.303 263.16C276.159 267.114 276.249 271.574 276.249 275.571L276.261 296.73C276.272 300.947 276.44 305.933 276.111 310.108C275.979 311.774 274.81 314.223 273.543 315.358C269.957 318.57 268.533 318.479 264.113 318.501L136.809 318.502L95.8869 318.499L83.532 318.513C78.8976 318.516 73.8977 319.255 70.4139 315.634C66.851 311.929 67.4927 307.012 67.5322 302.326L67.5458 291.124L67.4763 243.226C67.621 241.581 67.5541 238.799 67.5533 237.105L67.5502 226.354L67.5663 196.324C67.5702 190.436 67.5003 184.405 67.7076 178.643C68.0644 168.724 75.2034 167.396 83.4371 167.814C85.9203 167.939 88.876 167.747 91.4488 167.896Z" fill="#A14025"/>
<path d="M128.693 170.966C132.76 171.043 136.892 171.252 140.942 171.28C139.642 177.298 136.286 182.897 133.439 188.302C133.043 189.054 131.384 192.414 131.008 192.906C130.773 191.127 131.022 188.506 130.858 186.669C130.557 183.285 130.463 179.534 130.002 176.2C129.831 174.964 129.031 172.235 128.693 170.966Z" fill="#FEA833"/>
<path d="M148.161 212.775C147.444 212.828 146.314 212.621 145.527 212.297C140.28 210.138 131.662 209.576 128.796 204.048C127.789 202.106 128.824 199.39 129.614 197.598C129.633 200.182 129.641 202.798 131.826 204.579C136.032 208.008 143.468 210.005 148.161 212.775Z" fill="#FEA833"/>
<path d="M88.2964 218.528C91.9066 218.391 96.0687 218.484 99.7231 218.487L119.908 218.495L134.481 218.481C137.15 218.48 139.83 218.425 142.487 218.56C144.714 218.674 146.659 219.921 146.994 222.24C147.358 224.764 147.22 227.445 147.218 230.001L147.204 243.496L147.211 264.942C147.211 268.661 147.252 272.384 147.152 276.102C147.074 279.043 145.815 280.664 142.897 281.201L106.676 281.206L94.8776 281.22C90.7761 281.235 84.0756 282.39 83.5348 276.774C83.277 274.097 83.3363 271.448 83.3352 268.762L83.3329 255.123L83.3551 234.529C83.3581 231.971 83.3604 229.363 83.3685 226.812C83.3817 222.556 83.0856 219.227 88.2964 218.528Z" fill="#FA6F31"/>
<path d="M86.1842 222.759C87.0174 223.225 112.34 248.347 113.629 250.093C109.676 254.489 104.384 259.52 100.145 263.761C98.5688 265.315 87.2776 276.9 86.4244 277.064C85.5702 276.095 85.871 265.035 85.8696 263.066L85.8733 241.28L85.8658 230.538C85.8632 228.405 85.7777 224.782 86.1842 222.759Z" fill="#FEA833"/>
<path d="M88.6299 221.028C91.8277 220.816 96.206 220.955 99.5077 220.956H119.693L133.922 220.948C136.171 220.948 140.116 220.835 142.222 221.127C140.987 223.147 137.649 226.226 135.844 228.015C133.53 230.315 131.229 232.627 128.942 234.953C124.522 239.431 120.052 243.861 115.535 248.241C109.248 242.145 103.002 236.007 96.798 229.827C95.472 228.504 88.714 222.049 88.6299 221.028Z" fill="#FEA833"/>
<path d="M144.276 222.964C144.733 223.469 144.57 229.765 144.57 231.001L144.573 243.87C144.574 254.784 144.711 266.054 144.528 276.943C141.634 274.751 139.479 272.266 136.976 269.673C134.992 267.656 132.994 265.656 130.98 263.67L123.2 255.905C121.305 254.031 118.978 251.863 117.252 249.885L130.6 236.519C134.738 232.299 139.982 226.841 144.276 222.964Z" fill="#FEA833"/>
<path d="M115.433 251.961C116.067 252.138 140.106 276.397 142.267 278.676C134.043 278.963 124.513 278.737 116.19 278.735L98.9004 278.737C95.7356 278.735 91.9531 278.827 88.8379 278.648C89.7163 277.275 92.0781 275.061 93.3208 273.822L100.452 266.709L109.737 257.411C111.314 255.832 113.749 253.247 115.433 251.961Z" fill="#FEA833"/>
<path d="M220.423 291.821C222.24 291.683 225.089 291.764 227.002 291.766L238.726 291.767L249.037 291.772C254.565 291.778 261.237 291.039 262.183 298.588C262.751 303.119 259.714 306.173 255.315 306.667L231.148 306.68C228.521 306.68 221.431 306.829 219.197 306.515C218.009 306.343 216.883 305.872 215.925 305.149C214.313 303.937 213.247 302.139 212.956 300.146C212.548 297.223 214.306 293.941 216.959 292.725C218.172 292.169 219.119 291.983 220.423 291.821Z" fill="#FA6F31"/>
<path d="M84.4563 292.419C91.6187 292.155 100.232 292.387 107.523 292.388L151.907 292.39L178.331 292.388L185.946 292.384C187.529 292.376 189.959 291.876 191.017 293.404C191.759 294.478 190.994 295.484 190.025 296.042C184.831 296.34 177.059 296.102 171.654 296.101L135.973 296.096H101.921L91.0712 296.098C89.4957 296.099 87.6974 296.217 86.1532 296.126C83.5627 295.972 82.1689 294.467 84.4563 292.419Z" fill="#FA6F31"/>
<path d="M84.5865 302.955C89.54 302.793 95.3257 302.938 100.329 302.941L130.406 302.947L145.346 302.945C147.477 302.945 150.041 302.865 152.124 303.035C153.633 303.16 153.858 305.607 152.003 306.523C149.934 306.79 144.209 306.641 141.926 306.641L121.969 306.636L95.1181 306.632C91.9517 306.633 87.8499 306.779 84.6682 306.509C84.0294 306.455 83.3564 305.344 83.0078 304.798C83.5381 303.888 83.7263 303.563 84.5865 302.955Z" fill="#FA6F31"/>
<path d="M220.237 184.366C228.207 184.077 237.586 184.309 245.647 184.309L253.938 184.31C255.545 184.312 258.076 184.234 259.566 184.529C261.001 185.487 260.953 186.812 259.402 187.555C257.417 187.628 255.335 187.459 253.343 187.445C242.736 187.388 232.125 187.461 221.518 187.408C218.765 187.396 218.156 185.441 220.237 184.366Z" fill="#FA6F31"/>
<path d="M159.842 254.697C162.273 254.562 164.836 254.624 167.276 254.626C174.018 254.646 180.705 254.618 187.453 254.669C189.518 254.685 191.873 254.744 191.032 257.691C190.878 258.231 190.103 258.4 189.623 258.528C186.086 258.563 160.609 258.843 159.23 258.337C158.762 258.164 158.438 257.849 158.25 257.393C158.022 256.841 157.986 256.039 158.295 255.511C158.63 254.939 159.25 254.829 159.842 254.697Z" fill="#FA6F31"/>
<path d="M159.889 242.142C162.585 242.024 183.289 241.92 184.716 242.403C185.186 242.563 185.549 242.928 185.725 243.392C185.917 243.9 185.948 244.646 185.658 245.126C185.318 245.69 184.925 245.827 184.332 245.994C176.469 246.188 168.408 245.797 160.527 245.927C157.397 245.979 156.827 242.656 159.889 242.142Z" fill="#FA6F31"/>
<path d="M159.917 229.72C161.596 229.627 163.458 229.687 165.15 229.695C171.285 229.724 177.25 229.704 183.405 229.79C185.398 229.816 186.667 230.853 185.505 233.06C185.324 233.403 184.611 233.404 184.22 233.428L167.481 233.398C165.844 233.4 160.133 233.507 158.83 233.206C158.455 232.937 158.274 232.701 158.182 232.248C157.833 230.513 158.348 230.057 159.917 229.72Z" fill="#FA6F31"/>
<path d="M221.12 194.463C225.526 194.262 230.59 194.536 235.141 194.513C238.993 194.67 243.294 194.249 247.087 194.807C247.87 194.921 248.921 197.373 245.999 197.831C242.959 197.861 220.724 198.154 219.537 197.431C219.177 197.21 218.992 196.96 218.884 196.553C218.759 196.086 218.87 195.38 219.2 195.016C219.654 194.519 220.5 194.527 221.12 194.463Z" fill="#FA6F31"/>
<path d="M200.168 218.523C203.263 218.365 204.269 219.692 205.756 222.084C206.814 222.228 208.143 222.115 208.3 223.525C207.888 224.804 206.8 224.7 205.699 224.719C204.891 226.184 204.671 226.798 203.348 227.833C201.688 228.675 199.486 228.827 197.847 227.85C196.704 227.16 195.893 226.031 195.603 224.726C194.828 221.298 196.977 219.144 200.168 218.523Z" fill="#FA6F31"/>
<path d="M199.931 221.046C200.836 220.827 201.79 221.116 202.42 221.802C203.052 222.489 203.26 223.462 202.965 224.346C202.672 225.231 201.92 225.885 201.004 226.055C199.639 226.31 198.319 225.431 198.029 224.074C197.738 222.716 198.582 221.374 199.931 221.046Z" fill="#FEE396"/>
<path d="M200.004 272.541C202.816 272.371 204.863 273.464 205.682 276.33C206.732 276.443 208.572 276.495 208.203 278.06C207.484 278.892 206.909 278.807 205.808 278.92C205.033 280.213 204.658 281.016 203.419 281.907C200.338 283.538 196.664 282.313 195.74 278.816C195.392 277.473 195.624 276.044 196.377 274.878C197.25 273.501 198.465 272.877 200.004 272.541Z" fill="#FA6F31"/>
<path d="M199.842 275.019C200.191 274.999 201.135 274.922 201.44 275.043C202.104 275.308 202.641 275.819 202.939 276.47C203.244 277.137 203.259 277.903 202.983 278.583C202.629 279.454 202.174 279.789 201.351 280.14C200.061 280.162 199.148 280.032 198.398 278.831C198.031 278.255 197.927 277.549 198.115 276.89C198.388 275.926 199.01 275.46 199.842 275.019Z" fill="#FEE396"/>
<path d="M160.498 266.987C166.458 266.773 172.708 267.049 178.686 267.04C180.856 267.037 182.115 268.666 180.693 270.439C180.137 270.787 179.489 270.712 178.801 270.729C176.443 270.695 159.394 270.957 158.655 270.349C158.325 270.077 158.166 269.661 158.118 269.246C158.059 268.726 158.084 267.942 158.468 267.543C158.952 267.043 159.85 267.046 160.498 266.987Z" fill="#FA6F31"/>
<path d="M257.823 218.529C260.633 218.127 263.236 220.085 263.63 222.897C264.024 225.708 262.06 228.305 259.248 228.692C256.445 229.077 253.86 227.122 253.467 224.321C253.074 221.522 255.023 218.93 257.823 218.529Z" fill="#FA6F31"/>
<path d="M257.861 221.093C258.671 220.855 259.547 221.031 260.204 221.562C260.862 222.093 261.218 222.913 261.157 223.754C261.083 224.804 260.378 225.703 259.376 226.028C258.491 226.313 257.519 226.1 256.834 225.47C256.149 224.838 255.858 223.888 256.07 222.981C256.281 222.074 256.966 221.354 257.861 221.093Z" fill="#FEE396"/>
<path d="M258.13 272.574C260.936 272.234 263.489 274.229 263.835 277.035C264.183 279.839 262.195 282.396 259.391 282.752C256.576 283.109 254.005 281.112 253.655 278.296C253.308 275.477 255.312 272.914 258.13 272.574Z" fill="#FA6F31"/>
<path d="M258.199 275.131C259.584 274.827 260.955 275.693 261.272 277.075C261.589 278.457 260.732 279.834 259.353 280.164C257.958 280.496 256.559 279.626 256.239 278.229C255.92 276.831 256.8 275.44 258.199 275.131Z" fill="#FEE396"/>
<path d="M213.385 276.303C214.685 276.22 216.204 276.19 217.514 276.226C218.972 276.268 222.601 275.791 222.874 277.687C222.562 278.583 222.394 278.73 221.562 279.153C219.242 279.401 216.545 279.392 214.21 279.265C213.045 279.201 212.049 278.477 212.299 277.185C212.639 276.657 212.811 276.62 213.385 276.303Z" fill="#FA6F31"/>
<path d="M241.435 276.308C243.288 276.252 248.373 275.811 249.489 277.317C249.898 278.799 248.913 279.199 247.707 279.334C246.236 279.353 239.757 279.969 239.331 278.108C239.038 276.828 240.292 276.421 241.435 276.308Z" fill="#FA6F31"/>
<path d="M227.772 276.305C229.535 276.269 231.317 276.22 233.078 276.274C234.253 276.311 235.416 276.359 235.823 277.6C235.676 278.726 235.072 279.047 234.053 279.265C231.764 279.333 229.431 279.408 227.157 279.136C225.319 277.942 225.616 276.637 227.772 276.305Z" fill="#FA6F31"/>
<path d="M258.237 245.272C260.166 245.491 260.215 247.665 260.144 249.229C260.049 251.266 260.549 254.146 259.006 255.635C257.409 255.528 257.043 253.868 257.107 252.506C257.209 250.323 256.642 246.926 258.237 245.272Z" fill="#FA6F31"/>
<path d="M258.398 231.641C260.449 231.925 260.174 235.03 260.14 236.622C260.099 238.525 260.547 241.002 258.854 242.181C256.117 241.632 257.478 236.485 257.323 234.451C257.244 233.423 257.565 232.307 258.398 231.641Z" fill="#FA6F31"/>
<path d="M226.721 222.234C228.491 222.166 238.803 221.074 235.802 224.711C234.625 224.979 227.895 225.204 226.655 224.453C226.218 224.189 226.206 223.984 226.08 223.566C226.169 222.889 226.294 222.805 226.721 222.234Z" fill="#FA6F31"/>
<path d="M212.994 222.245C214.544 222.147 225.5 221.118 222.169 224.684C220.351 225.146 217.047 224.75 215.081 224.847C213.46 224.93 211.401 224.141 212.994 222.245Z" fill="#FA6F31"/>
<path d="M199.969 245.798C200.831 245.837 201.589 246.033 201.642 247.061C201.78 249.672 201.797 252.394 201.611 255.003C201.575 255.484 201.154 255.582 200.786 255.776C200.477 255.776 199.626 255.813 199.466 255.477C199.126 254.736 198.931 253.32 198.974 252.481C199.076 250.523 198.238 247.079 199.969 245.798Z" fill="#FA6F31"/>
<path d="M257.672 259.492C258.328 259.456 258.992 259.357 259.554 259.657C260.453 260.58 260.301 267.583 259.453 268.777C258.91 268.917 257.727 269.128 257.525 268.45C256.879 266.271 257.028 261.563 257.672 259.492Z" fill="#FA6F31"/>
<path d="M240.384 222.236C242.252 222.175 247.907 221.798 249.119 222.829C249.525 223.771 249.174 224.267 248.414 224.816C246.831 224.964 245.092 224.917 243.498 224.903C242.203 224.892 239.625 225.026 239.527 223.321C239.821 222.703 239.852 222.689 240.384 222.236Z" fill="#FA6F31"/>
<path d="M200.149 232.116C200.486 232.195 201.185 232.372 201.34 232.79C202.118 234.898 201.685 238.948 201.603 241.277C201.584 241.792 201.14 241.955 200.904 242.086C200.367 242.098 199.822 242.17 199.343 241.955C198.892 240.431 199.075 234.791 199.314 233.012C199.381 232.516 199.777 232.356 200.149 232.116Z" fill="#FA6F31"/>
<path d="M199.931 259.47C200.712 259.458 200.886 259.441 201.446 259.866C201.967 260.932 201.715 266.672 201.627 268.169C201.591 268.774 201.287 268.99 200.838 269.307C199.282 269.545 199.192 268.197 199.166 266.965C199.141 265.739 199.119 264.354 199.181 263.133C199.252 261.709 198.912 260.523 199.931 259.47Z" fill="#FA6F31"/>
</svg>
