<svg width="350" height="350" viewBox="0 0 350 350" fill="none" xmlns="http://www.w3.org/2000/svg">
<g clip-path="url(#clip0_3029_717)">
<path d="M142.446 96.3448C144.693 95.1782 147.881 94.1965 150.323 93.4472C163.913 89.2781 179.209 88.9806 192.812 93.237C220.442 101.883 237.958 129.423 241.261 157.205C241.491 159.153 241.668 161.12 241.862 163.07C241.868 177.214 240.922 187.878 235.744 201.389C236.829 201.394 238.139 201.371 239.201 201.434C237.802 201.602 236.985 201.569 235.565 201.529C233.951 206.982 229.384 215.114 226.376 219.978C226.007 220.568 225.491 221.339 225.171 221.935C225.291 221.933 225.411 221.933 225.533 221.931C235 220.332 243.785 221.173 251.093 228.008C258.373 234.815 259.926 246.593 255.582 255.419C258.51 255.982 261.421 256.631 264.31 257.364C270.722 259.026 282.361 262.489 286.113 268.244C289.235 273.033 282.468 277.535 278.63 279.249C264.508 285.554 248.512 287.467 233.271 289.113C228.571 289.622 223.804 289.69 219.106 290.164C216.026 290.741 213.027 292.327 209.993 293.136C187.085 299.251 162.329 301 138.721 300.941C127.721 301.013 116.727 300.45 105.792 299.252C99.4942 298.508 92.6637 297.442 86.6138 295.458C85.0084 294.868 81.9125 293.602 81.2742 291.921C80.1415 288.936 84.4918 287.769 86.4192 287.105C83.6325 286.825 80.6458 286.85 77.8207 286.5C64.8594 284.771 50.631 283.503 38.6771 277.922C26.2604 272.123 30.3375 265.161 40.7471 260.903C47.4008 258.181 52.7235 257.313 59.4294 255.552C55.4675 241.249 67.005 222.875 75.3658 211.8C80.7863 204.619 87.3665 196.968 90.5778 188.472C92.6869 182.892 92.4607 177.149 92.8116 171.398C93.3465 162.631 95.4297 149.376 98.9526 141.254C99.6701 139.713 100.426 137.61 101.153 135.955C95.7257 135.397 93.1714 130.229 94.7253 125.288C95.221 123.8 95.5365 123.109 96.241 121.697C90.1167 123.086 84.9325 119.577 85.0939 113.362C85.5087 97.3775 107.193 90.1877 120.296 90.2513C127.514 90.2861 137.271 91.438 142.446 96.3448Z" fill="#FAA8AA"/>
<path d="M255.582 255.418C258.51 255.982 261.421 256.631 264.31 257.364C270.722 259.026 282.361 262.489 286.113 268.243C289.235 273.033 282.468 277.535 278.63 279.249C264.508 285.554 248.512 287.467 233.271 289.113C228.571 289.622 223.804 289.69 219.106 290.164C216.026 290.741 213.027 292.327 209.993 293.136C187.085 299.25 162.329 301 138.721 300.941C127.721 301.013 116.727 300.45 105.792 299.252C99.4942 298.508 92.6637 297.442 86.6138 295.458C85.0084 294.868 81.9125 293.602 81.2742 291.921C80.1415 288.936 84.4918 287.769 86.4192 287.105C83.6325 286.825 80.6458 286.85 77.8207 286.5C64.8594 284.771 50.631 283.503 38.6771 277.922C26.2604 272.123 30.3375 265.161 40.7471 260.903C47.4008 258.181 52.7235 257.313 59.4294 255.552C60.2047 258.342 61.0688 260.046 62.4027 262.637C65.0778 266.21 68.385 268.773 72.9306 269.391C73.503 269.469 74.0783 269.523 74.6553 269.551C77.5679 270.638 82.2605 269.926 85.0644 268.586C88.2572 267.061 90.1417 265.293 92.6728 262.938C95.7164 265.595 98.3733 267.966 102.14 269.974C113.257 275.904 127.138 277.876 139.604 277.676C141.092 277.651 144.896 276.96 145.88 277.088C147.817 279.393 150.196 281.287 152.876 282.658C161.099 286.899 173.182 286.976 181.845 284.143C186.051 282.768 190.56 280.753 192.622 276.557C193.816 274.126 193.753 272.083 192.961 269.597C195.365 269.58 197.785 268.569 199.982 267.688C203.581 271.657 207.292 273.72 212.736 274.4C223.747 275.774 234.354 274.265 243.84 268.247C246.115 266.804 247.107 265.432 249.032 263.991L249.188 263.875C249.983 263.071 250.949 262.19 251.516 261.23C253.269 259.192 254.209 257.739 255.582 255.418Z" fill="#B9B2C9"/>
<path d="M62.4016 262.637C65.0766 266.21 68.3839 268.773 72.9295 269.391C73.5019 269.469 74.0772 269.523 74.6542 269.551C77.5668 270.638 82.2594 269.926 85.0633 268.586C88.2561 267.061 90.1406 265.293 92.6717 262.938C95.7153 265.596 98.3722 267.966 102.139 269.974C113.256 275.904 127.137 277.876 139.603 277.676C141.091 277.651 144.895 276.96 145.879 277.088C147.816 279.393 150.195 281.287 152.875 282.658C161.097 286.899 173.181 286.976 181.844 284.143C186.05 282.769 190.559 280.753 192.621 276.557C193.814 274.126 193.752 272.083 192.96 269.597C195.364 269.58 197.784 268.569 199.98 267.688C203.58 271.657 207.291 273.72 212.735 274.4C223.746 275.774 234.353 274.265 243.839 268.247C246.114 266.804 247.106 265.432 249.03 263.991L249.187 263.875C256.099 266.681 253.304 270.964 247.881 272.904C236.426 277 223.839 277.697 211.772 277.408C206.877 277.29 199.99 276.563 195.798 279.298C194.469 282.555 191.823 284.508 188.532 285.614C174.523 290.315 159.334 289.41 145.426 284.885C135.447 281.64 124.121 281.091 113.878 278.957C110.809 278.327 107.764 277.585 104.75 276.73C96.2361 274.32 93.5514 273.602 84.5678 274.28C77.1573 274.84 67.4572 273.949 60.5552 271.423C59.2111 270.932 56.986 269.401 56.5019 267.973C55.5421 264.8 60.2282 263.319 62.4016 262.637Z" fill="#9D8BA8"/>
<path d="M182.747 262.11C184.615 228.588 158.318 220.57 131.917 235.94C130.76 236.614 127.792 239.057 126.624 238.87L126.593 238.451C126.748 238.147 126.882 237.914 127.13 237.663C139.66 225.034 162.457 218.208 177.115 231.179C184.345 237.577 186.784 247.138 187.292 256.41C191.963 257.522 194.217 257.337 198.658 255.369C199.861 254.834 201.342 254.124 202.639 253.941C204.171 254.571 203.048 258.87 203.412 260.635C203.794 263.452 205.978 266.397 208.462 267.994C217.32 273.694 230.012 271.609 239.321 268.156C243.699 266.53 247.838 263.898 251.515 261.23C250.948 262.19 249.983 263.071 249.187 263.875L249.031 263.991C247.107 265.432 246.115 266.804 243.84 268.247C234.354 274.265 223.747 275.775 212.736 274.4C207.291 273.72 203.581 271.657 199.981 267.688C197.784 268.569 195.365 269.58 192.96 269.597C190.28 265.314 187.549 263.707 182.747 262.11Z" fill="#D57485"/>
<path d="M74.6553 269.551C80.3136 268.9 84.3181 267.379 88.6099 263.505C93.2941 259.275 97.2292 254.063 100.152 248.482C101.585 245.689 102.931 242.854 104.188 239.978C105.412 237.141 109.797 224.636 111.923 223.892C113.313 225.716 109.901 237.322 109.186 239.917C107.594 245.698 105.059 251.251 102.806 256.785C111.53 267.263 122.991 272.689 136.996 269.799C138.278 269.532 139.963 268.769 141.278 268.362C142.277 269.628 143.448 272.626 144.203 274.198C144.67 275.171 145.554 276.414 145.88 277.088C144.896 276.96 141.092 277.652 139.604 277.676C127.138 277.876 113.257 275.904 102.14 269.974C98.3733 267.966 95.7163 265.596 92.6728 262.938C90.1416 265.293 88.2572 267.061 85.0644 268.586C82.2604 269.926 77.5679 270.638 74.6553 269.551Z" fill="#D57485"/>
<path d="M125.075 109.249C125.63 112.293 122.224 123.112 120.908 126.157C119.978 128.308 118.847 130.364 117.528 132.3C113.017 138.878 106.984 142.459 98.9521 141.254C99.6696 139.713 100.426 137.61 101.153 135.955C103.255 135.76 103.009 136.185 105.637 135.414C113.649 133.064 117.391 122.694 120.839 115.926C121.861 113.918 123.454 110.79 125.075 109.249Z" fill="#D57485"/>
<path d="M225.17 221.935L225.268 222.171L225.873 222.251C226.252 221.912 217.105 225.959 216.337 226.392C214.373 227.484 212.475 228.699 210.659 230.026C210.067 230.454 208.256 231.964 207.666 231.973L207.523 231.67C207.971 229.889 211.704 226.864 213.092 225.712C216.501 222.881 221.965 220.416 226.375 219.978C226.006 220.568 225.49 221.339 225.17 221.935Z" fill="#D57485"/>
<path d="M159.845 124.927C171.44 124.533 181.168 133.595 181.596 145.189C182.024 156.783 172.991 166.538 161.398 167.001C149.757 167.466 139.951 158.386 139.521 146.743C139.092 135.1 148.2 125.322 159.845 124.927Z" fill="#FFFFFE"/>
<path d="M164.243 131.093C170.534 129.685 176.767 133.676 178.121 139.98C179.474 146.283 175.429 152.481 169.114 153.78C162.876 155.063 156.77 151.077 155.433 144.851C154.096 138.624 158.028 132.484 164.243 131.093Z" fill="#39393A"/>
<path d="M196.852 106.972C208.122 105.264 218.632 113.042 220.29 124.318C221.95 135.594 214.126 146.07 202.843 147.68C191.628 149.28 181.231 141.515 179.582 130.308C177.933 119.101 185.653 108.67 196.852 106.972Z" fill="#FFFFFE"/>
<path d="M203.703 112.527C209.969 111.534 215.854 115.81 216.845 122.077C217.837 128.344 213.562 134.228 207.295 135.219C201.028 136.21 195.146 131.934 194.154 125.669C193.162 119.403 197.436 113.519 203.703 112.527Z" fill="#39393A"/>
<path d="M194.565 156.488C197.451 155.642 200.476 157.305 201.308 160.195C202.14 163.086 200.463 166.102 197.569 166.92C194.693 167.733 191.702 166.07 190.876 163.199C190.048 160.328 191.698 157.329 194.565 156.488Z" fill="#39393A"/>
<path d="M257.473 134.177C257.422 134.166 257.37 134.155 257.319 134.142C254.987 133.565 253.047 132.341 251.686 130.33C246.782 123.084 253.161 113.382 250.866 108.637C248.764 104.292 240.93 100.251 238.168 95.4238C236.971 93.3292 236.628 90.9555 237.279 88.622C239.139 81.9605 248.362 81.1471 253.995 79.9506C255.535 79.6235 257.264 79.433 258.574 78.4966C263.565 74.9268 263.317 63.5193 270.534 59.6554C272.703 58.4943 275.335 58.3919 277.656 59.1397C282.95 60.8463 285.057 65.9434 287.427 70.4692C288.395 72.3174 289.367 74.477 290.898 75.9337C294.26 79.1313 303.618 77.887 308.303 79.3961C310.58 80.1297 312.984 82.0166 314.022 84.2091C318.383 93.4164 305.09 99.4131 302.286 106.898C303.352 113.908 309.371 125.328 301.753 130.653C298.688 132.795 295.71 132.355 292.282 131.624C288.379 129.565 284.58 127.384 280.709 125.274C278.886 124.281 277.289 124.334 275.392 125.068C274.867 124.117 274.564 123.844 273.833 123.079C267.212 120.777 263.12 126.228 260.633 131.586C260.254 132.403 259.975 133.517 259.573 134.254L257.473 134.177Z" fill="#FECE42"/>
<path d="M257.474 134.177C257.721 132.057 259.907 128.619 261.144 126.884C263.838 123.112 269.682 118.679 273.834 123.079C267.213 120.777 263.12 126.228 260.634 131.586C260.255 132.403 259.975 133.517 259.573 134.254L257.474 134.177Z" fill="#FE9245"/>
<path d="M259.573 134.254C259.975 133.517 260.255 132.403 260.634 131.586C263.12 126.228 267.213 120.777 273.834 123.079C274.565 123.844 274.867 124.117 275.393 125.068C277.289 124.334 278.886 124.281 280.71 125.274C284.58 127.384 288.38 129.565 292.282 131.624C293.036 133.498 293.514 134.928 293.942 136.92C295.718 147.438 294.02 158.29 289.459 167.896C288.814 169.257 287.555 172.255 286.659 173.285C279.446 185.992 267.533 195.356 253.482 199.363C249.116 200.57 243.74 201.39 239.2 201.434C238.138 201.371 236.828 201.394 235.743 201.389C240.921 187.878 241.867 177.214 241.862 163.07L242.549 162.927C243.919 162.249 245.172 161.624 246.489 160.885C254.07 156.629 257.424 148.206 258.448 139.954C258.68 138.081 259.107 136.089 259.573 134.254Z" fill="#FEA19F"/>
<path d="M241.862 163.07L242.549 162.927C250.883 180.796 262.615 193.507 281.268 178.192C282.265 177.375 285.987 173.599 286.659 173.284C279.446 185.991 267.533 195.356 253.482 199.363C249.116 200.57 243.74 201.39 239.2 201.434C238.138 201.371 236.828 201.394 235.743 201.388C240.921 187.878 241.867 177.214 241.862 163.07Z" fill="#D57485"/>
<path d="M275.394 125.068C277.29 124.334 278.887 124.281 280.711 125.274C284.581 127.384 288.38 129.565 292.283 131.624C293.037 133.498 293.515 134.928 293.943 136.92C293.321 137.911 292.085 137.179 291.19 136.89C287.198 135.599 284.649 132.623 281.655 129.936C281.147 129.481 280.376 129.252 279.665 129.404C277.939 130.563 277.512 138.331 274.699 136.122C274.619 135.362 274.944 135.102 275.236 134.41C276.41 131.622 276.424 128.144 275.481 125.328L275.394 125.068Z" fill="#D57485"/>
<path d="M309.703 50C309.884 50.1755 309.897 50.2606 310.004 50.5277C310.981 52.9549 312.189 54.5452 314.567 55.7131C312.96 56.5454 311.616 57.2758 310.695 58.9071C310.352 59.5144 310.067 60.1833 309.62 60.7085C307.84 57.5125 307.154 56.9522 303.92 55.4548C306.694 54.0386 308.519 53.1136 309.703 50Z" fill="#FECE42"/>
<path d="M315.008 107.15C317.926 107.098 318.322 107.914 319.753 110.349C318.897 112.322 317.945 113.334 316.178 114.504C314.117 112.973 314.235 111.686 311.314 110.417C313.098 109.568 313.707 108.594 315.008 107.15Z" fill="#FECE42"/>
</g>
<defs>
<clipPath id="clip0_3029_717">
<rect width="350" height="350" fill="white"/>
</clipPath>
</defs>
</svg>
