<svg width="350" height="350" viewBox="0 0 350 350" fill="none" xmlns="http://www.w3.org/2000/svg">
<g clip-path="url(#clip0_3029_717)">
<path d="M71.503 123.242C66.0382 119.951 61.6232 113.494 68.8085 108.486C71.2962 106.752 75.1457 106.603 78.0621 107.387C92.2923 111.214 100.225 125.782 105.463 138.434C108.664 146.502 109.711 151.677 114.323 159.401C135.468 126.762 182.738 109.585 218.929 125.81C230.513 130.883 240.033 139.731 245.941 150.91C247.261 153.451 248.329 156.368 249.352 159.045L249.588 159.176C249.356 160.142 250.157 162.26 250.467 163.329C253.633 174.241 252.876 185.124 251.574 196.27C249.576 212.52 240.645 227.995 238.704 244.2C238.372 246.965 239.572 250.653 241.289 252.803C246.941 259.641 257.795 260.96 256.416 272.552C256.375 272.926 256.315 273.299 256.235 273.668C264.209 275.495 272.588 277.583 279.986 281.141C282.908 282.546 287.28 285.051 288.338 288.341C288.791 289.751 288.562 291.306 287.852 292.59C281.857 303.438 240.346 305.886 228.973 306.204C225.348 306.311 221.722 306.342 218.095 306.298C216.995 306.28 211.093 306.082 210.405 306.308C196.567 310.831 182.13 312.961 167.653 314.217C149.058 315.943 130.344 315.965 111.745 314.28C103.207 313.484 93.3943 312.212 85.6269 308.418C80.6912 306.007 83.4469 302.517 87.246 301.164C89.8406 300.241 91.7417 299.607 94.4948 299.072C81.1169 299.074 62.6893 295.24 50.5263 289.488C42.6217 285.749 41.9338 279.386 50.342 275.568C55.6132 273.174 60.1419 271.873 65.8347 270.672L65.7366 270.313C63.7904 267.904 62.2593 261.488 62.1568 258.42C61.5407 239.994 76.9477 225.893 88.8854 213.932C90.8366 211.977 92.7004 209.819 94.5393 207.781C95.1381 207.197 95.5642 206.551 96.055 205.873C102.103 197.705 101.521 191.142 96.2742 182.827C94.1999 180.083 90.5322 176.768 88.0896 174.055C80.8737 166.041 75.3118 156.892 74.1258 145.937C73.9002 143.853 74.0173 141.925 74.1207 139.859C67.6552 141.31 64.2872 136.481 65.5872 130.334C66.2735 127.089 68.7675 124.913 71.503 123.242Z" fill="#FF9D75"/>
<path d="M65.8347 270.672L66.3581 271.238C67.4305 272.866 68.6025 274.145 69.9313 275.573C77.8223 282.676 87.2816 284.149 97.5408 283.481C104.045 283.057 105.91 283.055 112.048 285.128C120.078 295.587 128.337 297.922 141.407 296.814C147.264 296.319 151.758 295.042 157.329 293.265C161.551 292.501 165.756 291.405 169.869 290.681C174.695 289.862 179.595 289.561 184.484 289.787C201.646 290.693 219.162 299.038 236.339 292.937C242.884 290.612 247.291 287.95 251.713 282.519L252.897 280.994C254.667 278.819 255.585 276.358 256.235 273.668C264.209 275.495 272.588 277.583 279.986 281.141C282.908 282.546 287.28 285.051 288.338 288.341C288.791 289.751 288.562 291.306 287.852 292.59C281.857 303.438 240.346 305.885 228.973 306.203C225.348 306.311 221.722 306.342 218.095 306.297C216.995 306.28 211.093 306.082 210.405 306.308C196.567 310.831 182.13 312.961 167.653 314.217C149.058 315.943 130.344 315.965 111.745 314.28C103.207 313.484 93.3943 312.212 85.6269 308.418C80.6912 306.007 83.4469 302.517 87.246 301.164C89.8406 300.241 91.7417 299.607 94.4948 299.072C81.1169 299.073 62.6893 295.24 50.5263 289.488C42.6217 285.749 41.9338 279.386 50.342 275.568C55.6132 273.174 60.1419 271.873 65.8347 270.672Z" fill="#C6B3C7"/>
<path d="M69.9317 275.573C77.8228 282.676 87.282 284.149 97.5412 283.481C104.045 283.057 105.91 283.055 112.048 285.128C120.078 295.587 128.337 297.922 141.407 296.814C147.265 296.319 151.758 295.042 157.33 293.265C161.551 292.501 165.757 291.406 169.869 290.681C174.695 289.862 179.595 289.562 184.485 289.787C201.647 290.693 219.162 299.038 236.339 292.937C242.884 290.613 247.292 287.95 251.713 282.519C252.872 283.544 253.306 284.617 253.073 286.185C252.74 288.432 250.782 290.614 248.886 291.831C243.036 295.586 235.643 297.25 228.783 297.847C222.799 298.276 216.327 298.088 210.422 297.259C200.671 295.89 190.518 293.591 180.655 293.906C173.096 294.147 165.865 296.015 158.569 297.801C149.306 300.068 139.136 301.854 129.574 300.82C124.407 300.261 117.265 298.214 113.509 294.418C111.022 291.905 110.014 289.652 106.22 288.377C101.719 286.865 97.4043 287.555 92.7524 287.359C89.2154 287.208 85.235 286.972 81.6553 286.325C77.1786 285.402 71.0143 284.315 67.9799 280.588C66.3821 278.626 68.2154 276.589 69.9317 275.573Z" fill="#AF9AAF"/>
<path d="M157.329 293.265C159.817 291.829 162.896 290.542 165.514 289.162C170.614 286.475 175.377 282.736 180.868 281.005C190.674 277.913 200.744 282.08 210.162 284.633C217.941 286.627 227.221 288.136 235.176 287.017C239.62 286.501 243.786 285.315 247.847 283.435C249.431 282.702 251.232 281.451 252.897 280.994L251.712 282.519C247.291 287.95 242.884 290.613 236.338 292.937C219.161 299.038 201.646 290.693 184.484 289.787C179.595 289.562 174.695 289.862 169.868 290.681C165.756 291.406 161.55 292.501 157.329 293.265Z" fill="#E57964"/>
<path d="M66.3584 271.238C67.2941 271.73 67.7495 271.629 68.6478 271.968C75.0052 276.184 84.4926 277.616 91.6893 275.679C104.883 272.128 106.981 271.098 112.048 285.128C105.91 283.055 104.045 283.057 97.541 283.481C87.2818 284.149 77.8226 282.676 69.9315 275.573C68.6028 274.145 67.4308 272.866 66.3584 271.238Z" fill="#E57964"/>
<path d="M96.274 182.827C97.8509 183.127 103.612 187.918 104.813 189.134C105.789 190.125 106.669 191.206 107.44 192.364C109.507 195.433 110.614 199.001 109.959 202.711C108.953 208.414 102.673 211.598 97.3996 209.364C96.0604 209.135 95.4853 208.703 94.5391 207.781C95.1379 207.197 95.5639 206.551 96.0548 205.872C102.103 197.705 101.521 191.142 96.274 182.827Z" fill="#E57964"/>
<path d="M94.5391 207.782C95.1379 207.197 95.5639 206.551 96.0548 205.873C96.4388 207.317 96.7354 208.014 97.3996 209.364C96.0604 209.135 95.4853 208.703 94.5391 207.782Z" fill="#F5896E"/>
<path d="M65.7363 270.313L66.0446 269.999C66.7648 270.074 68.0498 271.412 68.6472 271.967C67.749 271.629 67.2936 271.73 66.3579 271.238L65.8344 270.672L65.7363 270.313Z" fill="#F5896E"/>
<path d="M159.017 136.822C170.885 136.113 181.079 145.162 181.783 157.03C182.487 168.899 173.433 179.089 161.565 179.787C149.704 180.485 139.522 171.438 138.819 159.578C138.115 147.717 147.157 137.531 159.017 136.822Z" fill="white"/>
<path d="M165.582 143.493C171.688 142.882 177.138 147.323 177.774 153.427C178.408 159.53 173.989 164.998 167.888 165.657C161.753 166.32 156.247 161.87 155.609 155.733C154.97 149.595 159.442 144.107 165.582 143.493Z" fill="#232935"/>
<path d="M170.581 145.512C173.011 146.465 175.658 147.487 173.032 150.321C169.957 151.422 168.899 148.011 170.581 145.512Z" fill="#848485"/>
<path d="M204.837 128.103C216.311 126.355 227.032 134.232 228.792 145.703C230.554 157.175 222.691 167.905 211.22 169.681C199.732 171.459 188.98 163.579 187.214 152.088C185.45 140.596 193.344 129.853 204.837 128.103Z" fill="white"/>
<path d="M210.331 133.688C216.365 133.399 221.484 138.07 221.748 144.106C222.013 150.141 217.324 155.243 211.286 155.485C205.284 155.725 200.215 151.065 199.952 145.063C199.689 139.06 204.329 133.975 210.331 133.688Z" fill="#232935"/>
<path d="M214.735 135.618C216.092 136.228 216.385 135.922 217.651 137.147C219.027 138.479 219.281 139.512 217.743 140.898C216.931 141.14 216.114 141.247 215.386 140.787C213.283 139.453 213.862 137.271 214.735 135.618Z" fill="#848485"/>
<path d="M192.112 176.274C193.327 174.715 194.574 172.982 196.682 172.803C201.439 172.399 202.909 179.51 203.104 182.907C203.473 189.33 202.516 195.956 199.081 201.415C195.955 205.97 191.204 207.523 186.821 203.237C185.592 202.038 184.903 200.754 184.04 199.272C180.938 193.593 179.356 185.27 181.114 178.906C181.989 175.742 184.256 172.049 188.133 173.258C189.834 173.788 190.905 175.034 192.112 176.274Z" fill="#7F3134"/>
<path d="M184.04 199.272C186.556 197.956 187.721 197.468 190.568 197.29C194.771 197.025 196.428 198.505 199.081 201.415C195.955 205.97 191.204 207.523 186.821 203.237C185.592 202.037 184.903 200.754 184.04 199.272Z" fill="#AE3841"/>
<path d="M250.194 154.255C250.24 149.793 249.794 145.663 249.631 141.235C249.24 129.767 251.728 117.195 260.07 108.795C263.139 105.705 267.911 102.836 272.361 102.994C282.263 103.347 282.633 113.313 275.827 118.468C282.507 118.807 288.567 127.281 283.298 133.144C282.324 134.229 280.12 134.639 278.681 134.859C286.142 150.087 278.903 170.493 268.509 182.575C267.991 183.176 267.109 184.431 266.557 184.906C262.673 188.877 256.736 194.058 251.574 196.27C252.877 185.124 253.634 174.241 250.467 163.329C250.158 162.26 249.356 160.142 249.589 159.176C249.746 157.527 250.06 156.027 250.194 154.255Z" fill="#FEA06F"/>
<path d="M250.194 154.255C251.405 154.668 253.962 158.959 254.613 160.282C256.77 164.617 257.983 169.383 258.586 174.171C258.894 176.612 258.761 178.977 259.634 181.327C260.912 184.769 263.525 184.656 266.557 184.906C262.673 188.877 256.736 194.058 251.574 196.27C252.877 185.124 253.634 174.241 250.467 163.329C250.158 162.26 249.356 160.142 249.589 159.176C249.746 157.527 250.06 156.027 250.194 154.255Z" fill="#E57964"/>
<path d="M159.622 34.2797C167.018 33.5664 173.707 36.6627 176.483 43.7795C181.628 56.9771 170.67 72.9738 164.084 83.9687C163.182 85.4742 161.331 88.4734 159.947 88.7867C155.953 89.6911 141.734 82.7002 139.259 81.3965C130.795 76.9537 120.215 69.7329 119.414 59.1794C119.093 54.9259 120.47 50.7184 123.245 47.4812C130.322 39.3772 140.042 41.9575 147.111 48.2931C148.768 41.077 152.168 36.2266 159.622 34.2797Z" fill="#FE459E"/>
<path d="M300.933 133.329C301.885 133.628 302.605 134.288 303.03 135.198C307.66 145.112 302.429 163.186 292.535 168.202C291.669 168.502 290.796 168.763 289.984 168.211C289.128 166.327 292.12 163.772 293.233 162.35C297.953 156.315 300.481 148.751 300.205 141.084C300.134 139.127 299.643 137.106 299.759 135.131C299.812 134.234 300.31 133.861 300.933 133.329Z" fill="#FECD45"/>
<path d="M47.3706 139.696C49.4916 139.672 49.5513 141.996 49.5757 143.563C49.7022 151.614 53.2415 159.396 59.3926 164.634C60.6576 165.711 65.4383 169.099 60.8981 169.922C51.8357 167.411 45.5275 155.168 45.4157 146.293C45.3872 144.019 45.7213 141.385 47.3706 139.696Z" fill="#FECD45"/>
<path d="M309.967 153.531C314.669 153.914 311.536 164.005 310.442 166.56C308.166 171.874 303.709 177.14 298.264 179.316C297.545 179.369 296.81 179.36 296.288 178.794C295.164 177.557 297.762 175.491 298.613 174.66C301.59 171.751 304.509 168.579 306.182 164.671C306.884 163.012 307.445 161.296 307.858 159.543C308.32 157.529 308.501 154.993 309.967 153.531Z" fill="#FECD45"/>
<path d="M38.8051 156.083C41.0659 156.111 41.3609 159.19 42.0621 161.066C42.6676 162.689 43.4124 164.256 44.2884 165.751C45.9572 168.518 48.0846 170.982 50.5795 173.037C51.967 174.201 53.6516 175.28 54.8256 176.647C55.4915 177.422 54.5676 178.271 53.971 178.674C46.1707 179.771 33.6544 162.092 38.8051 156.083Z" fill="#FECD45"/>
<path d="M134.424 100.285C147.729 99.4719 145.192 116.684 142.808 125.037C138.754 125.286 134.688 125.264 130.637 124.969C125.354 124.388 120.953 122.417 119.61 116.765C118.293 111.224 124.349 110.014 128.177 109.321C130.282 106.37 126.168 103.745 134.424 100.285Z" fill="#FECD45"/>
<path d="M193.92 96.4976C195.713 97.0714 194.616 98.6603 196.118 100.214C197.396 101.537 199.213 100.996 200.162 102.129L200.121 102.455C199.143 103.284 198.345 102.809 197.198 103.429C195.458 104.368 194.963 106.037 194.431 107.763C194.006 107.95 194.16 107.927 193.715 107.892C193.062 107.152 193.278 105.387 192.186 104.147C191.107 102.923 189.106 102.92 188.469 102.13L188.51 101.765C191.051 99.4823 192.293 103.039 193.92 96.4976Z" fill="#FECD45"/>
</g>
<defs>
<clipPath id="clip0_3029_717">
<rect width="350" height="350" fill="white"/>
</clipPath>
</defs>
</svg>
