<svg width="282" height="120" viewBox="0 0 282 120" fill="none" xmlns="http://www.w3.org/2000/svg">
<path d="M51.7704 44.4853H36.8898V73.8596H66.2445V51.6238H51.7704V44.4853H73.7255V81.3264H29.4902V37.0187H51.7704V44.4853Z" fill="#EDEDED"/>
<path d="M51.7704 59.0904H59.1701V66.475H44.3708V51.6238H51.7704V59.0904Z" fill="#EDEDED"/>
<path d="M102.636 70.6482C100.8 70.6482 99.1081 70.3602 97.5598 69.7842C96.0337 69.1861 94.6956 68.3442 93.5455 67.2587C92.4175 66.1732 91.5328 64.8993 90.8913 63.4372C90.2721 61.975 89.9624 60.3689 89.9624 58.6187C89.9624 56.8686 90.2721 55.2624 90.8913 53.8002C91.5328 52.3381 92.4285 51.0642 93.5786 49.9787C94.7288 48.8932 96.0779 48.0624 97.6262 47.4864C99.1744 46.8882 100.877 46.5892 102.735 46.5892C104.792 46.5892 106.639 46.9326 108.276 47.6193C109.935 48.3061 111.328 49.303 112.456 50.6101L109.006 53.8002C108.165 52.9141 107.247 52.2606 106.252 51.8396C105.257 51.3966 104.173 51.175 103.001 51.175C101.873 51.175 100.844 51.3522 99.9153 51.7067C98.9864 52.0612 98.1791 52.5707 97.4935 53.2353C96.8299 53.8999 96.3102 54.6864 95.9342 55.5947C95.5803 56.503 95.4033 57.511 95.4033 58.6187C95.4033 59.7042 95.5803 60.7012 95.9342 61.6095C96.3102 62.5178 96.8299 63.3153 97.4935 64.0021C98.1791 64.6667 98.9753 65.1762 99.8822 65.5307C100.811 65.8852 101.829 66.0624 102.934 66.0624C103.996 66.0624 105.025 65.8963 106.02 65.5639C107.037 65.2095 108.021 64.6224 108.973 63.8027L112.025 67.6907C110.764 68.6433 109.293 69.3744 107.612 69.8839C105.953 70.3935 104.295 70.6482 102.636 70.6482ZM107.115 66.9929V58.2532H112.025V67.6907L107.115 66.9929ZM127.335 70.6482C124.04 70.6482 121.463 69.7289 119.605 67.8901C117.747 66.0513 116.818 63.4261 116.818 60.0144V46.9879H122.193V59.815C122.193 62.0304 122.646 63.6255 123.553 64.6002C124.46 65.575 125.732 66.0624 127.368 66.0624C129.005 66.0624 130.277 65.575 131.184 64.6002C132.09 63.6255 132.544 62.0304 132.544 59.815V46.9879H137.852V60.0144C137.852 63.4261 136.923 66.0513 135.065 67.8901C133.207 69.7289 130.631 70.6482 127.335 70.6482ZM143.163 70.2495V46.9879H148.538V70.2495H143.163ZM165.263 70.6482C163.427 70.6482 161.735 70.3602 160.187 69.7842C158.661 69.1861 157.323 68.3442 156.173 67.2587C155.045 66.1732 154.16 64.8993 153.518 63.4372C152.899 61.975 152.589 60.3689 152.589 58.6187C152.589 56.8686 152.899 55.2624 153.518 53.8002C154.16 52.3381 155.056 51.0642 156.206 49.9787C157.356 48.8932 158.705 48.0624 160.253 47.4864C161.801 46.8882 163.505 46.5892 165.362 46.5892C167.419 46.5892 169.266 46.9326 170.903 47.6193C172.562 48.3061 173.955 49.303 175.083 50.6101L171.633 53.8002C170.792 52.9141 169.874 52.2606 168.879 51.8396C167.884 51.3966 166.8 51.175 165.628 51.175C164.5 51.175 163.471 51.3522 162.542 51.7067C161.613 52.0612 160.806 52.5707 160.121 53.2353C159.457 53.8999 158.937 54.6864 158.561 55.5947C158.207 56.503 158.03 57.511 158.03 58.6187C158.03 59.7042 158.207 60.7012 158.561 61.6095C158.937 62.5178 159.457 63.3153 160.121 64.0021C160.806 64.6667 161.602 65.1762 162.509 65.5307C163.438 65.8852 164.456 66.0624 165.561 66.0624C166.623 66.0624 167.652 65.8963 168.647 65.5639C169.664 65.2095 170.648 64.6224 171.6 63.8027L174.652 67.6907C173.391 68.6433 171.92 69.3744 170.239 69.8839C168.581 70.3935 166.922 70.6482 165.263 70.6482ZM169.742 66.9929V58.2532H174.652V67.6907L169.742 66.9929ZM190.925 70.6482C189.089 70.6482 187.386 70.3492 185.816 69.751C184.267 69.1529 182.918 68.311 181.768 67.2255C180.64 66.1399 179.755 64.8661 179.114 63.4039C178.494 61.9418 178.185 60.3467 178.185 58.6187C178.185 56.8907 178.494 55.2956 179.114 53.8335C179.755 52.3713 180.651 51.0975 181.801 50.0119C182.951 48.9264 184.3 48.0846 185.849 47.4864C187.397 46.8882 189.078 46.5892 190.892 46.5892C192.728 46.5892 194.409 46.8882 195.935 47.4864C197.483 48.0846 198.821 48.9264 199.949 50.0119C201.099 51.0975 201.995 52.3713 202.636 53.8335C203.278 55.2735 203.598 56.8686 203.598 58.6187C203.598 60.3467 203.278 61.9529 202.636 63.4372C201.995 64.8993 201.099 66.1732 199.949 67.2587C198.821 68.3221 197.483 69.1529 195.935 69.751C194.409 70.3492 192.739 70.6482 190.925 70.6482ZM190.892 66.0624C191.931 66.0624 192.882 65.8852 193.745 65.5307C194.63 65.1762 195.404 64.6667 196.067 64.0021C196.731 63.3375 197.24 62.551 197.594 61.6427C197.97 60.7344 198.158 59.7264 198.158 58.6187C198.158 57.511 197.97 56.503 197.594 55.5947C197.24 54.6864 196.731 53.8999 196.067 53.2353C195.426 52.5707 194.663 52.0612 193.778 51.7067C192.894 51.3522 191.931 51.175 190.892 51.175C189.852 51.175 188.89 51.3522 188.006 51.7067C187.143 52.0612 186.38 52.5707 185.716 53.2353C185.053 53.8999 184.533 54.6864 184.156 55.5947C183.803 56.503 183.626 57.511 183.626 58.6187C183.626 59.7042 183.803 60.7123 184.156 61.6427C184.533 62.551 185.042 63.3375 185.683 64.0021C186.347 64.6667 187.121 65.1762 188.006 65.5307C188.89 65.8852 189.852 66.0624 190.892 66.0624ZM207.637 70.2495V46.9879H213.011V65.863H224.656V70.2495H207.637ZM238.552 70.6482C236.716 70.6482 235.013 70.3492 233.443 69.751C231.894 69.1529 230.545 68.311 229.393 67.2255C228.267 66.1399 227.382 64.8661 226.741 63.4039C226.122 61.9418 225.812 60.3467 225.812 58.6187C225.812 56.8907 226.122 55.2956 226.741 53.8335C227.382 52.3713 228.278 51.0975 229.428 50.0119C230.578 48.9264 231.927 48.0846 233.476 47.4864C235.024 46.8882 236.705 46.5892 238.519 46.5892C240.354 46.5892 242.033 46.8882 243.561 47.4864C245.11 48.0846 246.448 48.9264 247.576 50.0119C248.726 51.0975 249.622 52.3713 250.263 53.8335C250.904 55.2735 251.225 56.8686 251.225 58.6187C251.225 60.3467 250.904 61.9529 250.263 63.4372C249.622 64.8993 248.726 66.1732 247.576 67.2587C246.448 68.3221 245.11 69.1529 243.561 69.751C242.033 70.3492 240.364 70.6482 238.552 70.6482ZM238.519 66.0624C239.558 66.0624 240.509 65.8852 241.372 65.5307C242.256 65.1762 243.031 64.6667 243.694 64.0021C244.358 63.3375 244.866 62.551 245.22 61.6427C245.596 60.7344 245.784 59.7264 245.784 58.6187C245.784 57.511 245.596 56.503 245.22 55.5947C244.866 54.6864 244.358 53.8999 243.694 53.2353C243.053 52.5707 242.29 52.0612 241.405 51.7067C240.52 51.3522 239.558 51.175 238.519 51.175C237.479 51.175 236.517 51.3522 235.632 51.7067C234.77 52.0612 234.007 52.5707 233.343 53.2353C232.679 53.8999 232.16 54.6864 231.784 55.5947C231.43 56.503 231.253 57.511 231.253 58.6187C231.253 59.7042 231.43 60.7123 231.784 61.6427C232.16 62.551 232.668 63.3375 233.31 64.0021C233.973 64.6667 234.747 65.1762 235.632 65.5307C236.517 65.8852 237.479 66.0624 238.519 66.0624Z" fill="#EDEDED"/>
</svg>
