<svg width="24" height="24" viewBox="0 0 24 24" fill="none" xmlns="http://www.w3.org/2000/svg">
<path d="M14.3651 19.8363C14.5733 19.698 14.851 19.698 14.9204 19.4905L14.851 19.3522C14.018 18.799 13.0463 18.5225 12.6298 17.6235C13.3933 17.6235 14.1569 17.6235 14.9204 17.4853C15.4757 17.347 16.031 17.1395 16.5168 16.8629C17.6274 16.1715 18.5297 15.2725 19.1544 14.1662C19.8485 12.9907 20.0568 11.6769 19.9874 10.3631C19.918 9.94822 19.8485 9.53334 19.5709 9.1876H19.3627C18.738 9.94822 18.5297 11.0546 17.558 11.4003C17.8356 9.87907 17.3498 8.35784 16.5168 7.04404C15.8227 5.93769 14.851 5.24622 13.7404 4.76219C12.3522 4.13986 10.6169 3.51754 9.15928 4.55475C9.02046 4.62389 9.22869 4.83134 9.36751 4.90048C10.131 5.31536 11.0334 5.6611 11.3804 6.49087C9.85339 6.21428 8.32635 6.62916 7.00755 7.52807C4.64758 9.11846 3.4676 11.9535 4.23112 14.5811C4.30053 14.7194 4.36994 14.8577 4.50876 14.9268C4.64758 14.9268 4.7864 14.7885 4.85581 14.6502C5.06404 13.9588 5.54992 13.4056 6.0358 12.8524L6.45226 12.645C6.17462 14.5811 6.86873 16.5172 8.18753 17.9001C9.78398 19.4905 12.1439 20.3894 14.3651 19.8363Z" fill="currentColor"/>
</svg>
